%TF.GenerationSoftware,KiCad,Pcbnew,(6.0.2)*%
%TF.CreationDate,2022-04-22T09:08:26+08:00*%
%TF.ProjectId,usb-nvme,7573622d-6e76-46d6-952e-6b696361645f,rev?*%
%TF.SameCoordinates,Original*%
%TF.FileFunction,Copper,L2,Inr*%
%TF.FilePolarity,Positive*%
%FSLAX46Y46*%
G04 Gerber Fmt 4.6, Leading zero omitted, Abs format (unit mm)*
G04 Created by KiCad (PCBNEW (6.0.2)) date 2022-04-22 09:08:26*
%MOMM*%
%LPD*%
G01*
G04 APERTURE LIST*
G04 Aperture macros list*
%AMRoundRect*
0 Rectangle with rounded corners*
0 $1 Rounding radius*
0 $2 $3 $4 $5 $6 $7 $8 $9 X,Y pos of 4 corners*
0 Add a 4 corners polygon primitive as box body*
4,1,4,$2,$3,$4,$5,$6,$7,$8,$9,$2,$3,0*
0 Add four circle primitives for the rounded corners*
1,1,$1+$1,$2,$3*
1,1,$1+$1,$4,$5*
1,1,$1+$1,$6,$7*
1,1,$1+$1,$8,$9*
0 Add four rect primitives between the rounded corners*
20,1,$1+$1,$2,$3,$4,$5,0*
20,1,$1+$1,$4,$5,$6,$7,0*
20,1,$1+$1,$6,$7,$8,$9,0*
20,1,$1+$1,$8,$9,$2,$3,0*%
G04 Aperture macros list end*
%TA.AperFunction,NonConductor*%
%ADD10C,0.000000*%
%TD*%
%TA.AperFunction,ComponentPad*%
%ADD11R,2.000000X2.000000*%
%TD*%
%TA.AperFunction,ComponentPad*%
%ADD12C,0.700000*%
%TD*%
%TA.AperFunction,ComponentPad*%
%ADD13RoundRect,0.250000X-0.550000X-0.250000X0.550000X-0.250000X0.550000X0.250000X-0.550000X0.250000X0*%
%TD*%
%TA.AperFunction,ComponentPad*%
%ADD14RoundRect,0.250000X-0.250000X-0.750000X0.250000X-0.750000X0.250000X0.750000X-0.250000X0.750000X0*%
%TD*%
%TA.AperFunction,ComponentPad*%
%ADD15RoundRect,0.125000X-0.875000X0.125000X-0.875000X-0.125000X0.875000X-0.125000X0.875000X0.125000X0*%
%TD*%
%TA.AperFunction,ComponentPad*%
%ADD16RoundRect,0.250000X-0.250000X-0.900000X0.250000X-0.900000X0.250000X0.900000X-0.250000X0.900000X0*%
%TD*%
%TA.AperFunction,ViaPad*%
%ADD17C,0.450000*%
%TD*%
%TA.AperFunction,ViaPad*%
%ADD18C,0.500000*%
%TD*%
G04 APERTURE END LIST*
D10*
G36*
X21100000Y-15850000D02*
G01*
X20900000Y-15850000D01*
X20900000Y-16000000D01*
X21100000Y-16000000D01*
X21100000Y-16050000D01*
X20850000Y-16050000D01*
X20850000Y-15800000D01*
X21050000Y-15800000D01*
X21050000Y-15650000D01*
X20850000Y-15650000D01*
X20850000Y-15600000D01*
X21100000Y-15600000D01*
X21100000Y-15850000D01*
G37*
D11*
%TO.N,+5V*%
%TO.C,TP2*%
X4000000Y-42000000D03*
%TD*%
%TO.N,GND*%
%TO.C,TP3*%
X6600000Y-42000000D03*
%TD*%
D12*
%TO.N,GND*%
%TO.C,U1*%
X14879899Y-26489949D03*
X15869848Y-25500000D03*
X15869848Y-25500000D03*
X11910051Y-27479899D03*
X12900000Y-28469848D03*
X12900000Y-22530152D03*
X13889949Y-25500000D03*
X13889949Y-27479899D03*
X14879899Y-24510051D03*
X10920101Y-24510051D03*
X11910051Y-27479899D03*
X12900000Y-28469848D03*
X13889949Y-25500000D03*
X10920101Y-26489949D03*
X14879899Y-24510051D03*
X11910051Y-25500000D03*
X13889949Y-23520101D03*
X12900000Y-24510051D03*
X12900000Y-26489949D03*
X11910051Y-23520101D03*
X9930152Y-25500000D03*
X12900000Y-26489949D03*
X14879899Y-26489949D03*
X13889949Y-27479899D03*
%TD*%
D13*
%TO.N,GND*%
%TO.C,J1*%
X7000000Y-5797500D03*
D14*
X6680000Y-6297500D03*
D13*
X15000000Y-5787500D03*
D14*
X15320000Y-6287500D03*
D15*
X5680000Y-897500D03*
D16*
X15320000Y-1747500D03*
%TD*%
D17*
%TO.N,USB_TX1+*%
X9405000Y-7954577D03*
%TO.N,PCIe_TX0-*%
X8994455Y-10905545D03*
%TO.N,USB_TX1-*%
X8855000Y-7954577D03*
%TO.N,PCIe_TX0+*%
X8605545Y-11294455D03*
%TO.N,USB_TX2+*%
X13155000Y-4554577D03*
%TO.N,USB_TX2-*%
X12605000Y-4554577D03*
%TO.N,PCIe_TX1-*%
X11775000Y-10812379D03*
%TO.N,PCIe_TX1+*%
X11225000Y-10812379D03*
%TO.N,PCIe_TX2-*%
X15894455Y-12205545D03*
%TO.N,GND*%
X8200000Y-11750000D03*
X16900000Y-40000000D03*
X8100000Y-41300000D03*
X16011270Y-28328427D03*
X16750000Y-10000000D03*
X3100000Y-10500000D03*
X20700000Y-26500000D03*
X7525988Y-30025483D03*
X10400000Y-40300000D03*
X7074500Y-21100000D03*
X18839697Y-29459798D03*
X17500000Y-40000000D03*
X18100000Y-43050000D03*
X7900000Y-7000000D03*
X20700000Y-26000000D03*
X19971068Y-28328427D03*
X12700000Y-18300000D03*
X17500000Y-4300000D03*
X13800000Y-11200000D03*
X17800000Y-7600000D03*
X18900000Y-39500000D03*
X18250000Y-8100000D03*
X18100000Y-42450000D03*
X18900000Y-39100000D03*
X17200000Y-40300000D03*
X13900000Y-33000000D03*
X19500000Y-22200000D03*
X17708326Y-30591169D03*
X11800000Y-39100000D03*
X20400000Y-19000000D03*
X18300000Y-7600000D03*
X10750000Y-8100000D03*
X3100000Y-7800000D03*
X2800000Y-10500000D03*
X18100000Y-42750000D03*
X1100000Y-1200000D03*
X15200000Y-13100000D03*
X21400000Y-600000D03*
X16506245Y-31793250D03*
X18839697Y-21540202D03*
X17708326Y-26631371D03*
X10400000Y-33100000D03*
X1450000Y-8200000D03*
X19750000Y-10000000D03*
X7750000Y-8100000D03*
X16750000Y-8100000D03*
X13750000Y-10000000D03*
X21400000Y-1100000D03*
X11000000Y-42750000D03*
X21400000Y-2600000D03*
X8586649Y-31086144D03*
X7850000Y-33100000D03*
X15799138Y-32500357D03*
X6250000Y-10000000D03*
X4450000Y-8200000D03*
X17300000Y-7600000D03*
X13748528Y-20408831D03*
X19750000Y-8100000D03*
X18900000Y-38700000D03*
X16900000Y-40300000D03*
X9800000Y-40300000D03*
X6250000Y-8100000D03*
X15200000Y-41300000D03*
X11000000Y-42450000D03*
X17200000Y-40000000D03*
X14600000Y-33000000D03*
X10400000Y-40000000D03*
X16750000Y-11200000D03*
X17500000Y-3100000D03*
X6250000Y-38650000D03*
X10100000Y-3400000D03*
X2800000Y-38650000D03*
X14300000Y-7000000D03*
X8303807Y-20055277D03*
X2800000Y-7200000D03*
X2800000Y-7500000D03*
X9300000Y-13100000D03*
X7750000Y-10000000D03*
X12334315Y-20125988D03*
X17300000Y-7100000D03*
X2800000Y-7800000D03*
X3100000Y-7500000D03*
X10750000Y-11200000D03*
X10750000Y-10000000D03*
X5181025Y-23200000D03*
X10000862Y-18358222D03*
X9250000Y-10000000D03*
X11800000Y-38700000D03*
X16011270Y-22671573D03*
X5250000Y-30100000D03*
X21400000Y-1600000D03*
X10100000Y-40000000D03*
X20678175Y-24200000D03*
X17300000Y-6600000D03*
X3100000Y-10800000D03*
X12250000Y-10000000D03*
X10071573Y-22388730D03*
X5758222Y-22600862D03*
X16930509Y-31368986D03*
X18250000Y-10000000D03*
X2800000Y-10800000D03*
X9010914Y-31510407D03*
X2900000Y-40400000D03*
X3100000Y-7200000D03*
X10100000Y-40300000D03*
X12250000Y-11200000D03*
X9152334Y-19206750D03*
X5200000Y-27700000D03*
X12250000Y-8100000D03*
X19750000Y-11200000D03*
D18*
X7500000Y-30980000D03*
D17*
X11000000Y-43050000D03*
X5828932Y-28328427D03*
X11800000Y-39500000D03*
X16859798Y-19560303D03*
X17708326Y-20408831D03*
X1000000Y-43075500D03*
X16011270Y-18711775D03*
X15250000Y-10000000D03*
X17500000Y-40300000D03*
X21400000Y-2100000D03*
X18250000Y-11200000D03*
X16300000Y-11750000D03*
X9800000Y-40000000D03*
%TO.N,USB_CC1*%
X10400000Y-6400000D03*
X11100000Y-31700000D03*
%TO.N,PCIe_TX2+*%
X15505545Y-12594455D03*
%TO.N,USB_CC2*%
X10600000Y-32200000D03*
X11650000Y-6150000D03*
%TO.N,PCIe_TX3-*%
X17775000Y-10812379D03*
%TO.N,PCIe_TX3+*%
X17225000Y-10812379D03*
%TO.N,~{PCIe_RST}*%
X6700000Y-18700000D03*
X7600000Y-28300000D03*
%TO.N,+1V0*%
X9505887Y-28045584D03*
X13400000Y-39500000D03*
X14879899Y-21540202D03*
X7808831Y-24651472D03*
X13465685Y-30874012D03*
X12970711Y-19631014D03*
X18768986Y-25570711D03*
X11202944Y-21257359D03*
X7808831Y-26348528D03*
X13400000Y-39100000D03*
X8400000Y-38700000D03*
X17142641Y-23802944D03*
X9223045Y-23237258D03*
X14879899Y-29459798D03*
X10920101Y-29459798D03*
X16859798Y-27479899D03*
X13400000Y-38700000D03*
X16859798Y-23520101D03*
%TO.N,/3V3P_SW*%
X19800000Y-3400000D03*
X20300000Y-3400000D03*
X19300000Y-3400000D03*
X18800000Y-3400000D03*
X20800000Y-3400000D03*
%TO.N,+5V*%
X16900000Y-500000D03*
X17900000Y-500000D03*
X17400000Y-1100000D03*
X12900000Y-33100000D03*
X16900000Y-1100000D03*
X17400000Y-1600000D03*
X8800000Y-42500000D03*
X18400000Y-500000D03*
X16400000Y-42500000D03*
X19700000Y-500000D03*
X7400000Y-40200000D03*
X16400000Y-43000000D03*
X15900000Y-43000000D03*
X8800000Y-43000000D03*
X16900000Y-1600000D03*
X15900000Y-42500000D03*
X9300000Y-43000000D03*
X9300000Y-42500000D03*
%TO.N,+3.3VP*%
X21500000Y-7100000D03*
X21500000Y-6600000D03*
X21500000Y-6100000D03*
X21500000Y-7600000D03*
X21500000Y-5600000D03*
X18000000Y-6600000D03*
%TO.N,+2V5*%
X9200000Y-40600000D03*
X16789087Y-21328070D03*
X16789087Y-29671930D03*
X19051829Y-27409188D03*
X20500000Y-38700000D03*
X10990812Y-19348171D03*
X15622361Y-30838656D03*
X19758936Y-24297918D03*
X20500000Y-39100000D03*
X15092031Y-19631014D03*
X9293755Y-21045227D03*
X15500000Y-38700000D03*
X20500000Y-39500000D03*
%TO.N,+3V3*%
X1000000Y-3200000D03*
X5200000Y-38800000D03*
X11400000Y-33100000D03*
X9505887Y-30166905D03*
X5899643Y-24439340D03*
X2200000Y-39300000D03*
X14844544Y-31616474D03*
X6100000Y-18700000D03*
X16300000Y-40600000D03*
X6700000Y-32900000D03*
%TO.N,LS_LED*%
X1400000Y-40200000D03*
X2800000Y-3200000D03*
X7400000Y-22400000D03*
%TO.N,HS_LED*%
X10000000Y-28400000D03*
X4100000Y-3700000D03*
X1400000Y-39200000D03*
%TO.N,USB_D+*%
X10892153Y-6703797D03*
X11155000Y-3749500D03*
X16382501Y-32765522D03*
X11104502Y-5800000D03*
%TO.N,USB_D-*%
X10605000Y-3749500D03*
X11375500Y-7300000D03*
X16771410Y-32376613D03*
%TO.N,USB_RX2-*%
X12855000Y-7954577D03*
%TO.N,USB_RX2+*%
X13405000Y-7954577D03*
%TO.N,USB_RX1-*%
X8405545Y-4794455D03*
%TO.N,USB_RX1+*%
X8794455Y-4405545D03*
%TO.N,M2_LED*%
X19700000Y-19000000D03*
X3800000Y-1000000D03*
X1700000Y-42500000D03*
%TO.N,PCIe_PWR_EN*%
X17700000Y-3700000D03*
X5900000Y-27300000D03*
X19800000Y-4100000D03*
%TO.N,SPI_DO*%
X5300000Y-31500000D03*
X10400000Y-28900000D03*
%TO.N,SPI_CLK*%
X5800000Y-31200000D03*
D18*
X7500000Y-31620000D03*
D17*
%TO.N,SPI_DI*%
X6200000Y-30400000D03*
X9400000Y-32300000D03*
%TO.N,PCIe_REFCLK-*%
X7275000Y-10800000D03*
X19030282Y-22755282D03*
%TO.N,PCIe_REFCLK+*%
X18480282Y-22755282D03*
X6725000Y-10800000D03*
%TO.N,PCIe_RX3-*%
X19275000Y-10812379D03*
%TO.N,PCIe_RX3+*%
X18725000Y-10812379D03*
%TO.N,PCIe_RX2-*%
X15894455Y-11294455D03*
%TO.N,PCIe_RX2+*%
X15505545Y-10905545D03*
%TO.N,PCIe_RX1-*%
X13275000Y-10812379D03*
%TO.N,PCIe_RX1+*%
X12725000Y-10812379D03*
%TO.N,PCIe_RX0-*%
X8994455Y-12594455D03*
%TO.N,PCIe_RX0+*%
X8605545Y-12205545D03*
%TO.N,PCIe_DET*%
X2350000Y-11700000D03*
X6700000Y-22400000D03*
%TO.N,PCIe_CLKREQ*%
X5750000Y-21150000D03*
X5500000Y-18700000D03*
%TO.N,VBUS_DET*%
X4600000Y-38800000D03*
X9400000Y-33100000D03*
%TD*%
%TA.AperFunction,Conductor*%
%TO.N,GND*%
G36*
X16900000Y-25500000D02*
G01*
X12900000Y-29500000D01*
X8900000Y-25500000D01*
X12900000Y-21500000D01*
X16900000Y-25500000D01*
G37*
%TD.AperFunction*%
%TD*%
%TA.AperFunction,Conductor*%
%TO.N,GND*%
G36*
X15054831Y-214352D02*
G01*
X15069183Y-249000D01*
X15054831Y-283648D01*
X15026070Y-297645D01*
X14940696Y-307976D01*
X14934648Y-309512D01*
X14800569Y-362598D01*
X14794806Y-365845D01*
X14680091Y-452919D01*
X14675419Y-457591D01*
X14588345Y-572306D01*
X14585098Y-578069D01*
X14532012Y-712148D01*
X14530476Y-718196D01*
X14520177Y-803305D01*
X14520000Y-806241D01*
X14520000Y-1487753D01*
X14522855Y-1494645D01*
X14529747Y-1497500D01*
X16110253Y-1497500D01*
X16117145Y-1494645D01*
X16120000Y-1487753D01*
X16120000Y-806241D01*
X16119823Y-803305D01*
X16109524Y-718196D01*
X16107988Y-712148D01*
X16054902Y-578069D01*
X16051655Y-572306D01*
X15964581Y-457591D01*
X15959909Y-452919D01*
X15845194Y-365845D01*
X15839431Y-362598D01*
X15705352Y-309512D01*
X15699304Y-307976D01*
X15613930Y-297645D01*
X15581257Y-279235D01*
X15571172Y-243113D01*
X15589582Y-210440D01*
X15619817Y-200000D01*
X16552611Y-200000D01*
X16587259Y-214352D01*
X16601611Y-249000D01*
X16592778Y-276184D01*
X16592427Y-276535D01*
X16538426Y-382518D01*
X16519819Y-500000D01*
X16538426Y-617482D01*
X16552266Y-644645D01*
X16586661Y-712148D01*
X16592427Y-723465D01*
X16634314Y-765352D01*
X16648666Y-800000D01*
X16634314Y-834648D01*
X16592427Y-876535D01*
X16590678Y-879968D01*
X16590677Y-879969D01*
X16587439Y-886324D01*
X16538426Y-982518D01*
X16519819Y-1100000D01*
X16520422Y-1103807D01*
X16528612Y-1155515D01*
X16538426Y-1217482D01*
X16591752Y-1322140D01*
X16592427Y-1323465D01*
X16592109Y-1323627D01*
X16600281Y-1357666D01*
X16592491Y-1376471D01*
X16592427Y-1376535D01*
X16538426Y-1482518D01*
X16519819Y-1600000D01*
X16538426Y-1717482D01*
X16592427Y-1823465D01*
X16676535Y-1907573D01*
X16679968Y-1909322D01*
X16679969Y-1909323D01*
X16729527Y-1934574D01*
X16782518Y-1961574D01*
X16786323Y-1962177D01*
X16786324Y-1962177D01*
X16896193Y-1979578D01*
X16900000Y-1980181D01*
X16903807Y-1979578D01*
X17013676Y-1962177D01*
X17013677Y-1962177D01*
X17017482Y-1961574D01*
X17123465Y-1907573D01*
X17123627Y-1907891D01*
X17157666Y-1899719D01*
X17176471Y-1907509D01*
X17176535Y-1907573D01*
X17282518Y-1961574D01*
X17286323Y-1962177D01*
X17286324Y-1962177D01*
X17396193Y-1979578D01*
X17400000Y-1980181D01*
X17403807Y-1979578D01*
X17513676Y-1962177D01*
X17513677Y-1962177D01*
X17517482Y-1961574D01*
X17570473Y-1934574D01*
X17620031Y-1909323D01*
X17620032Y-1909322D01*
X17623465Y-1907573D01*
X17707573Y-1823465D01*
X17761574Y-1717482D01*
X17780181Y-1600000D01*
X17761574Y-1482518D01*
X17707573Y-1376535D01*
X17707891Y-1376373D01*
X17699719Y-1342334D01*
X17707509Y-1323529D01*
X17707573Y-1323465D01*
X17761574Y-1217482D01*
X17771389Y-1155515D01*
X17779578Y-1103807D01*
X17780181Y-1100000D01*
X17761574Y-982518D01*
X17736361Y-933035D01*
X17733418Y-895647D01*
X17757774Y-867130D01*
X17787684Y-862392D01*
X17900000Y-880181D01*
X17903807Y-879578D01*
X18013676Y-862177D01*
X18013677Y-862177D01*
X18017482Y-861574D01*
X18123465Y-807573D01*
X18123627Y-807891D01*
X18157666Y-799719D01*
X18176471Y-807509D01*
X18176535Y-807573D01*
X18282518Y-861574D01*
X18286323Y-862177D01*
X18286324Y-862177D01*
X18396193Y-879578D01*
X18400000Y-880181D01*
X18403807Y-879578D01*
X18513676Y-862177D01*
X18513677Y-862177D01*
X18517482Y-861574D01*
X18601113Y-818962D01*
X18620031Y-809323D01*
X18620032Y-809322D01*
X18623465Y-807573D01*
X18707573Y-723465D01*
X18713340Y-712148D01*
X18747734Y-644645D01*
X18761574Y-617482D01*
X18780181Y-500000D01*
X18761574Y-382518D01*
X18707573Y-276535D01*
X18707403Y-276365D01*
X18698992Y-241337D01*
X18718586Y-209359D01*
X18747389Y-200000D01*
X19352611Y-200000D01*
X19387259Y-214352D01*
X19401611Y-249000D01*
X19392778Y-276184D01*
X19392427Y-276535D01*
X19338426Y-382518D01*
X19319819Y-500000D01*
X19338426Y-617482D01*
X19352266Y-644645D01*
X19386661Y-712148D01*
X19392427Y-723465D01*
X19476535Y-807573D01*
X19479968Y-809322D01*
X19479969Y-809323D01*
X19498887Y-818962D01*
X19582518Y-861574D01*
X19586323Y-862177D01*
X19586324Y-862177D01*
X19696193Y-879578D01*
X19700000Y-880181D01*
X19703807Y-879578D01*
X19813676Y-862177D01*
X19813677Y-862177D01*
X19817482Y-861574D01*
X19901113Y-818962D01*
X19920031Y-809323D01*
X19920032Y-809322D01*
X19923465Y-807573D01*
X20007573Y-723465D01*
X20013340Y-712148D01*
X20047734Y-644645D01*
X20061574Y-617482D01*
X20080181Y-500000D01*
X20061574Y-382518D01*
X20007573Y-276535D01*
X20007403Y-276365D01*
X19998992Y-241337D01*
X20018586Y-209359D01*
X20047389Y-200000D01*
X21751000Y-200000D01*
X21785648Y-214352D01*
X21800000Y-249000D01*
X21800000Y-5252611D01*
X21785648Y-5287259D01*
X21751000Y-5301611D01*
X21723816Y-5292778D01*
X21723465Y-5292427D01*
X21713323Y-5287259D01*
X21664349Y-5262306D01*
X21617482Y-5238426D01*
X21613677Y-5237823D01*
X21613676Y-5237823D01*
X21503807Y-5220422D01*
X21500000Y-5219819D01*
X21496193Y-5220422D01*
X21386324Y-5237823D01*
X21386323Y-5237823D01*
X21382518Y-5238426D01*
X21335651Y-5262306D01*
X21279969Y-5290677D01*
X21279968Y-5290678D01*
X21276535Y-5292427D01*
X21192427Y-5376535D01*
X21190678Y-5379968D01*
X21190677Y-5379969D01*
X21176295Y-5408196D01*
X21138426Y-5482518D01*
X21137823Y-5486323D01*
X21137823Y-5486324D01*
X21130170Y-5534645D01*
X21119819Y-5600000D01*
X21138426Y-5717482D01*
X21191752Y-5822140D01*
X21192427Y-5823465D01*
X21192109Y-5823627D01*
X21200281Y-5857666D01*
X21192491Y-5876471D01*
X21192427Y-5876535D01*
X21138426Y-5982518D01*
X21119819Y-6100000D01*
X21120422Y-6103807D01*
X21136020Y-6202288D01*
X21138426Y-6217482D01*
X21191752Y-6322140D01*
X21192427Y-6323465D01*
X21192109Y-6323627D01*
X21200281Y-6357666D01*
X21192491Y-6376471D01*
X21192427Y-6376535D01*
X21138426Y-6482518D01*
X21137823Y-6486323D01*
X21137823Y-6486324D01*
X21130877Y-6530181D01*
X21119819Y-6600000D01*
X21120422Y-6603807D01*
X21136862Y-6707604D01*
X21138426Y-6717482D01*
X21191752Y-6822140D01*
X21192427Y-6823465D01*
X21192109Y-6823627D01*
X21200281Y-6857666D01*
X21192491Y-6876471D01*
X21192427Y-6876535D01*
X21138426Y-6982518D01*
X21137823Y-6986323D01*
X21137823Y-6986324D01*
X21136425Y-6995153D01*
X21119819Y-7100000D01*
X21120422Y-7103807D01*
X21130400Y-7166804D01*
X21138426Y-7217482D01*
X21191752Y-7322140D01*
X21192427Y-7323465D01*
X21192109Y-7323627D01*
X21200281Y-7357666D01*
X21192491Y-7376471D01*
X21192427Y-7376535D01*
X21138426Y-7482518D01*
X21137823Y-7486323D01*
X21137823Y-7486324D01*
X21130525Y-7532402D01*
X21119819Y-7600000D01*
X21138426Y-7717482D01*
X21192427Y-7823465D01*
X21276535Y-7907573D01*
X21279968Y-7909322D01*
X21279969Y-7909323D01*
X21279973Y-7909325D01*
X21382518Y-7961574D01*
X21386323Y-7962177D01*
X21386324Y-7962177D01*
X21496193Y-7979578D01*
X21500000Y-7980181D01*
X21503807Y-7979578D01*
X21613676Y-7962177D01*
X21613677Y-7962177D01*
X21617482Y-7961574D01*
X21723465Y-7907573D01*
X21723635Y-7907403D01*
X21758663Y-7898992D01*
X21790641Y-7918586D01*
X21800000Y-7947389D01*
X21800000Y-15351000D01*
X21785648Y-15385648D01*
X21751000Y-15400000D01*
X21412480Y-15400000D01*
X21377832Y-15385648D01*
X21363480Y-15351000D01*
X21377832Y-15316352D01*
X21384726Y-15310618D01*
X21464214Y-15255987D01*
X21466651Y-15254312D01*
X21468616Y-15252107D01*
X21468619Y-15252104D01*
X21577472Y-15129930D01*
X21577473Y-15129929D01*
X21579440Y-15127721D01*
X21658776Y-14977881D01*
X21660513Y-14970968D01*
X21699361Y-14816306D01*
X21700081Y-14813441D01*
X21700969Y-14643895D01*
X21699918Y-14639515D01*
X21662078Y-14481907D01*
X21661388Y-14479032D01*
X21583625Y-14328369D01*
X21472169Y-14200604D01*
X21465175Y-14195688D01*
X21335870Y-14104812D01*
X21333453Y-14103113D01*
X21330705Y-14102042D01*
X21330702Y-14102040D01*
X21227289Y-14061721D01*
X21175487Y-14041524D01*
X21046174Y-14024500D01*
X20957484Y-14024500D01*
X20831680Y-14039724D01*
X20828917Y-14040768D01*
X20675842Y-14098610D01*
X20675841Y-14098611D01*
X20673077Y-14099655D01*
X20533349Y-14195688D01*
X20531384Y-14197893D01*
X20531381Y-14197896D01*
X20422528Y-14320070D01*
X20420560Y-14322279D01*
X20341224Y-14472119D01*
X20340506Y-14474977D01*
X20340505Y-14474980D01*
X20338765Y-14481907D01*
X20299919Y-14636559D01*
X20299031Y-14806105D01*
X20299720Y-14808974D01*
X20299720Y-14808976D01*
X20300792Y-14813441D01*
X20338612Y-14970968D01*
X20416375Y-15121631D01*
X20527831Y-15249396D01*
X20530246Y-15251094D01*
X20530248Y-15251095D01*
X20615358Y-15310911D01*
X20635453Y-15342575D01*
X20627272Y-15379175D01*
X20595608Y-15399270D01*
X20587183Y-15400000D01*
X20300000Y-15400000D01*
X20300000Y-16800000D01*
X21751000Y-16800000D01*
X21785648Y-16814352D01*
X21800000Y-16849000D01*
X21800000Y-43251000D01*
X21785648Y-43285648D01*
X21751000Y-43300000D01*
X16747389Y-43300000D01*
X16712741Y-43285648D01*
X16698389Y-43251000D01*
X16707222Y-43223816D01*
X16707573Y-43223465D01*
X16761574Y-43117482D01*
X16762572Y-43111184D01*
X16779578Y-43003807D01*
X16780181Y-43000000D01*
X16761574Y-42882518D01*
X16707573Y-42776535D01*
X16707891Y-42776373D01*
X16699719Y-42742334D01*
X16707509Y-42723529D01*
X16707573Y-42723465D01*
X16761574Y-42617482D01*
X16780181Y-42500000D01*
X16761574Y-42382518D01*
X16707573Y-42276535D01*
X16623465Y-42192427D01*
X16620032Y-42190678D01*
X16620031Y-42190677D01*
X16570474Y-42165427D01*
X16517482Y-42138426D01*
X16513677Y-42137823D01*
X16513676Y-42137823D01*
X16403807Y-42120422D01*
X16400000Y-42119819D01*
X16396193Y-42120422D01*
X16286324Y-42137823D01*
X16286323Y-42137823D01*
X16282518Y-42138426D01*
X16176535Y-42192427D01*
X16176373Y-42192109D01*
X16142334Y-42200281D01*
X16123529Y-42192491D01*
X16123465Y-42192427D01*
X16017482Y-42138426D01*
X16013677Y-42137823D01*
X16013676Y-42137823D01*
X15903807Y-42120422D01*
X15900000Y-42119819D01*
X15896193Y-42120422D01*
X15786324Y-42137823D01*
X15786323Y-42137823D01*
X15782518Y-42138426D01*
X15729526Y-42165427D01*
X15679969Y-42190677D01*
X15679968Y-42190678D01*
X15676535Y-42192427D01*
X15592427Y-42276535D01*
X15538426Y-42382518D01*
X15519819Y-42500000D01*
X15538426Y-42617482D01*
X15591752Y-42722140D01*
X15592427Y-42723465D01*
X15592109Y-42723627D01*
X15600281Y-42757666D01*
X15592491Y-42776471D01*
X15592427Y-42776535D01*
X15538426Y-42882518D01*
X15519819Y-43000000D01*
X15520422Y-43003807D01*
X15537429Y-43111184D01*
X15538426Y-43117482D01*
X15592427Y-43223465D01*
X15592597Y-43223635D01*
X15601008Y-43258663D01*
X15581414Y-43290641D01*
X15552611Y-43300000D01*
X9647389Y-43300000D01*
X9612741Y-43285648D01*
X9598389Y-43251000D01*
X9607222Y-43223816D01*
X9607573Y-43223465D01*
X9661574Y-43117482D01*
X9662572Y-43111184D01*
X9679578Y-43003807D01*
X9680181Y-43000000D01*
X9661574Y-42882518D01*
X9607573Y-42776535D01*
X9607891Y-42776373D01*
X9599719Y-42742334D01*
X9607509Y-42723529D01*
X9607573Y-42723465D01*
X9661574Y-42617482D01*
X9680181Y-42500000D01*
X9661574Y-42382518D01*
X9607573Y-42276535D01*
X9523465Y-42192427D01*
X9520032Y-42190678D01*
X9520031Y-42190677D01*
X9470474Y-42165427D01*
X9417482Y-42138426D01*
X9413677Y-42137823D01*
X9413676Y-42137823D01*
X9303807Y-42120422D01*
X9300000Y-42119819D01*
X9296193Y-42120422D01*
X9186324Y-42137823D01*
X9186323Y-42137823D01*
X9182518Y-42138426D01*
X9076535Y-42192427D01*
X9076373Y-42192109D01*
X9042334Y-42200281D01*
X9023529Y-42192491D01*
X9023465Y-42192427D01*
X8917482Y-42138426D01*
X8913677Y-42137823D01*
X8913676Y-42137823D01*
X8803807Y-42120422D01*
X8800000Y-42119819D01*
X8796193Y-42120422D01*
X8686324Y-42137823D01*
X8686323Y-42137823D01*
X8682518Y-42138426D01*
X8629526Y-42165427D01*
X8579969Y-42190677D01*
X8579968Y-42190678D01*
X8576535Y-42192427D01*
X8492427Y-42276535D01*
X8438426Y-42382518D01*
X8419819Y-42500000D01*
X8438426Y-42617482D01*
X8491752Y-42722140D01*
X8492427Y-42723465D01*
X8492109Y-42723627D01*
X8500281Y-42757666D01*
X8492491Y-42776471D01*
X8492427Y-42776535D01*
X8438426Y-42882518D01*
X8419819Y-43000000D01*
X8420422Y-43003807D01*
X8437429Y-43111184D01*
X8438426Y-43117482D01*
X8492427Y-43223465D01*
X8492597Y-43223635D01*
X8501008Y-43258663D01*
X8481414Y-43290641D01*
X8452611Y-43300000D01*
X7842621Y-43300000D01*
X7807973Y-43285648D01*
X7793621Y-43251000D01*
X7807942Y-43216382D01*
X7848625Y-43175627D01*
X7853652Y-43168287D01*
X7895522Y-43073579D01*
X7897438Y-43066550D01*
X7899836Y-43045985D01*
X7900000Y-43043156D01*
X7900000Y-42259747D01*
X7897145Y-42252855D01*
X7890253Y-42250000D01*
X5309747Y-42250000D01*
X5302855Y-42252855D01*
X5300000Y-42259747D01*
X5300000Y-43043127D01*
X5300171Y-43046009D01*
X5302678Y-43067078D01*
X5304605Y-43074090D01*
X5346642Y-43168730D01*
X5351681Y-43176062D01*
X5392012Y-43216322D01*
X5406394Y-43250957D01*
X5392072Y-43285618D01*
X5357394Y-43300000D01*
X249000Y-43300000D01*
X214352Y-43285648D01*
X200000Y-43251000D01*
X200000Y-43014820D01*
X2849500Y-43014820D01*
X2858233Y-43058722D01*
X2891496Y-43108504D01*
X2941278Y-43141767D01*
X2985180Y-43150500D01*
X5014820Y-43150500D01*
X5058722Y-43141767D01*
X5108504Y-43108504D01*
X5141767Y-43058722D01*
X5150500Y-43014820D01*
X5150500Y-41740253D01*
X5300000Y-41740253D01*
X5302855Y-41747145D01*
X5309747Y-41750000D01*
X6340253Y-41750000D01*
X6347145Y-41747145D01*
X6350000Y-41740253D01*
X6850000Y-41740253D01*
X6852855Y-41747145D01*
X6859747Y-41750000D01*
X7890253Y-41750000D01*
X7897145Y-41747145D01*
X7900000Y-41740253D01*
X7900000Y-40956873D01*
X7899829Y-40953991D01*
X7897322Y-40932922D01*
X7895395Y-40925910D01*
X7853358Y-40831270D01*
X7848319Y-40823938D01*
X7775630Y-40751377D01*
X7768287Y-40746348D01*
X7673579Y-40704478D01*
X7666550Y-40702562D01*
X7645985Y-40700164D01*
X7643156Y-40700000D01*
X6859747Y-40700000D01*
X6852855Y-40702855D01*
X6850000Y-40709747D01*
X6850000Y-41740253D01*
X6350000Y-41740253D01*
X6350000Y-40709747D01*
X6347145Y-40702855D01*
X6340253Y-40700000D01*
X5556873Y-40700000D01*
X5553991Y-40700171D01*
X5532922Y-40702678D01*
X5525910Y-40704605D01*
X5431270Y-40746642D01*
X5423938Y-40751681D01*
X5351377Y-40824370D01*
X5346348Y-40831713D01*
X5304478Y-40926421D01*
X5302562Y-40933450D01*
X5300164Y-40954015D01*
X5300000Y-40956844D01*
X5300000Y-41740253D01*
X5150500Y-41740253D01*
X5150500Y-40985180D01*
X5141767Y-40941278D01*
X5108504Y-40891496D01*
X5058722Y-40858233D01*
X5014820Y-40849500D01*
X2985180Y-40849500D01*
X2941278Y-40858233D01*
X2891496Y-40891496D01*
X2858233Y-40941278D01*
X2849500Y-40985180D01*
X2849500Y-43014820D01*
X200000Y-43014820D01*
X200000Y-42500000D01*
X1319819Y-42500000D01*
X1338426Y-42617482D01*
X1340176Y-42620916D01*
X1390677Y-42720030D01*
X1392427Y-42723465D01*
X1476535Y-42807573D01*
X1479968Y-42809322D01*
X1479969Y-42809323D01*
X1529527Y-42834574D01*
X1582518Y-42861574D01*
X1586323Y-42862177D01*
X1586324Y-42862177D01*
X1696193Y-42879578D01*
X1700000Y-42880181D01*
X1703807Y-42879578D01*
X1813676Y-42862177D01*
X1813677Y-42862177D01*
X1817482Y-42861574D01*
X1870473Y-42834574D01*
X1920031Y-42809323D01*
X1920032Y-42809322D01*
X1923465Y-42807573D01*
X2007573Y-42723465D01*
X2009324Y-42720030D01*
X2059824Y-42620916D01*
X2061574Y-42617482D01*
X2080181Y-42500000D01*
X2061574Y-42382518D01*
X2007573Y-42276535D01*
X1923465Y-42192427D01*
X1920032Y-42190678D01*
X1920031Y-42190677D01*
X1870474Y-42165427D01*
X1817482Y-42138426D01*
X1813677Y-42137823D01*
X1813676Y-42137823D01*
X1703807Y-42120422D01*
X1700000Y-42119819D01*
X1696193Y-42120422D01*
X1586324Y-42137823D01*
X1586323Y-42137823D01*
X1582518Y-42138426D01*
X1529526Y-42165427D01*
X1479969Y-42190677D01*
X1479968Y-42190678D01*
X1476535Y-42192427D01*
X1392427Y-42276535D01*
X1338426Y-42382518D01*
X1319819Y-42500000D01*
X200000Y-42500000D01*
X200000Y-40600000D01*
X8819819Y-40600000D01*
X8820422Y-40603807D01*
X8836387Y-40704605D01*
X8838426Y-40717482D01*
X8892427Y-40823465D01*
X8976535Y-40907573D01*
X8979968Y-40909322D01*
X8979969Y-40909323D01*
X9029526Y-40934573D01*
X9082518Y-40961574D01*
X9086323Y-40962177D01*
X9086324Y-40962177D01*
X9196193Y-40979578D01*
X9200000Y-40980181D01*
X9203807Y-40979578D01*
X9313676Y-40962177D01*
X9313677Y-40962177D01*
X9317482Y-40961574D01*
X9370474Y-40934573D01*
X9420031Y-40909323D01*
X9420032Y-40909322D01*
X9423465Y-40907573D01*
X9507573Y-40823465D01*
X9561574Y-40717482D01*
X9563614Y-40704605D01*
X9579578Y-40603807D01*
X9580181Y-40600000D01*
X15919819Y-40600000D01*
X15920422Y-40603807D01*
X15936387Y-40704605D01*
X15938426Y-40717482D01*
X15992427Y-40823465D01*
X16076535Y-40907573D01*
X16079968Y-40909322D01*
X16079969Y-40909323D01*
X16129526Y-40934573D01*
X16182518Y-40961574D01*
X16186323Y-40962177D01*
X16186324Y-40962177D01*
X16296193Y-40979578D01*
X16300000Y-40980181D01*
X16303807Y-40979578D01*
X16413676Y-40962177D01*
X16413677Y-40962177D01*
X16417482Y-40961574D01*
X16470474Y-40934573D01*
X16520031Y-40909323D01*
X16520032Y-40909322D01*
X16523465Y-40907573D01*
X16607573Y-40823465D01*
X16661574Y-40717482D01*
X16663614Y-40704605D01*
X16679578Y-40603807D01*
X16680181Y-40600000D01*
X16673818Y-40559824D01*
X16662177Y-40486324D01*
X16662177Y-40486323D01*
X16661574Y-40482518D01*
X16607573Y-40376535D01*
X16523465Y-40292427D01*
X16520032Y-40290678D01*
X16520031Y-40290677D01*
X16470473Y-40265426D01*
X16417482Y-40238426D01*
X16413677Y-40237823D01*
X16413676Y-40237823D01*
X16303807Y-40220422D01*
X16300000Y-40219819D01*
X16296193Y-40220422D01*
X16186324Y-40237823D01*
X16186323Y-40237823D01*
X16182518Y-40238426D01*
X16129527Y-40265426D01*
X16079969Y-40290677D01*
X16079968Y-40290678D01*
X16076535Y-40292427D01*
X15992427Y-40376535D01*
X15938426Y-40482518D01*
X15937823Y-40486323D01*
X15937823Y-40486324D01*
X15926182Y-40559824D01*
X15919819Y-40600000D01*
X9580181Y-40600000D01*
X9573818Y-40559824D01*
X9562177Y-40486324D01*
X9562177Y-40486323D01*
X9561574Y-40482518D01*
X9507573Y-40376535D01*
X9423465Y-40292427D01*
X9420032Y-40290678D01*
X9420031Y-40290677D01*
X9370473Y-40265426D01*
X9317482Y-40238426D01*
X9313677Y-40237823D01*
X9313676Y-40237823D01*
X9203807Y-40220422D01*
X9200000Y-40219819D01*
X9196193Y-40220422D01*
X9086324Y-40237823D01*
X9086323Y-40237823D01*
X9082518Y-40238426D01*
X9029527Y-40265426D01*
X8979969Y-40290677D01*
X8979968Y-40290678D01*
X8976535Y-40292427D01*
X8892427Y-40376535D01*
X8838426Y-40482518D01*
X8837823Y-40486323D01*
X8837823Y-40486324D01*
X8826182Y-40559824D01*
X8819819Y-40600000D01*
X200000Y-40600000D01*
X200000Y-40200000D01*
X1019819Y-40200000D01*
X1020422Y-40203807D01*
X1034181Y-40290677D01*
X1038426Y-40317482D01*
X1092427Y-40423465D01*
X1176535Y-40507573D01*
X1179968Y-40509322D01*
X1179969Y-40509323D01*
X1229527Y-40534574D01*
X1282518Y-40561574D01*
X1286323Y-40562177D01*
X1286324Y-40562177D01*
X1396193Y-40579578D01*
X1400000Y-40580181D01*
X1403807Y-40579578D01*
X1513676Y-40562177D01*
X1513677Y-40562177D01*
X1517482Y-40561574D01*
X1570473Y-40534574D01*
X1620031Y-40509323D01*
X1620032Y-40509322D01*
X1623465Y-40507573D01*
X1707573Y-40423465D01*
X1761574Y-40317482D01*
X1765820Y-40290677D01*
X1779578Y-40203807D01*
X1780181Y-40200000D01*
X7019819Y-40200000D01*
X7020422Y-40203807D01*
X7034181Y-40290677D01*
X7038426Y-40317482D01*
X7092427Y-40423465D01*
X7176535Y-40507573D01*
X7179968Y-40509322D01*
X7179969Y-40509323D01*
X7229527Y-40534574D01*
X7282518Y-40561574D01*
X7286323Y-40562177D01*
X7286324Y-40562177D01*
X7396193Y-40579578D01*
X7400000Y-40580181D01*
X7403807Y-40579578D01*
X7513676Y-40562177D01*
X7513677Y-40562177D01*
X7517482Y-40561574D01*
X7570473Y-40534574D01*
X7620031Y-40509323D01*
X7620032Y-40509322D01*
X7623465Y-40507573D01*
X7707573Y-40423465D01*
X7761574Y-40317482D01*
X7765820Y-40290677D01*
X7779578Y-40203807D01*
X7780181Y-40200000D01*
X7761574Y-40082518D01*
X7707573Y-39976535D01*
X7623465Y-39892427D01*
X7620032Y-39890678D01*
X7620031Y-39890677D01*
X7564096Y-39862177D01*
X7517482Y-39838426D01*
X7513677Y-39837823D01*
X7513676Y-39837823D01*
X7403807Y-39820422D01*
X7400000Y-39819819D01*
X7396193Y-39820422D01*
X7286324Y-39837823D01*
X7286323Y-39837823D01*
X7282518Y-39838426D01*
X7235904Y-39862177D01*
X7179969Y-39890677D01*
X7179968Y-39890678D01*
X7176535Y-39892427D01*
X7092427Y-39976535D01*
X7038426Y-40082518D01*
X7019819Y-40200000D01*
X1780181Y-40200000D01*
X1761574Y-40082518D01*
X1707573Y-39976535D01*
X1623465Y-39892427D01*
X1620032Y-39890678D01*
X1620031Y-39890677D01*
X1564096Y-39862177D01*
X1517482Y-39838426D01*
X1513677Y-39837823D01*
X1513676Y-39837823D01*
X1403807Y-39820422D01*
X1400000Y-39819819D01*
X1396193Y-39820422D01*
X1286324Y-39837823D01*
X1286323Y-39837823D01*
X1282518Y-39838426D01*
X1235904Y-39862177D01*
X1179969Y-39890677D01*
X1179968Y-39890678D01*
X1176535Y-39892427D01*
X1092427Y-39976535D01*
X1038426Y-40082518D01*
X1019819Y-40200000D01*
X200000Y-40200000D01*
X200000Y-39200000D01*
X1019819Y-39200000D01*
X1038426Y-39317482D01*
X1040176Y-39320916D01*
X1089379Y-39417482D01*
X1092427Y-39423465D01*
X1176535Y-39507573D01*
X1179968Y-39509322D01*
X1179969Y-39509323D01*
X1200985Y-39520031D01*
X1282518Y-39561574D01*
X1286323Y-39562177D01*
X1286324Y-39562177D01*
X1396193Y-39579578D01*
X1400000Y-39580181D01*
X1403807Y-39579578D01*
X1513676Y-39562177D01*
X1513677Y-39562177D01*
X1517482Y-39561574D01*
X1599015Y-39520031D01*
X1620031Y-39509323D01*
X1620032Y-39509322D01*
X1623465Y-39507573D01*
X1707573Y-39423465D01*
X1710622Y-39417482D01*
X1739655Y-39360501D01*
X1768172Y-39336145D01*
X1805560Y-39339088D01*
X1829916Y-39367605D01*
X1831710Y-39375077D01*
X1838426Y-39417482D01*
X1865426Y-39470473D01*
X1884330Y-39507573D01*
X1892427Y-39523465D01*
X1976535Y-39607573D01*
X1979968Y-39609322D01*
X1979969Y-39609323D01*
X2002722Y-39620916D01*
X2082518Y-39661574D01*
X2086323Y-39662177D01*
X2086324Y-39662177D01*
X2196193Y-39679578D01*
X2200000Y-39680181D01*
X2203807Y-39679578D01*
X2313676Y-39662177D01*
X2313677Y-39662177D01*
X2317482Y-39661574D01*
X2397278Y-39620916D01*
X2420031Y-39609323D01*
X2420032Y-39609322D01*
X2423465Y-39607573D01*
X2507573Y-39523465D01*
X2515671Y-39507573D01*
X2519530Y-39500000D01*
X13019819Y-39500000D01*
X13020422Y-39503807D01*
X13036857Y-39607573D01*
X13038426Y-39617482D01*
X13092427Y-39723465D01*
X13176535Y-39807573D01*
X13179968Y-39809322D01*
X13179969Y-39809323D01*
X13229527Y-39834574D01*
X13282518Y-39861574D01*
X13286323Y-39862177D01*
X13286324Y-39862177D01*
X13396193Y-39879578D01*
X13400000Y-39880181D01*
X13403807Y-39879578D01*
X13513676Y-39862177D01*
X13513677Y-39862177D01*
X13517482Y-39861574D01*
X13570473Y-39834574D01*
X13620031Y-39809323D01*
X13620032Y-39809322D01*
X13623465Y-39807573D01*
X13707573Y-39723465D01*
X13761574Y-39617482D01*
X13763144Y-39607573D01*
X13779578Y-39503807D01*
X13780181Y-39500000D01*
X20119819Y-39500000D01*
X20120422Y-39503807D01*
X20136857Y-39607573D01*
X20138426Y-39617482D01*
X20192427Y-39723465D01*
X20276535Y-39807573D01*
X20279968Y-39809322D01*
X20279969Y-39809323D01*
X20329527Y-39834574D01*
X20382518Y-39861574D01*
X20386323Y-39862177D01*
X20386324Y-39862177D01*
X20496193Y-39879578D01*
X20500000Y-39880181D01*
X20503807Y-39879578D01*
X20613676Y-39862177D01*
X20613677Y-39862177D01*
X20617482Y-39861574D01*
X20670473Y-39834574D01*
X20720031Y-39809323D01*
X20720032Y-39809322D01*
X20723465Y-39807573D01*
X20807573Y-39723465D01*
X20861574Y-39617482D01*
X20863144Y-39607573D01*
X20879578Y-39503807D01*
X20880181Y-39500000D01*
X20861574Y-39382518D01*
X20857785Y-39375082D01*
X20830864Y-39322245D01*
X20827921Y-39284858D01*
X20830864Y-39277755D01*
X20859823Y-39220919D01*
X20859823Y-39220918D01*
X20861574Y-39217482D01*
X20880181Y-39100000D01*
X20867515Y-39020031D01*
X20862177Y-38986324D01*
X20862177Y-38986323D01*
X20861574Y-38982518D01*
X20840000Y-38940176D01*
X20830864Y-38922245D01*
X20827921Y-38884858D01*
X20830864Y-38877755D01*
X20859823Y-38820919D01*
X20859824Y-38820916D01*
X20861574Y-38817482D01*
X20880181Y-38700000D01*
X20861574Y-38582518D01*
X20834574Y-38529527D01*
X20809323Y-38479969D01*
X20809322Y-38479968D01*
X20807573Y-38476535D01*
X20723465Y-38392427D01*
X20720032Y-38390678D01*
X20720031Y-38390677D01*
X20670474Y-38365427D01*
X20617482Y-38338426D01*
X20613677Y-38337823D01*
X20613676Y-38337823D01*
X20503807Y-38320422D01*
X20500000Y-38319819D01*
X20496193Y-38320422D01*
X20386324Y-38337823D01*
X20386323Y-38337823D01*
X20382518Y-38338426D01*
X20329526Y-38365427D01*
X20279969Y-38390677D01*
X20279968Y-38390678D01*
X20276535Y-38392427D01*
X20192427Y-38476535D01*
X20190678Y-38479968D01*
X20190677Y-38479969D01*
X20165426Y-38529527D01*
X20138426Y-38582518D01*
X20119819Y-38700000D01*
X20138426Y-38817482D01*
X20140176Y-38820916D01*
X20140177Y-38820919D01*
X20169136Y-38877755D01*
X20172079Y-38915142D01*
X20169136Y-38922245D01*
X20160000Y-38940176D01*
X20138426Y-38982518D01*
X20137823Y-38986323D01*
X20137823Y-38986324D01*
X20132485Y-39020031D01*
X20119819Y-39100000D01*
X20138426Y-39217482D01*
X20140177Y-39220918D01*
X20140177Y-39220919D01*
X20169136Y-39277755D01*
X20172079Y-39315142D01*
X20169136Y-39322245D01*
X20142215Y-39375082D01*
X20138426Y-39382518D01*
X20119819Y-39500000D01*
X13780181Y-39500000D01*
X13761574Y-39382518D01*
X13757785Y-39375082D01*
X13730864Y-39322245D01*
X13727921Y-39284858D01*
X13730864Y-39277755D01*
X13759823Y-39220919D01*
X13759823Y-39220918D01*
X13761574Y-39217482D01*
X13780181Y-39100000D01*
X13767515Y-39020031D01*
X13762177Y-38986324D01*
X13762177Y-38986323D01*
X13761574Y-38982518D01*
X13740000Y-38940176D01*
X13730864Y-38922245D01*
X13727921Y-38884858D01*
X13730864Y-38877755D01*
X13759823Y-38820919D01*
X13759824Y-38820916D01*
X13761574Y-38817482D01*
X13780181Y-38700000D01*
X15119819Y-38700000D01*
X15138426Y-38817482D01*
X15149989Y-38840176D01*
X15189379Y-38917482D01*
X15192427Y-38923465D01*
X15276535Y-39007573D01*
X15279968Y-39009322D01*
X15279969Y-39009323D01*
X15300985Y-39020031D01*
X15382518Y-39061574D01*
X15386323Y-39062177D01*
X15386324Y-39062177D01*
X15496193Y-39079578D01*
X15500000Y-39080181D01*
X15503807Y-39079578D01*
X15613676Y-39062177D01*
X15613677Y-39062177D01*
X15617482Y-39061574D01*
X15699015Y-39020031D01*
X15720031Y-39009323D01*
X15720032Y-39009322D01*
X15723465Y-39007573D01*
X15807573Y-38923465D01*
X15810622Y-38917482D01*
X15850011Y-38840176D01*
X15861574Y-38817482D01*
X15880181Y-38700000D01*
X15861574Y-38582518D01*
X15834574Y-38529527D01*
X15809323Y-38479969D01*
X15809322Y-38479968D01*
X15807573Y-38476535D01*
X15723465Y-38392427D01*
X15720032Y-38390678D01*
X15720031Y-38390677D01*
X15670474Y-38365427D01*
X15617482Y-38338426D01*
X15613677Y-38337823D01*
X15613676Y-38337823D01*
X15503807Y-38320422D01*
X15500000Y-38319819D01*
X15496193Y-38320422D01*
X15386324Y-38337823D01*
X15386323Y-38337823D01*
X15382518Y-38338426D01*
X15329526Y-38365427D01*
X15279969Y-38390677D01*
X15279968Y-38390678D01*
X15276535Y-38392427D01*
X15192427Y-38476535D01*
X15190678Y-38479968D01*
X15190677Y-38479969D01*
X15165426Y-38529527D01*
X15138426Y-38582518D01*
X15119819Y-38700000D01*
X13780181Y-38700000D01*
X13761574Y-38582518D01*
X13734574Y-38529527D01*
X13709323Y-38479969D01*
X13709322Y-38479968D01*
X13707573Y-38476535D01*
X13623465Y-38392427D01*
X13620032Y-38390678D01*
X13620031Y-38390677D01*
X13570474Y-38365427D01*
X13517482Y-38338426D01*
X13513677Y-38337823D01*
X13513676Y-38337823D01*
X13403807Y-38320422D01*
X13400000Y-38319819D01*
X13396193Y-38320422D01*
X13286324Y-38337823D01*
X13286323Y-38337823D01*
X13282518Y-38338426D01*
X13229526Y-38365427D01*
X13179969Y-38390677D01*
X13179968Y-38390678D01*
X13176535Y-38392427D01*
X13092427Y-38476535D01*
X13090678Y-38479968D01*
X13090677Y-38479969D01*
X13065426Y-38529527D01*
X13038426Y-38582518D01*
X13019819Y-38700000D01*
X13038426Y-38817482D01*
X13040176Y-38820916D01*
X13040177Y-38820919D01*
X13069136Y-38877755D01*
X13072079Y-38915142D01*
X13069136Y-38922245D01*
X13060000Y-38940176D01*
X13038426Y-38982518D01*
X13037823Y-38986323D01*
X13037823Y-38986324D01*
X13032485Y-39020031D01*
X13019819Y-39100000D01*
X13038426Y-39217482D01*
X13040177Y-39220918D01*
X13040177Y-39220919D01*
X13069136Y-39277755D01*
X13072079Y-39315142D01*
X13069136Y-39322245D01*
X13042215Y-39375082D01*
X13038426Y-39382518D01*
X13019819Y-39500000D01*
X2519530Y-39500000D01*
X2534574Y-39470473D01*
X2561574Y-39417482D01*
X2580181Y-39300000D01*
X2561574Y-39182518D01*
X2512561Y-39086324D01*
X2509323Y-39079969D01*
X2509322Y-39079968D01*
X2507573Y-39076535D01*
X2423465Y-38992427D01*
X2420032Y-38990678D01*
X2420031Y-38990677D01*
X2370474Y-38965427D01*
X2317482Y-38938426D01*
X2313677Y-38937823D01*
X2313676Y-38937823D01*
X2203807Y-38920422D01*
X2200000Y-38919819D01*
X2196193Y-38920422D01*
X2086324Y-38937823D01*
X2086323Y-38937823D01*
X2082518Y-38938426D01*
X2029526Y-38965427D01*
X1979969Y-38990677D01*
X1979968Y-38990678D01*
X1976535Y-38992427D01*
X1892427Y-39076535D01*
X1890678Y-39079968D01*
X1890677Y-39079969D01*
X1860345Y-39139499D01*
X1831828Y-39163855D01*
X1794440Y-39160912D01*
X1770084Y-39132395D01*
X1768289Y-39124918D01*
X1765111Y-39104847D01*
X1761574Y-39082518D01*
X1721999Y-39004847D01*
X1709323Y-38979969D01*
X1709322Y-38979968D01*
X1707573Y-38976535D01*
X1623465Y-38892427D01*
X1620032Y-38890678D01*
X1620031Y-38890677D01*
X1570473Y-38865426D01*
X1517482Y-38838426D01*
X1513677Y-38837823D01*
X1513676Y-38837823D01*
X1403807Y-38820422D01*
X1400000Y-38819819D01*
X1396193Y-38820422D01*
X1286324Y-38837823D01*
X1286323Y-38837823D01*
X1282518Y-38838426D01*
X1229527Y-38865426D01*
X1179969Y-38890677D01*
X1179968Y-38890678D01*
X1176535Y-38892427D01*
X1092427Y-38976535D01*
X1090678Y-38979968D01*
X1090677Y-38979969D01*
X1078001Y-39004847D01*
X1038426Y-39082518D01*
X1037823Y-39086323D01*
X1037823Y-39086324D01*
X1031711Y-39124918D01*
X1019819Y-39200000D01*
X200000Y-39200000D01*
X200000Y-38800000D01*
X4219819Y-38800000D01*
X4220422Y-38803807D01*
X4234181Y-38890677D01*
X4238426Y-38917482D01*
X4249989Y-38940176D01*
X4284330Y-39007573D01*
X4292427Y-39023465D01*
X4376535Y-39107573D01*
X4379968Y-39109322D01*
X4379969Y-39109323D01*
X4425251Y-39132395D01*
X4482518Y-39161574D01*
X4486323Y-39162177D01*
X4486324Y-39162177D01*
X4596193Y-39179578D01*
X4600000Y-39180181D01*
X4603807Y-39179578D01*
X4713676Y-39162177D01*
X4713677Y-39162177D01*
X4717482Y-39161574D01*
X4774749Y-39132395D01*
X4820031Y-39109323D01*
X4820032Y-39109322D01*
X4823465Y-39107573D01*
X4865352Y-39065686D01*
X4900000Y-39051334D01*
X4934648Y-39065686D01*
X4976535Y-39107573D01*
X4979968Y-39109322D01*
X4979969Y-39109323D01*
X5025251Y-39132395D01*
X5082518Y-39161574D01*
X5086323Y-39162177D01*
X5086324Y-39162177D01*
X5196193Y-39179578D01*
X5200000Y-39180181D01*
X5203807Y-39179578D01*
X5313676Y-39162177D01*
X5313677Y-39162177D01*
X5317482Y-39161574D01*
X5374749Y-39132395D01*
X5420031Y-39109323D01*
X5420032Y-39109322D01*
X5423465Y-39107573D01*
X5507573Y-39023465D01*
X5515671Y-39007573D01*
X5550011Y-38940176D01*
X5561574Y-38917482D01*
X5565820Y-38890677D01*
X5579578Y-38803807D01*
X5580181Y-38800000D01*
X5564343Y-38700000D01*
X8019819Y-38700000D01*
X8038426Y-38817482D01*
X8049989Y-38840176D01*
X8089379Y-38917482D01*
X8092427Y-38923465D01*
X8176535Y-39007573D01*
X8179968Y-39009322D01*
X8179969Y-39009323D01*
X8200985Y-39020031D01*
X8282518Y-39061574D01*
X8286323Y-39062177D01*
X8286324Y-39062177D01*
X8396193Y-39079578D01*
X8400000Y-39080181D01*
X8403807Y-39079578D01*
X8513676Y-39062177D01*
X8513677Y-39062177D01*
X8517482Y-39061574D01*
X8599015Y-39020031D01*
X8620031Y-39009323D01*
X8620032Y-39009322D01*
X8623465Y-39007573D01*
X8707573Y-38923465D01*
X8710622Y-38917482D01*
X8750011Y-38840176D01*
X8761574Y-38817482D01*
X8780181Y-38700000D01*
X8761574Y-38582518D01*
X8734574Y-38529527D01*
X8709323Y-38479969D01*
X8709322Y-38479968D01*
X8707573Y-38476535D01*
X8623465Y-38392427D01*
X8620032Y-38390678D01*
X8620031Y-38390677D01*
X8570474Y-38365427D01*
X8517482Y-38338426D01*
X8513677Y-38337823D01*
X8513676Y-38337823D01*
X8403807Y-38320422D01*
X8400000Y-38319819D01*
X8396193Y-38320422D01*
X8286324Y-38337823D01*
X8286323Y-38337823D01*
X8282518Y-38338426D01*
X8229526Y-38365427D01*
X8179969Y-38390677D01*
X8179968Y-38390678D01*
X8176535Y-38392427D01*
X8092427Y-38476535D01*
X8090678Y-38479968D01*
X8090677Y-38479969D01*
X8065426Y-38529527D01*
X8038426Y-38582518D01*
X8019819Y-38700000D01*
X5564343Y-38700000D01*
X5561574Y-38682518D01*
X5512561Y-38586324D01*
X5509323Y-38579969D01*
X5509322Y-38579968D01*
X5507573Y-38576535D01*
X5423465Y-38492427D01*
X5420032Y-38490678D01*
X5420031Y-38490677D01*
X5370473Y-38465426D01*
X5317482Y-38438426D01*
X5313677Y-38437823D01*
X5313676Y-38437823D01*
X5203807Y-38420422D01*
X5200000Y-38419819D01*
X5196193Y-38420422D01*
X5086324Y-38437823D01*
X5086323Y-38437823D01*
X5082518Y-38438426D01*
X5029527Y-38465426D01*
X4979969Y-38490677D01*
X4979968Y-38490678D01*
X4976535Y-38492427D01*
X4934648Y-38534314D01*
X4900000Y-38548666D01*
X4865352Y-38534314D01*
X4823465Y-38492427D01*
X4820032Y-38490678D01*
X4820031Y-38490677D01*
X4770473Y-38465426D01*
X4717482Y-38438426D01*
X4713677Y-38437823D01*
X4713676Y-38437823D01*
X4603807Y-38420422D01*
X4600000Y-38419819D01*
X4596193Y-38420422D01*
X4486324Y-38437823D01*
X4486323Y-38437823D01*
X4482518Y-38438426D01*
X4429527Y-38465426D01*
X4379969Y-38490677D01*
X4379968Y-38490678D01*
X4376535Y-38492427D01*
X4292427Y-38576535D01*
X4290678Y-38579968D01*
X4290677Y-38579969D01*
X4287439Y-38586324D01*
X4238426Y-38682518D01*
X4219819Y-38800000D01*
X200000Y-38800000D01*
X200000Y-32900000D01*
X6319819Y-32900000D01*
X6338426Y-33017482D01*
X6392427Y-33123465D01*
X6476535Y-33207573D01*
X6479968Y-33209322D01*
X6479969Y-33209323D01*
X6502722Y-33220916D01*
X6582518Y-33261574D01*
X6586323Y-33262177D01*
X6586324Y-33262177D01*
X6696193Y-33279578D01*
X6700000Y-33280181D01*
X6703807Y-33279578D01*
X6813676Y-33262177D01*
X6813677Y-33262177D01*
X6817482Y-33261574D01*
X6897278Y-33220916D01*
X6920031Y-33209323D01*
X6920032Y-33209322D01*
X6923465Y-33207573D01*
X7007573Y-33123465D01*
X7019529Y-33100000D01*
X9019819Y-33100000D01*
X9020422Y-33103807D01*
X9036857Y-33207573D01*
X9038426Y-33217482D01*
X9092427Y-33323465D01*
X9176535Y-33407573D01*
X9179968Y-33409322D01*
X9179969Y-33409323D01*
X9229526Y-33434573D01*
X9282518Y-33461574D01*
X9286323Y-33462177D01*
X9286324Y-33462177D01*
X9396193Y-33479578D01*
X9400000Y-33480181D01*
X9403807Y-33479578D01*
X9513676Y-33462177D01*
X9513677Y-33462177D01*
X9517482Y-33461574D01*
X9570474Y-33434573D01*
X9620031Y-33409323D01*
X9620032Y-33409322D01*
X9623465Y-33407573D01*
X9707573Y-33323465D01*
X9761574Y-33217482D01*
X9763144Y-33207573D01*
X9779578Y-33103807D01*
X9780181Y-33100000D01*
X11019819Y-33100000D01*
X11020422Y-33103807D01*
X11036857Y-33207573D01*
X11038426Y-33217482D01*
X11092427Y-33323465D01*
X11176535Y-33407573D01*
X11179968Y-33409322D01*
X11179969Y-33409323D01*
X11229526Y-33434573D01*
X11282518Y-33461574D01*
X11286323Y-33462177D01*
X11286324Y-33462177D01*
X11396193Y-33479578D01*
X11400000Y-33480181D01*
X11403807Y-33479578D01*
X11513676Y-33462177D01*
X11513677Y-33462177D01*
X11517482Y-33461574D01*
X11570474Y-33434573D01*
X11620031Y-33409323D01*
X11620032Y-33409322D01*
X11623465Y-33407573D01*
X11707573Y-33323465D01*
X11761574Y-33217482D01*
X11763144Y-33207573D01*
X11779578Y-33103807D01*
X11780181Y-33100000D01*
X12519819Y-33100000D01*
X12520422Y-33103807D01*
X12536857Y-33207573D01*
X12538426Y-33217482D01*
X12592427Y-33323465D01*
X12676535Y-33407573D01*
X12679968Y-33409322D01*
X12679969Y-33409323D01*
X12729526Y-33434573D01*
X12782518Y-33461574D01*
X12786323Y-33462177D01*
X12786324Y-33462177D01*
X12896193Y-33479578D01*
X12900000Y-33480181D01*
X12903807Y-33479578D01*
X13013676Y-33462177D01*
X13013677Y-33462177D01*
X13017482Y-33461574D01*
X13070474Y-33434573D01*
X13120031Y-33409323D01*
X13120032Y-33409322D01*
X13123465Y-33407573D01*
X13207573Y-33323465D01*
X13261574Y-33217482D01*
X13263144Y-33207573D01*
X13279578Y-33103807D01*
X13280181Y-33100000D01*
X13266509Y-33013676D01*
X13262177Y-32986324D01*
X13262177Y-32986323D01*
X13261574Y-32982518D01*
X13207573Y-32876535D01*
X13123465Y-32792427D01*
X13120032Y-32790678D01*
X13120031Y-32790677D01*
X13070661Y-32765522D01*
X16002320Y-32765522D01*
X16002923Y-32769329D01*
X16019471Y-32873809D01*
X16020927Y-32883004D01*
X16074928Y-32988987D01*
X16159036Y-33073095D01*
X16162469Y-33074844D01*
X16162470Y-33074845D01*
X16204368Y-33096193D01*
X16265019Y-33127096D01*
X16268824Y-33127699D01*
X16268825Y-33127699D01*
X16378694Y-33145100D01*
X16382501Y-33145703D01*
X16386308Y-33145100D01*
X16496177Y-33127699D01*
X16496178Y-33127699D01*
X16499983Y-33127096D01*
X16560634Y-33096193D01*
X16602532Y-33074845D01*
X16602533Y-33074844D01*
X16605966Y-33073095D01*
X16690074Y-32988987D01*
X16744075Y-32883004D01*
X16758306Y-32793149D01*
X16777901Y-32761173D01*
X16799037Y-32752418D01*
X16814305Y-32750000D01*
X18000000Y-32750000D01*
X18400000Y-32750000D01*
X18600000Y-32750000D01*
X19000000Y-32750000D01*
X19000000Y-31650000D01*
X18600000Y-31650000D01*
X18600000Y-32750000D01*
X18400000Y-32750000D01*
X18400000Y-31650000D01*
X18000000Y-31650000D01*
X18000000Y-32750000D01*
X16814305Y-32750000D01*
X16854343Y-32743659D01*
X16885086Y-32738790D01*
X16885087Y-32738790D01*
X16888892Y-32738187D01*
X16941883Y-32711187D01*
X16991441Y-32685936D01*
X16991442Y-32685935D01*
X16994875Y-32684186D01*
X17078983Y-32600078D01*
X17081493Y-32595153D01*
X17125225Y-32509323D01*
X17132984Y-32494095D01*
X17151591Y-32376613D01*
X17132984Y-32259131D01*
X17078983Y-32153148D01*
X16994875Y-32069040D01*
X16991442Y-32067291D01*
X16991441Y-32067290D01*
X16909407Y-32025492D01*
X16888892Y-32015039D01*
X16885087Y-32014436D01*
X16885086Y-32014436D01*
X16775217Y-31997035D01*
X16771410Y-31996432D01*
X16767603Y-31997035D01*
X16657734Y-32014436D01*
X16657733Y-32014436D01*
X16653928Y-32015039D01*
X16633413Y-32025492D01*
X16551379Y-32067290D01*
X16551378Y-32067291D01*
X16547945Y-32069040D01*
X16463837Y-32153148D01*
X16409836Y-32259131D01*
X16409233Y-32262936D01*
X16409233Y-32262937D01*
X16395605Y-32348985D01*
X16376010Y-32380962D01*
X16354874Y-32389717D01*
X16308751Y-32397022D01*
X16268825Y-32403345D01*
X16268824Y-32403345D01*
X16265019Y-32403948D01*
X16226715Y-32423465D01*
X16162470Y-32456199D01*
X16162469Y-32456200D01*
X16159036Y-32457949D01*
X16074928Y-32542057D01*
X16073179Y-32545490D01*
X16073178Y-32545491D01*
X16064676Y-32562177D01*
X16020927Y-32648040D01*
X16020324Y-32651845D01*
X16020324Y-32651846D01*
X16009463Y-32720422D01*
X16002320Y-32765522D01*
X13070661Y-32765522D01*
X13063189Y-32761715D01*
X13017482Y-32738426D01*
X13013677Y-32737823D01*
X13013676Y-32737823D01*
X12903807Y-32720422D01*
X12900000Y-32719819D01*
X12896193Y-32720422D01*
X12786324Y-32737823D01*
X12786323Y-32737823D01*
X12782518Y-32738426D01*
X12736811Y-32761715D01*
X12679969Y-32790677D01*
X12679968Y-32790678D01*
X12676535Y-32792427D01*
X12592427Y-32876535D01*
X12538426Y-32982518D01*
X12537823Y-32986323D01*
X12537823Y-32986324D01*
X12533491Y-33013676D01*
X12519819Y-33100000D01*
X11780181Y-33100000D01*
X11766509Y-33013676D01*
X11762177Y-32986324D01*
X11762177Y-32986323D01*
X11761574Y-32982518D01*
X11707573Y-32876535D01*
X11623465Y-32792427D01*
X11620032Y-32790678D01*
X11620031Y-32790677D01*
X11563189Y-32761715D01*
X11517482Y-32738426D01*
X11513677Y-32737823D01*
X11513676Y-32737823D01*
X11403807Y-32720422D01*
X11400000Y-32719819D01*
X11396193Y-32720422D01*
X11286324Y-32737823D01*
X11286323Y-32737823D01*
X11282518Y-32738426D01*
X11236811Y-32761715D01*
X11179969Y-32790677D01*
X11179968Y-32790678D01*
X11176535Y-32792427D01*
X11092427Y-32876535D01*
X11038426Y-32982518D01*
X11037823Y-32986323D01*
X11037823Y-32986324D01*
X11033491Y-33013676D01*
X11019819Y-33100000D01*
X9780181Y-33100000D01*
X9766509Y-33013676D01*
X9762177Y-32986324D01*
X9762177Y-32986323D01*
X9761574Y-32982518D01*
X9707573Y-32876535D01*
X9623465Y-32792427D01*
X9620032Y-32790678D01*
X9620028Y-32790675D01*
X9527753Y-32743659D01*
X9503396Y-32715142D01*
X9506339Y-32677755D01*
X9527753Y-32656341D01*
X9620028Y-32609325D01*
X9620032Y-32609322D01*
X9623465Y-32607573D01*
X9707573Y-32523465D01*
X9715671Y-32507573D01*
X9741847Y-32456199D01*
X9761574Y-32417482D01*
X9763441Y-32405698D01*
X9779578Y-32303807D01*
X9780181Y-32300000D01*
X9764343Y-32200000D01*
X10219819Y-32200000D01*
X10238426Y-32317482D01*
X10240176Y-32320916D01*
X10289379Y-32417482D01*
X10292427Y-32423465D01*
X10376535Y-32507573D01*
X10379968Y-32509322D01*
X10379969Y-32509323D01*
X10407725Y-32523465D01*
X10482518Y-32561574D01*
X10486323Y-32562177D01*
X10486324Y-32562177D01*
X10596193Y-32579578D01*
X10600000Y-32580181D01*
X10603807Y-32579578D01*
X10713676Y-32562177D01*
X10713677Y-32562177D01*
X10717482Y-32561574D01*
X10792275Y-32523465D01*
X10820031Y-32509323D01*
X10820032Y-32509322D01*
X10823465Y-32507573D01*
X10907573Y-32423465D01*
X10910622Y-32417482D01*
X10959824Y-32320916D01*
X10961574Y-32317482D01*
X10980181Y-32200000D01*
X10968183Y-32124245D01*
X10976938Y-32087778D01*
X11008915Y-32068183D01*
X11024245Y-32068183D01*
X11096193Y-32079578D01*
X11100000Y-32080181D01*
X11103807Y-32079578D01*
X11213676Y-32062177D01*
X11213677Y-32062177D01*
X11217482Y-32061574D01*
X11288297Y-32025492D01*
X11320031Y-32009323D01*
X11320032Y-32009322D01*
X11323465Y-32007573D01*
X11407573Y-31923465D01*
X11461574Y-31817482D01*
X11463144Y-31807573D01*
X11479578Y-31703807D01*
X11480181Y-31700000D01*
X11472262Y-31650000D01*
X11466952Y-31616474D01*
X14464363Y-31616474D01*
X14464966Y-31620281D01*
X14480765Y-31720031D01*
X14482970Y-31733956D01*
X14484720Y-31737390D01*
X14532833Y-31831817D01*
X14536971Y-31839939D01*
X14621079Y-31924047D01*
X14624512Y-31925796D01*
X14624513Y-31925797D01*
X14648116Y-31937823D01*
X14727062Y-31978048D01*
X14730867Y-31978651D01*
X14730868Y-31978651D01*
X14840737Y-31996052D01*
X14844544Y-31996655D01*
X14848351Y-31996052D01*
X14958220Y-31978651D01*
X14958221Y-31978651D01*
X14962026Y-31978048D01*
X15040972Y-31937823D01*
X15064575Y-31925797D01*
X15064576Y-31925796D01*
X15068009Y-31924047D01*
X15152117Y-31839939D01*
X15156256Y-31831817D01*
X15204368Y-31737390D01*
X15206118Y-31733956D01*
X15208324Y-31720031D01*
X15224122Y-31620281D01*
X15224725Y-31616474D01*
X15207477Y-31507573D01*
X15206721Y-31502798D01*
X15206721Y-31502797D01*
X15206118Y-31498992D01*
X15167635Y-31423465D01*
X15153867Y-31396443D01*
X15153866Y-31396442D01*
X15152117Y-31393009D01*
X15068009Y-31308901D01*
X15064576Y-31307152D01*
X15064575Y-31307151D01*
X14999137Y-31273809D01*
X14962026Y-31254900D01*
X14958221Y-31254297D01*
X14958220Y-31254297D01*
X14848351Y-31236896D01*
X14844544Y-31236293D01*
X14840737Y-31236896D01*
X14730868Y-31254297D01*
X14730867Y-31254297D01*
X14727062Y-31254900D01*
X14689951Y-31273809D01*
X14624513Y-31307151D01*
X14624512Y-31307152D01*
X14621079Y-31308901D01*
X14536971Y-31393009D01*
X14535222Y-31396442D01*
X14535221Y-31396443D01*
X14521453Y-31423465D01*
X14482970Y-31498992D01*
X14482367Y-31502797D01*
X14482367Y-31502798D01*
X14481611Y-31507573D01*
X14464363Y-31616474D01*
X11466952Y-31616474D01*
X11462177Y-31586324D01*
X11462177Y-31586323D01*
X11461574Y-31582518D01*
X11419529Y-31500000D01*
X11409323Y-31479969D01*
X11409322Y-31479968D01*
X11407573Y-31476535D01*
X11323465Y-31392427D01*
X11320032Y-31390678D01*
X11320031Y-31390677D01*
X11270474Y-31365427D01*
X11217482Y-31338426D01*
X11213677Y-31337823D01*
X11213676Y-31337823D01*
X11103807Y-31320422D01*
X11100000Y-31319819D01*
X11096193Y-31320422D01*
X10986324Y-31337823D01*
X10986323Y-31337823D01*
X10982518Y-31338426D01*
X10929526Y-31365427D01*
X10879969Y-31390677D01*
X10879968Y-31390678D01*
X10876535Y-31392427D01*
X10792427Y-31476535D01*
X10790678Y-31479968D01*
X10790677Y-31479969D01*
X10780471Y-31500000D01*
X10738426Y-31582518D01*
X10737823Y-31586323D01*
X10737823Y-31586324D01*
X10727738Y-31650000D01*
X10719819Y-31700000D01*
X10720422Y-31703807D01*
X10731817Y-31775755D01*
X10723062Y-31812222D01*
X10691085Y-31831817D01*
X10675755Y-31831817D01*
X10603807Y-31820422D01*
X10600000Y-31819819D01*
X10596193Y-31820422D01*
X10486324Y-31837823D01*
X10486323Y-31837823D01*
X10482518Y-31838426D01*
X10435904Y-31862177D01*
X10379969Y-31890677D01*
X10379968Y-31890678D01*
X10376535Y-31892427D01*
X10292427Y-31976535D01*
X10290678Y-31979968D01*
X10290677Y-31979969D01*
X10282289Y-31996432D01*
X10238426Y-32082518D01*
X10219819Y-32200000D01*
X9764343Y-32200000D01*
X9761574Y-32182518D01*
X9712561Y-32086324D01*
X9709323Y-32079969D01*
X9709322Y-32079968D01*
X9707573Y-32076535D01*
X9623465Y-31992427D01*
X9620032Y-31990678D01*
X9620031Y-31990677D01*
X9570474Y-31965427D01*
X9517482Y-31938426D01*
X9513677Y-31937823D01*
X9513676Y-31937823D01*
X9403807Y-31920422D01*
X9400000Y-31919819D01*
X9396193Y-31920422D01*
X9286324Y-31937823D01*
X9286323Y-31937823D01*
X9282518Y-31938426D01*
X9229527Y-31965426D01*
X9179969Y-31990677D01*
X9179968Y-31990678D01*
X9176535Y-31992427D01*
X9092427Y-32076535D01*
X9090678Y-32079968D01*
X9090677Y-32079969D01*
X9087439Y-32086324D01*
X9038426Y-32182518D01*
X9019819Y-32300000D01*
X9020422Y-32303807D01*
X9036560Y-32405698D01*
X9038426Y-32417482D01*
X9058153Y-32456199D01*
X9084330Y-32507573D01*
X9092427Y-32523465D01*
X9176535Y-32607573D01*
X9179968Y-32609322D01*
X9179972Y-32609325D01*
X9272247Y-32656341D01*
X9296604Y-32684858D01*
X9293661Y-32722245D01*
X9272247Y-32743659D01*
X9179972Y-32790675D01*
X9179968Y-32790678D01*
X9176535Y-32792427D01*
X9092427Y-32876535D01*
X9038426Y-32982518D01*
X9037823Y-32986323D01*
X9037823Y-32986324D01*
X9033491Y-33013676D01*
X9019819Y-33100000D01*
X7019529Y-33100000D01*
X7061574Y-33017482D01*
X7080181Y-32900000D01*
X7063258Y-32793150D01*
X7062177Y-32786324D01*
X7062177Y-32786323D01*
X7061574Y-32782518D01*
X7011814Y-32684858D01*
X7009323Y-32679969D01*
X7009322Y-32679968D01*
X7007573Y-32676535D01*
X6923465Y-32592427D01*
X6920032Y-32590678D01*
X6920031Y-32590677D01*
X6864096Y-32562177D01*
X6817482Y-32538426D01*
X6813677Y-32537823D01*
X6813676Y-32537823D01*
X6703807Y-32520422D01*
X6700000Y-32519819D01*
X6696193Y-32520422D01*
X6586324Y-32537823D01*
X6586323Y-32537823D01*
X6582518Y-32538426D01*
X6535904Y-32562177D01*
X6479969Y-32590677D01*
X6479968Y-32590678D01*
X6476535Y-32592427D01*
X6392427Y-32676535D01*
X6390678Y-32679968D01*
X6390677Y-32679969D01*
X6388186Y-32684858D01*
X6338426Y-32782518D01*
X6337823Y-32786323D01*
X6337823Y-32786324D01*
X6336742Y-32793150D01*
X6319819Y-32900000D01*
X200000Y-32900000D01*
X200000Y-31500000D01*
X4919819Y-31500000D01*
X4938426Y-31617482D01*
X4992427Y-31723465D01*
X5076535Y-31807573D01*
X5079968Y-31809322D01*
X5079969Y-31809323D01*
X5129527Y-31834574D01*
X5182518Y-31861574D01*
X5186323Y-31862177D01*
X5186324Y-31862177D01*
X5296193Y-31879578D01*
X5300000Y-31880181D01*
X5303807Y-31879578D01*
X5413676Y-31862177D01*
X5413677Y-31862177D01*
X5417482Y-31861574D01*
X5470473Y-31834574D01*
X5520031Y-31809323D01*
X5520032Y-31809322D01*
X5523465Y-31807573D01*
X5607573Y-31723465D01*
X5660291Y-31620000D01*
X7094508Y-31620000D01*
X7095111Y-31623807D01*
X7113101Y-31737390D01*
X7114354Y-31745304D01*
X7171950Y-31858342D01*
X7261658Y-31948050D01*
X7265091Y-31949799D01*
X7265092Y-31949800D01*
X7312213Y-31973809D01*
X7374696Y-32005646D01*
X7378501Y-32006249D01*
X7378502Y-32006249D01*
X7496193Y-32024889D01*
X7500000Y-32025492D01*
X7503807Y-32024889D01*
X7621498Y-32006249D01*
X7621499Y-32006249D01*
X7625304Y-32005646D01*
X7687787Y-31973809D01*
X7734908Y-31949800D01*
X7734909Y-31949799D01*
X7738342Y-31948050D01*
X7828050Y-31858342D01*
X7885646Y-31745304D01*
X7886900Y-31737390D01*
X7904889Y-31623807D01*
X7905492Y-31620000D01*
X7900158Y-31586324D01*
X7886249Y-31498502D01*
X7886249Y-31498501D01*
X7885646Y-31494696D01*
X7847602Y-31420031D01*
X7829800Y-31385092D01*
X7829799Y-31385091D01*
X7828050Y-31381658D01*
X7738342Y-31291950D01*
X7734909Y-31290201D01*
X7734908Y-31290200D01*
X7669062Y-31256650D01*
X7625304Y-31234354D01*
X7621499Y-31233751D01*
X7621498Y-31233751D01*
X7503807Y-31215111D01*
X7500000Y-31214508D01*
X7496193Y-31215111D01*
X7378502Y-31233751D01*
X7378501Y-31233751D01*
X7374696Y-31234354D01*
X7330938Y-31256650D01*
X7265092Y-31290200D01*
X7265091Y-31290201D01*
X7261658Y-31291950D01*
X7171950Y-31381658D01*
X7170201Y-31385091D01*
X7170200Y-31385092D01*
X7152398Y-31420031D01*
X7114354Y-31494696D01*
X7113751Y-31498501D01*
X7113751Y-31498502D01*
X7099842Y-31586324D01*
X7094508Y-31620000D01*
X5660291Y-31620000D01*
X5661574Y-31617482D01*
X5663059Y-31608105D01*
X5682653Y-31576128D01*
X5719120Y-31567371D01*
X5800000Y-31580181D01*
X5803807Y-31579578D01*
X5913676Y-31562177D01*
X5913677Y-31562177D01*
X5917482Y-31561574D01*
X5970474Y-31534573D01*
X6020031Y-31509323D01*
X6020032Y-31509322D01*
X6023465Y-31507573D01*
X6107573Y-31423465D01*
X6121342Y-31396443D01*
X6150011Y-31340176D01*
X6161574Y-31317482D01*
X6162502Y-31311627D01*
X6179578Y-31203807D01*
X6180181Y-31200000D01*
X6163943Y-31097477D01*
X6162177Y-31086324D01*
X6162177Y-31086323D01*
X6161574Y-31082518D01*
X6107573Y-30976535D01*
X6023465Y-30892427D01*
X6020032Y-30890678D01*
X6020031Y-30890677D01*
X5987324Y-30874012D01*
X13085504Y-30874012D01*
X13086107Y-30877819D01*
X13102286Y-30979969D01*
X13104111Y-30991494D01*
X13105861Y-30994928D01*
X13138348Y-31058687D01*
X13158112Y-31097477D01*
X13242220Y-31181585D01*
X13245653Y-31183334D01*
X13245654Y-31183335D01*
X13270890Y-31196193D01*
X13348203Y-31235586D01*
X13352008Y-31236189D01*
X13352009Y-31236189D01*
X13461878Y-31253590D01*
X13465685Y-31254193D01*
X13469492Y-31253590D01*
X13579361Y-31236189D01*
X13579362Y-31236189D01*
X13583167Y-31235586D01*
X13660480Y-31196193D01*
X13685716Y-31183335D01*
X13685717Y-31183334D01*
X13689150Y-31181585D01*
X13773258Y-31097477D01*
X13793023Y-31058687D01*
X13825509Y-30994928D01*
X13827259Y-30991494D01*
X13829085Y-30979969D01*
X13845263Y-30877819D01*
X13845866Y-30874012D01*
X13840266Y-30838656D01*
X15242180Y-30838656D01*
X15260787Y-30956138D01*
X15314788Y-31062121D01*
X15398896Y-31146229D01*
X15402329Y-31147978D01*
X15402330Y-31147979D01*
X15451887Y-31173229D01*
X15504879Y-31200230D01*
X15508684Y-31200833D01*
X15508685Y-31200833D01*
X15618554Y-31218234D01*
X15622361Y-31218837D01*
X15626168Y-31218234D01*
X15736037Y-31200833D01*
X15736038Y-31200833D01*
X15739843Y-31200230D01*
X15792835Y-31173229D01*
X15842392Y-31147979D01*
X15842393Y-31147978D01*
X15845826Y-31146229D01*
X15929934Y-31062121D01*
X15983935Y-30956138D01*
X16000745Y-30850000D01*
X19000000Y-30850000D01*
X19400000Y-30850000D01*
X19600000Y-30850000D01*
X20000000Y-30850000D01*
X20000000Y-29750000D01*
X19600000Y-29750000D01*
X19600000Y-30850000D01*
X19400000Y-30850000D01*
X19400000Y-29750000D01*
X19000000Y-29750000D01*
X19000000Y-30850000D01*
X16000745Y-30850000D01*
X16002542Y-30838656D01*
X15990138Y-30760336D01*
X15984538Y-30724980D01*
X15984538Y-30724979D01*
X15983935Y-30721174D01*
X15956934Y-30668182D01*
X15931684Y-30618625D01*
X15931683Y-30618624D01*
X15929934Y-30615191D01*
X15845826Y-30531083D01*
X15842393Y-30529334D01*
X15842392Y-30529333D01*
X15772715Y-30493831D01*
X15739843Y-30477082D01*
X15736038Y-30476479D01*
X15736037Y-30476479D01*
X15626168Y-30459078D01*
X15622361Y-30458475D01*
X15618554Y-30459078D01*
X15508685Y-30476479D01*
X15508684Y-30476479D01*
X15504879Y-30477082D01*
X15472007Y-30493831D01*
X15402330Y-30529333D01*
X15402329Y-30529334D01*
X15398896Y-30531083D01*
X15314788Y-30615191D01*
X15313039Y-30618624D01*
X15313038Y-30618625D01*
X15287788Y-30668182D01*
X15260787Y-30721174D01*
X15260184Y-30724979D01*
X15260184Y-30724980D01*
X15254584Y-30760336D01*
X15242180Y-30838656D01*
X13840266Y-30838656D01*
X13831005Y-30780181D01*
X13827862Y-30760336D01*
X13827862Y-30760335D01*
X13827259Y-30756530D01*
X13773258Y-30650547D01*
X13689150Y-30566439D01*
X13685717Y-30564690D01*
X13685716Y-30564689D01*
X13616325Y-30529333D01*
X13583167Y-30512438D01*
X13579362Y-30511835D01*
X13579361Y-30511835D01*
X13469492Y-30494434D01*
X13465685Y-30493831D01*
X13461878Y-30494434D01*
X13352009Y-30511835D01*
X13352008Y-30511835D01*
X13348203Y-30512438D01*
X13315045Y-30529333D01*
X13245654Y-30564689D01*
X13245653Y-30564690D01*
X13242220Y-30566439D01*
X13158112Y-30650547D01*
X13104111Y-30756530D01*
X13103508Y-30760335D01*
X13103508Y-30760336D01*
X13100365Y-30780181D01*
X13085504Y-30874012D01*
X5987324Y-30874012D01*
X5925405Y-30842463D01*
X5917482Y-30838426D01*
X5913677Y-30837823D01*
X5913676Y-30837823D01*
X5803807Y-30820422D01*
X5800000Y-30819819D01*
X5796193Y-30820422D01*
X5686324Y-30837823D01*
X5686323Y-30837823D01*
X5682518Y-30838426D01*
X5674595Y-30842463D01*
X5579969Y-30890677D01*
X5579968Y-30890678D01*
X5576535Y-30892427D01*
X5492427Y-30976535D01*
X5438426Y-31082518D01*
X5437823Y-31086324D01*
X5437823Y-31086325D01*
X5436941Y-31091895D01*
X5417347Y-31123872D01*
X5380880Y-31132629D01*
X5300000Y-31119819D01*
X5296193Y-31120422D01*
X5186324Y-31137823D01*
X5186323Y-31137823D01*
X5182518Y-31138426D01*
X5129527Y-31165426D01*
X5079969Y-31190677D01*
X5079968Y-31190678D01*
X5076535Y-31192427D01*
X4992427Y-31276535D01*
X4990678Y-31279968D01*
X4990677Y-31279969D01*
X4983184Y-31294676D01*
X4938426Y-31382518D01*
X4937823Y-31386323D01*
X4937823Y-31386324D01*
X4932485Y-31420031D01*
X4919819Y-31500000D01*
X200000Y-31500000D01*
X200000Y-30400000D01*
X5819819Y-30400000D01*
X5820422Y-30403807D01*
X5837532Y-30511835D01*
X5838426Y-30517482D01*
X5892427Y-30623465D01*
X5976535Y-30707573D01*
X5979968Y-30709322D01*
X5979969Y-30709323D01*
X6003228Y-30721174D01*
X6082518Y-30761574D01*
X6086323Y-30762177D01*
X6086324Y-30762177D01*
X6196193Y-30779578D01*
X6200000Y-30780181D01*
X6203807Y-30779578D01*
X6313676Y-30762177D01*
X6313677Y-30762177D01*
X6317482Y-30761574D01*
X6396772Y-30721174D01*
X6420031Y-30709323D01*
X6420032Y-30709322D01*
X6423465Y-30707573D01*
X6507573Y-30623465D01*
X6561574Y-30517482D01*
X6562469Y-30511835D01*
X6579578Y-30403807D01*
X6580181Y-30400000D01*
X6561574Y-30282518D01*
X6507573Y-30176535D01*
X6497943Y-30166905D01*
X9125706Y-30166905D01*
X9144313Y-30284387D01*
X9198314Y-30390370D01*
X9282422Y-30474478D01*
X9285855Y-30476227D01*
X9285856Y-30476228D01*
X9290967Y-30478832D01*
X9388405Y-30528479D01*
X9392210Y-30529082D01*
X9392211Y-30529082D01*
X9502080Y-30546483D01*
X9505887Y-30547086D01*
X9509694Y-30546483D01*
X9619563Y-30529082D01*
X9619564Y-30529082D01*
X9623369Y-30528479D01*
X9720807Y-30478832D01*
X9725918Y-30476228D01*
X9725919Y-30476227D01*
X9729352Y-30474478D01*
X9813460Y-30390370D01*
X9867461Y-30284387D01*
X9886068Y-30166905D01*
X9867461Y-30049423D01*
X9813460Y-29943440D01*
X9729352Y-29859332D01*
X9725919Y-29857583D01*
X9725918Y-29857582D01*
X9676360Y-29832331D01*
X9623369Y-29805331D01*
X9619564Y-29804728D01*
X9619563Y-29804728D01*
X9509694Y-29787327D01*
X9505887Y-29786724D01*
X9502080Y-29787327D01*
X9392211Y-29804728D01*
X9392210Y-29804728D01*
X9388405Y-29805331D01*
X9335414Y-29832331D01*
X9285856Y-29857582D01*
X9285855Y-29857583D01*
X9282422Y-29859332D01*
X9198314Y-29943440D01*
X9144313Y-30049423D01*
X9125706Y-30166905D01*
X6497943Y-30166905D01*
X6423465Y-30092427D01*
X6420032Y-30090678D01*
X6420031Y-30090677D01*
X6370474Y-30065427D01*
X6317482Y-30038426D01*
X6313677Y-30037823D01*
X6313676Y-30037823D01*
X6203807Y-30020422D01*
X6200000Y-30019819D01*
X6196193Y-30020422D01*
X6086324Y-30037823D01*
X6086323Y-30037823D01*
X6082518Y-30038426D01*
X6029526Y-30065427D01*
X5979969Y-30090677D01*
X5979968Y-30090678D01*
X5976535Y-30092427D01*
X5892427Y-30176535D01*
X5838426Y-30282518D01*
X5819819Y-30400000D01*
X200000Y-30400000D01*
X200000Y-28300000D01*
X7219819Y-28300000D01*
X7238426Y-28417482D01*
X7258015Y-28455928D01*
X7289379Y-28517482D01*
X7292427Y-28523465D01*
X7376535Y-28607573D01*
X7379968Y-28609322D01*
X7379969Y-28609323D01*
X7393912Y-28616427D01*
X7482518Y-28661574D01*
X7486323Y-28662177D01*
X7486324Y-28662177D01*
X7596193Y-28679578D01*
X7600000Y-28680181D01*
X7603807Y-28679578D01*
X7713676Y-28662177D01*
X7713677Y-28662177D01*
X7717482Y-28661574D01*
X7806088Y-28616427D01*
X7820031Y-28609323D01*
X7820032Y-28609322D01*
X7823465Y-28607573D01*
X7907573Y-28523465D01*
X7910622Y-28517482D01*
X7941985Y-28455928D01*
X7961574Y-28417482D01*
X7980181Y-28300000D01*
X7961574Y-28182518D01*
X7917809Y-28096624D01*
X7909323Y-28079969D01*
X7909322Y-28079968D01*
X7907573Y-28076535D01*
X7876622Y-28045584D01*
X9125706Y-28045584D01*
X9126309Y-28049391D01*
X9139144Y-28130427D01*
X9144313Y-28163066D01*
X9146063Y-28166500D01*
X9176277Y-28225798D01*
X9198314Y-28269049D01*
X9282422Y-28353157D01*
X9285855Y-28354906D01*
X9285856Y-28354907D01*
X9335413Y-28380157D01*
X9388405Y-28407158D01*
X9392210Y-28407761D01*
X9392211Y-28407761D01*
X9502080Y-28425162D01*
X9505887Y-28425765D01*
X9572615Y-28415196D01*
X9609081Y-28423951D01*
X9628677Y-28455928D01*
X9632799Y-28481951D01*
X9638426Y-28517482D01*
X9649989Y-28540176D01*
X9684330Y-28607573D01*
X9692427Y-28623465D01*
X9776535Y-28707573D01*
X9779968Y-28709322D01*
X9779969Y-28709323D01*
X9787853Y-28713340D01*
X9882518Y-28761574D01*
X9886323Y-28762177D01*
X9886324Y-28762177D01*
X9989450Y-28778510D01*
X10021427Y-28798105D01*
X10030182Y-28834571D01*
X10019819Y-28900000D01*
X10038426Y-29017482D01*
X10058362Y-29056608D01*
X10079116Y-29097340D01*
X10092427Y-29123465D01*
X10176535Y-29207573D01*
X10179968Y-29209322D01*
X10179969Y-29209323D01*
X10227630Y-29233607D01*
X10282518Y-29261574D01*
X10286323Y-29262177D01*
X10286324Y-29262177D01*
X10396193Y-29279578D01*
X10400000Y-29280181D01*
X10511899Y-29262458D01*
X10548364Y-29271213D01*
X10567960Y-29303190D01*
X10563223Y-29333099D01*
X10558527Y-29342316D01*
X10539920Y-29459798D01*
X10540523Y-29463605D01*
X10555514Y-29558254D01*
X10558527Y-29577280D01*
X10560277Y-29580714D01*
X10606754Y-29671930D01*
X10612528Y-29683263D01*
X10696636Y-29767371D01*
X10700069Y-29769120D01*
X10700070Y-29769121D01*
X10732424Y-29785606D01*
X10802619Y-29821372D01*
X10806424Y-29821975D01*
X10806425Y-29821975D01*
X10916294Y-29839376D01*
X10920101Y-29839979D01*
X10923908Y-29839376D01*
X11033777Y-29821975D01*
X11033778Y-29821975D01*
X11037583Y-29821372D01*
X11107778Y-29785606D01*
X11140132Y-29769121D01*
X11140133Y-29769120D01*
X11143566Y-29767371D01*
X11227674Y-29683263D01*
X11233449Y-29671930D01*
X11279925Y-29580714D01*
X11281675Y-29577280D01*
X11284689Y-29558254D01*
X11299679Y-29463605D01*
X11300282Y-29459798D01*
X11281675Y-29342316D01*
X11245446Y-29271213D01*
X11229424Y-29239767D01*
X11229423Y-29239766D01*
X11227674Y-29236333D01*
X11143566Y-29152225D01*
X11140133Y-29150476D01*
X11140132Y-29150475D01*
X11077593Y-29118610D01*
X11037583Y-29098224D01*
X11033778Y-29097621D01*
X11033777Y-29097621D01*
X10923908Y-29080220D01*
X10920101Y-29079617D01*
X10808202Y-29097340D01*
X10771737Y-29088585D01*
X10752141Y-29056608D01*
X10756878Y-29026699D01*
X10759824Y-29020917D01*
X10759824Y-29020916D01*
X10761574Y-29017482D01*
X10780181Y-28900000D01*
X10761574Y-28782518D01*
X10707573Y-28676535D01*
X10623465Y-28592427D01*
X10620032Y-28590678D01*
X10620031Y-28590677D01*
X10570473Y-28565426D01*
X10517482Y-28538426D01*
X10513677Y-28537823D01*
X10513676Y-28537823D01*
X10410550Y-28521490D01*
X10378573Y-28501895D01*
X10369818Y-28465428D01*
X10370668Y-28460066D01*
X10380181Y-28400000D01*
X10361574Y-28282518D01*
X10312561Y-28186324D01*
X10309323Y-28179969D01*
X10309322Y-28179968D01*
X10307573Y-28176535D01*
X10223465Y-28092427D01*
X10220032Y-28090678D01*
X10220031Y-28090677D01*
X10131530Y-28045584D01*
X10117482Y-28038426D01*
X10113677Y-28037823D01*
X10113676Y-28037823D01*
X10003807Y-28020422D01*
X10000000Y-28019819D01*
X9933272Y-28030388D01*
X9896806Y-28021633D01*
X9877210Y-27989656D01*
X9868064Y-27931908D01*
X9868064Y-27931907D01*
X9867461Y-27928102D01*
X9834706Y-27863816D01*
X9815210Y-27825553D01*
X9815209Y-27825552D01*
X9813460Y-27822119D01*
X9729352Y-27738011D01*
X9725919Y-27736262D01*
X9725918Y-27736261D01*
X9654614Y-27699930D01*
X9623369Y-27684010D01*
X9619564Y-27683407D01*
X9619563Y-27683407D01*
X9509694Y-27666006D01*
X9505887Y-27665403D01*
X9502080Y-27666006D01*
X9392211Y-27683407D01*
X9392210Y-27683407D01*
X9388405Y-27684010D01*
X9357160Y-27699930D01*
X9285856Y-27736261D01*
X9285855Y-27736262D01*
X9282422Y-27738011D01*
X9198314Y-27822119D01*
X9196565Y-27825552D01*
X9196564Y-27825553D01*
X9177068Y-27863816D01*
X9144313Y-27928102D01*
X9125706Y-28045584D01*
X7876622Y-28045584D01*
X7823465Y-27992427D01*
X7820032Y-27990678D01*
X7820031Y-27990677D01*
X7770473Y-27965426D01*
X7717482Y-27938426D01*
X7713677Y-27937823D01*
X7713676Y-27937823D01*
X7603807Y-27920422D01*
X7600000Y-27919819D01*
X7596193Y-27920422D01*
X7486324Y-27937823D01*
X7486323Y-27937823D01*
X7482518Y-27938426D01*
X7429527Y-27965426D01*
X7379969Y-27990677D01*
X7379968Y-27990678D01*
X7376535Y-27992427D01*
X7292427Y-28076535D01*
X7290678Y-28079968D01*
X7290677Y-28079969D01*
X7282191Y-28096624D01*
X7238426Y-28182518D01*
X7219819Y-28300000D01*
X200000Y-28300000D01*
X200000Y-27300000D01*
X5519819Y-27300000D01*
X5520422Y-27303807D01*
X5530308Y-27366223D01*
X5538426Y-27417482D01*
X5592427Y-27523465D01*
X5676535Y-27607573D01*
X5679968Y-27609322D01*
X5679969Y-27609323D01*
X5725757Y-27632653D01*
X5782518Y-27661574D01*
X5786323Y-27662177D01*
X5786324Y-27662177D01*
X5896193Y-27679578D01*
X5900000Y-27680181D01*
X5903807Y-27679578D01*
X6013676Y-27662177D01*
X6013677Y-27662177D01*
X6017482Y-27661574D01*
X6074243Y-27632653D01*
X6120031Y-27609323D01*
X6120032Y-27609322D01*
X6123465Y-27607573D01*
X6207573Y-27523465D01*
X6261574Y-27417482D01*
X6269693Y-27366223D01*
X6279578Y-27303807D01*
X6280181Y-27300000D01*
X6270011Y-27235789D01*
X6262177Y-27186324D01*
X6262177Y-27186323D01*
X6261574Y-27182518D01*
X6234574Y-27129527D01*
X6209323Y-27079969D01*
X6209322Y-27079968D01*
X6207573Y-27076535D01*
X6123465Y-26992427D01*
X6120032Y-26990678D01*
X6120031Y-26990677D01*
X6070473Y-26965426D01*
X6017482Y-26938426D01*
X6013677Y-26937823D01*
X6013676Y-26937823D01*
X5903807Y-26920422D01*
X5900000Y-26919819D01*
X5896193Y-26920422D01*
X5786324Y-26937823D01*
X5786323Y-26937823D01*
X5782518Y-26938426D01*
X5729527Y-26965426D01*
X5679969Y-26990677D01*
X5679968Y-26990678D01*
X5676535Y-26992427D01*
X5592427Y-27076535D01*
X5590678Y-27079968D01*
X5590677Y-27079969D01*
X5565426Y-27129527D01*
X5538426Y-27182518D01*
X5537823Y-27186323D01*
X5537823Y-27186324D01*
X5529989Y-27235789D01*
X5519819Y-27300000D01*
X200000Y-27300000D01*
X200000Y-26348528D01*
X7428650Y-26348528D01*
X7447257Y-26466010D01*
X7501258Y-26571993D01*
X7585366Y-26656101D01*
X7588799Y-26657850D01*
X7588800Y-26657851D01*
X7638358Y-26683102D01*
X7691349Y-26710102D01*
X7695154Y-26710705D01*
X7695155Y-26710705D01*
X7805024Y-26728106D01*
X7808831Y-26728709D01*
X7812638Y-26728106D01*
X7922507Y-26710705D01*
X7922508Y-26710705D01*
X7926313Y-26710102D01*
X7979304Y-26683102D01*
X8028862Y-26657851D01*
X8028863Y-26657850D01*
X8032296Y-26656101D01*
X8116404Y-26571993D01*
X8170405Y-26466010D01*
X8189012Y-26348528D01*
X8173287Y-26249240D01*
X8171008Y-26234852D01*
X8171008Y-26234851D01*
X8170405Y-26231046D01*
X8143404Y-26178054D01*
X8118154Y-26128497D01*
X8118153Y-26128496D01*
X8116404Y-26125063D01*
X8032296Y-26040955D01*
X8028863Y-26039206D01*
X8028862Y-26039205D01*
X7979304Y-26013954D01*
X7926313Y-25986954D01*
X7922508Y-25986351D01*
X7922507Y-25986351D01*
X7812638Y-25968950D01*
X7808831Y-25968347D01*
X7805024Y-25968950D01*
X7695155Y-25986351D01*
X7695154Y-25986351D01*
X7691349Y-25986954D01*
X7638358Y-26013954D01*
X7588800Y-26039205D01*
X7588799Y-26039206D01*
X7585366Y-26040955D01*
X7501258Y-26125063D01*
X7499509Y-26128496D01*
X7499508Y-26128497D01*
X7474257Y-26178055D01*
X7447257Y-26231046D01*
X7446654Y-26234851D01*
X7446654Y-26234852D01*
X7444375Y-26249240D01*
X7428650Y-26348528D01*
X200000Y-26348528D01*
X200000Y-25500000D01*
X8900000Y-25500000D01*
X12900000Y-29500000D01*
X12940202Y-29459798D01*
X14499718Y-29459798D01*
X14500321Y-29463605D01*
X14515312Y-29558254D01*
X14518325Y-29577280D01*
X14520075Y-29580714D01*
X14566552Y-29671930D01*
X14572326Y-29683263D01*
X14656434Y-29767371D01*
X14659867Y-29769120D01*
X14659868Y-29769121D01*
X14692222Y-29785606D01*
X14762417Y-29821372D01*
X14766222Y-29821975D01*
X14766223Y-29821975D01*
X14876092Y-29839376D01*
X14879899Y-29839979D01*
X14883706Y-29839376D01*
X14993575Y-29821975D01*
X14993576Y-29821975D01*
X14997381Y-29821372D01*
X15067576Y-29785606D01*
X15099930Y-29769121D01*
X15099931Y-29769120D01*
X15103364Y-29767371D01*
X15187472Y-29683263D01*
X15193247Y-29671930D01*
X16408906Y-29671930D01*
X16409509Y-29675737D01*
X16422815Y-29759747D01*
X16427513Y-29789412D01*
X16481514Y-29895395D01*
X16565622Y-29979503D01*
X16569055Y-29981252D01*
X16569056Y-29981253D01*
X16618614Y-30006504D01*
X16671605Y-30033504D01*
X16675410Y-30034107D01*
X16675411Y-30034107D01*
X16785280Y-30051508D01*
X16789087Y-30052111D01*
X16792894Y-30051508D01*
X16902763Y-30034107D01*
X16902764Y-30034107D01*
X16906569Y-30033504D01*
X16959560Y-30006504D01*
X17009118Y-29981253D01*
X17009119Y-29981252D01*
X17012552Y-29979503D01*
X17096660Y-29895395D01*
X17150661Y-29789412D01*
X17155360Y-29759747D01*
X17168665Y-29675737D01*
X17169268Y-29671930D01*
X17154277Y-29577280D01*
X17151264Y-29558254D01*
X17151264Y-29558253D01*
X17150661Y-29554448D01*
X17104374Y-29463605D01*
X17098410Y-29451899D01*
X17098409Y-29451898D01*
X17096660Y-29448465D01*
X17012552Y-29364357D01*
X17009119Y-29362608D01*
X17009118Y-29362607D01*
X16951205Y-29333099D01*
X16906569Y-29310356D01*
X16902764Y-29309753D01*
X16902763Y-29309753D01*
X16792894Y-29292352D01*
X16789087Y-29291749D01*
X16785280Y-29292352D01*
X16675411Y-29309753D01*
X16675410Y-29309753D01*
X16671605Y-29310356D01*
X16626969Y-29333099D01*
X16569056Y-29362607D01*
X16569055Y-29362608D01*
X16565622Y-29364357D01*
X16481514Y-29448465D01*
X16479765Y-29451898D01*
X16479764Y-29451899D01*
X16473800Y-29463605D01*
X16427513Y-29554448D01*
X16426910Y-29558253D01*
X16426910Y-29558254D01*
X16423897Y-29577280D01*
X16408906Y-29671930D01*
X15193247Y-29671930D01*
X15239723Y-29580714D01*
X15241473Y-29577280D01*
X15244487Y-29558254D01*
X15259477Y-29463605D01*
X15260080Y-29459798D01*
X15241473Y-29342316D01*
X15205244Y-29271213D01*
X15189222Y-29239767D01*
X15189221Y-29239766D01*
X15187472Y-29236333D01*
X15103364Y-29152225D01*
X15099931Y-29150476D01*
X15099930Y-29150475D01*
X15037391Y-29118610D01*
X14997381Y-29098224D01*
X14993576Y-29097621D01*
X14993575Y-29097621D01*
X14883706Y-29080220D01*
X14879899Y-29079617D01*
X14876092Y-29080220D01*
X14766223Y-29097621D01*
X14766222Y-29097621D01*
X14762417Y-29098224D01*
X14722407Y-29118610D01*
X14659868Y-29150475D01*
X14659867Y-29150476D01*
X14656434Y-29152225D01*
X14572326Y-29236333D01*
X14570577Y-29239766D01*
X14570576Y-29239767D01*
X14554554Y-29271213D01*
X14518325Y-29342316D01*
X14499718Y-29459798D01*
X12940202Y-29459798D01*
X14920101Y-27479899D01*
X16479617Y-27479899D01*
X16480220Y-27483706D01*
X16487569Y-27530104D01*
X16498224Y-27597381D01*
X16499974Y-27600815D01*
X16542364Y-27684010D01*
X16552225Y-27703364D01*
X16636333Y-27787472D01*
X16639766Y-27789221D01*
X16639767Y-27789222D01*
X16640056Y-27789369D01*
X16742316Y-27841473D01*
X16746121Y-27842076D01*
X16746122Y-27842076D01*
X16855991Y-27859477D01*
X16859798Y-27860080D01*
X16863605Y-27859477D01*
X16973474Y-27842076D01*
X16973475Y-27842076D01*
X16977280Y-27841473D01*
X17079540Y-27789369D01*
X17079829Y-27789222D01*
X17079830Y-27789221D01*
X17083263Y-27787472D01*
X17167371Y-27703364D01*
X17177233Y-27684010D01*
X17219622Y-27600815D01*
X17221372Y-27597381D01*
X17232028Y-27530104D01*
X17239376Y-27483706D01*
X17239979Y-27479899D01*
X17230093Y-27417482D01*
X17228779Y-27409188D01*
X18671648Y-27409188D01*
X18672251Y-27412995D01*
X18689204Y-27520031D01*
X18690255Y-27526670D01*
X18692005Y-27530104D01*
X18741110Y-27626478D01*
X18744256Y-27632653D01*
X18828364Y-27716761D01*
X18831797Y-27718510D01*
X18831798Y-27718511D01*
X18875420Y-27740737D01*
X18934347Y-27770762D01*
X18938152Y-27771365D01*
X18938153Y-27771365D01*
X19048022Y-27788766D01*
X19051829Y-27789369D01*
X19055636Y-27788766D01*
X19165505Y-27771365D01*
X19165506Y-27771365D01*
X19169311Y-27770762D01*
X19228238Y-27740737D01*
X19271860Y-27718511D01*
X19271861Y-27718510D01*
X19275294Y-27716761D01*
X19359402Y-27632653D01*
X19362549Y-27626478D01*
X19411653Y-27530104D01*
X19413403Y-27526670D01*
X19414455Y-27520031D01*
X19431407Y-27412995D01*
X19432010Y-27409188D01*
X19424602Y-27362417D01*
X19414006Y-27295512D01*
X19414006Y-27295511D01*
X19413403Y-27291706D01*
X19359402Y-27185723D01*
X19275294Y-27101615D01*
X19271861Y-27099866D01*
X19271860Y-27099865D01*
X19220722Y-27073809D01*
X19169311Y-27047614D01*
X19165506Y-27047011D01*
X19165505Y-27047011D01*
X19055636Y-27029610D01*
X19051829Y-27029007D01*
X19048022Y-27029610D01*
X18938153Y-27047011D01*
X18938152Y-27047011D01*
X18934347Y-27047614D01*
X18882936Y-27073809D01*
X18831798Y-27099865D01*
X18831797Y-27099866D01*
X18828364Y-27101615D01*
X18744256Y-27185723D01*
X18690255Y-27291706D01*
X18689652Y-27295511D01*
X18689652Y-27295512D01*
X18679056Y-27362417D01*
X18671648Y-27409188D01*
X17228779Y-27409188D01*
X17221975Y-27366223D01*
X17221975Y-27366222D01*
X17221372Y-27362417D01*
X17167371Y-27256434D01*
X17083263Y-27172326D01*
X17079830Y-27170577D01*
X17079829Y-27170576D01*
X17017290Y-27138711D01*
X16977280Y-27118325D01*
X16973475Y-27117722D01*
X16973474Y-27117722D01*
X16863605Y-27100321D01*
X16859798Y-27099718D01*
X16855991Y-27100321D01*
X16746122Y-27117722D01*
X16746121Y-27117722D01*
X16742316Y-27118325D01*
X16702306Y-27138711D01*
X16639767Y-27170576D01*
X16639766Y-27170577D01*
X16636333Y-27172326D01*
X16552225Y-27256434D01*
X16498224Y-27362417D01*
X16497621Y-27366222D01*
X16497621Y-27366223D01*
X16489503Y-27417482D01*
X16479617Y-27479899D01*
X14920101Y-27479899D01*
X16829289Y-25570711D01*
X18388805Y-25570711D01*
X18407412Y-25688193D01*
X18461413Y-25794176D01*
X18545521Y-25878284D01*
X18548954Y-25880033D01*
X18548955Y-25880034D01*
X18554064Y-25882637D01*
X18651504Y-25932285D01*
X18655309Y-25932888D01*
X18655310Y-25932888D01*
X18765179Y-25950289D01*
X18768986Y-25950892D01*
X18772793Y-25950289D01*
X18882662Y-25932888D01*
X18882663Y-25932888D01*
X18886468Y-25932285D01*
X18983908Y-25882637D01*
X18989017Y-25880034D01*
X18989018Y-25880033D01*
X18992451Y-25878284D01*
X19076559Y-25794176D01*
X19130560Y-25688193D01*
X19149167Y-25570711D01*
X19136876Y-25493107D01*
X19131163Y-25457035D01*
X19131163Y-25457034D01*
X19130560Y-25453229D01*
X19076559Y-25347246D01*
X18992451Y-25263138D01*
X18989018Y-25261389D01*
X18989017Y-25261388D01*
X18939459Y-25236137D01*
X18886468Y-25209137D01*
X18882663Y-25208534D01*
X18882662Y-25208534D01*
X18772793Y-25191133D01*
X18768986Y-25190530D01*
X18765179Y-25191133D01*
X18655310Y-25208534D01*
X18655309Y-25208534D01*
X18651504Y-25209137D01*
X18598512Y-25236138D01*
X18548955Y-25261388D01*
X18548954Y-25261389D01*
X18545521Y-25263138D01*
X18461413Y-25347246D01*
X18407412Y-25453229D01*
X18406809Y-25457034D01*
X18406809Y-25457035D01*
X18401096Y-25493107D01*
X18388805Y-25570711D01*
X16829289Y-25570711D01*
X16900000Y-25500000D01*
X15697918Y-24297918D01*
X19378755Y-24297918D01*
X19379358Y-24301725D01*
X19386038Y-24343899D01*
X19397362Y-24415400D01*
X19451363Y-24521383D01*
X19535471Y-24605491D01*
X19538904Y-24607240D01*
X19538905Y-24607241D01*
X19588463Y-24632492D01*
X19641454Y-24659492D01*
X19645259Y-24660095D01*
X19645260Y-24660095D01*
X19755129Y-24677496D01*
X19758936Y-24678099D01*
X19762743Y-24677496D01*
X19872612Y-24660095D01*
X19872613Y-24660095D01*
X19876418Y-24659492D01*
X19929409Y-24632492D01*
X19978967Y-24607241D01*
X19978968Y-24607240D01*
X19982401Y-24605491D01*
X20066509Y-24521383D01*
X20120510Y-24415400D01*
X20131835Y-24343899D01*
X20138514Y-24301725D01*
X20139117Y-24297918D01*
X20120510Y-24180436D01*
X20066509Y-24074453D01*
X19982401Y-23990345D01*
X19978968Y-23988596D01*
X19978967Y-23988595D01*
X19929410Y-23963345D01*
X19876418Y-23936344D01*
X19872613Y-23935741D01*
X19872612Y-23935741D01*
X19762743Y-23918340D01*
X19758936Y-23917737D01*
X19755129Y-23918340D01*
X19645260Y-23935741D01*
X19645259Y-23935741D01*
X19641454Y-23936344D01*
X19588462Y-23963345D01*
X19538905Y-23988595D01*
X19538904Y-23988596D01*
X19535471Y-23990345D01*
X19451363Y-24074453D01*
X19397362Y-24180436D01*
X19378755Y-24297918D01*
X15697918Y-24297918D01*
X14920101Y-23520101D01*
X16479617Y-23520101D01*
X16480220Y-23523908D01*
X16495034Y-23617439D01*
X16498224Y-23637583D01*
X16552225Y-23743566D01*
X16636333Y-23827674D01*
X16639766Y-23829423D01*
X16639767Y-23829424D01*
X16692797Y-23856444D01*
X16742316Y-23881675D01*
X16746127Y-23882279D01*
X16748298Y-23882984D01*
X16776815Y-23907341D01*
X16779758Y-23914444D01*
X16780463Y-23916615D01*
X16781067Y-23920426D01*
X16835068Y-24026409D01*
X16919176Y-24110517D01*
X16922609Y-24112266D01*
X16922610Y-24112267D01*
X16966232Y-24134493D01*
X17025159Y-24164518D01*
X17028964Y-24165121D01*
X17028965Y-24165121D01*
X17138834Y-24182522D01*
X17142641Y-24183125D01*
X17146448Y-24182522D01*
X17256317Y-24165121D01*
X17256318Y-24165121D01*
X17260123Y-24164518D01*
X17319050Y-24134493D01*
X17362672Y-24112267D01*
X17362673Y-24112266D01*
X17366106Y-24110517D01*
X17450214Y-24026409D01*
X17504215Y-23920426D01*
X17505163Y-23914444D01*
X17522219Y-23806751D01*
X17522822Y-23802944D01*
X17504215Y-23685462D01*
X17450214Y-23579479D01*
X17366106Y-23495371D01*
X17362673Y-23493622D01*
X17362672Y-23493621D01*
X17309642Y-23466601D01*
X17260123Y-23441370D01*
X17256312Y-23440766D01*
X17254141Y-23440061D01*
X17225624Y-23415704D01*
X17222681Y-23408601D01*
X17221976Y-23406430D01*
X17221372Y-23402619D01*
X17167371Y-23296636D01*
X17083263Y-23212528D01*
X17079830Y-23210779D01*
X17079829Y-23210778D01*
X17017292Y-23178914D01*
X16977280Y-23158527D01*
X16973475Y-23157924D01*
X16973474Y-23157924D01*
X16863605Y-23140523D01*
X16859798Y-23139920D01*
X16855991Y-23140523D01*
X16746122Y-23157924D01*
X16746121Y-23157924D01*
X16742316Y-23158527D01*
X16702304Y-23178914D01*
X16639767Y-23210778D01*
X16639766Y-23210779D01*
X16636333Y-23212528D01*
X16552225Y-23296636D01*
X16498224Y-23402619D01*
X16497621Y-23406424D01*
X16497621Y-23406425D01*
X16491809Y-23443122D01*
X16479617Y-23520101D01*
X14920101Y-23520101D01*
X14155282Y-22755282D01*
X18100101Y-22755282D01*
X18118708Y-22872764D01*
X18172709Y-22978747D01*
X18256817Y-23062855D01*
X18260250Y-23064604D01*
X18260251Y-23064605D01*
X18309809Y-23089856D01*
X18362800Y-23116856D01*
X18366605Y-23117459D01*
X18366606Y-23117459D01*
X18476475Y-23134860D01*
X18480282Y-23135463D01*
X18484089Y-23134860D01*
X18593958Y-23117459D01*
X18593959Y-23117459D01*
X18597764Y-23116856D01*
X18650755Y-23089856D01*
X18700313Y-23064605D01*
X18700314Y-23064604D01*
X18703747Y-23062855D01*
X18720634Y-23045968D01*
X18755282Y-23031616D01*
X18789930Y-23045968D01*
X18806817Y-23062855D01*
X18810250Y-23064604D01*
X18810251Y-23064605D01*
X18859809Y-23089856D01*
X18912800Y-23116856D01*
X18916605Y-23117459D01*
X18916606Y-23117459D01*
X19026475Y-23134860D01*
X19030282Y-23135463D01*
X19034089Y-23134860D01*
X19143958Y-23117459D01*
X19143959Y-23117459D01*
X19147764Y-23116856D01*
X19200755Y-23089856D01*
X19250313Y-23064605D01*
X19250314Y-23064604D01*
X19253747Y-23062855D01*
X19337855Y-22978747D01*
X19391856Y-22872764D01*
X19410463Y-22755282D01*
X19391856Y-22637800D01*
X19364856Y-22584809D01*
X19339605Y-22535251D01*
X19339604Y-22535250D01*
X19337855Y-22531817D01*
X19253747Y-22447709D01*
X19250314Y-22445960D01*
X19250313Y-22445959D01*
X19167584Y-22403807D01*
X19147764Y-22393708D01*
X19143959Y-22393105D01*
X19143958Y-22393105D01*
X19052778Y-22378664D01*
X19030282Y-22375101D01*
X19007786Y-22378664D01*
X18916606Y-22393105D01*
X18916605Y-22393105D01*
X18912800Y-22393708D01*
X18892980Y-22403807D01*
X18810251Y-22445959D01*
X18810250Y-22445960D01*
X18806817Y-22447709D01*
X18789930Y-22464596D01*
X18755282Y-22478948D01*
X18720634Y-22464596D01*
X18703747Y-22447709D01*
X18700314Y-22445960D01*
X18700313Y-22445959D01*
X18617584Y-22403807D01*
X18597764Y-22393708D01*
X18593959Y-22393105D01*
X18593958Y-22393105D01*
X18502778Y-22378664D01*
X18480282Y-22375101D01*
X18457786Y-22378664D01*
X18366606Y-22393105D01*
X18366605Y-22393105D01*
X18362800Y-22393708D01*
X18342980Y-22403807D01*
X18260251Y-22445959D01*
X18260250Y-22445960D01*
X18256817Y-22447709D01*
X18172709Y-22531817D01*
X18170960Y-22535250D01*
X18170959Y-22535251D01*
X18145708Y-22584809D01*
X18118708Y-22637800D01*
X18100101Y-22755282D01*
X14155282Y-22755282D01*
X12940202Y-21540202D01*
X14499718Y-21540202D01*
X14500321Y-21544009D01*
X14515135Y-21637540D01*
X14518325Y-21657684D01*
X14572326Y-21763667D01*
X14656434Y-21847775D01*
X14659867Y-21849524D01*
X14659868Y-21849525D01*
X14709426Y-21874776D01*
X14762417Y-21901776D01*
X14766222Y-21902379D01*
X14766223Y-21902379D01*
X14876092Y-21919780D01*
X14879899Y-21920383D01*
X14883706Y-21919780D01*
X14993575Y-21902379D01*
X14993576Y-21902379D01*
X14997381Y-21901776D01*
X15050372Y-21874776D01*
X15099930Y-21849525D01*
X15099931Y-21849524D01*
X15103364Y-21847775D01*
X15187472Y-21763667D01*
X15241473Y-21657684D01*
X15244664Y-21637540D01*
X15259477Y-21544009D01*
X15260080Y-21540202D01*
X15245089Y-21445552D01*
X15242076Y-21426526D01*
X15242076Y-21426525D01*
X15241473Y-21422720D01*
X15195186Y-21331877D01*
X15193246Y-21328070D01*
X16408906Y-21328070D01*
X16409509Y-21331877D01*
X16424500Y-21426526D01*
X16427513Y-21445552D01*
X16429263Y-21448986D01*
X16475740Y-21540202D01*
X16481514Y-21551535D01*
X16565622Y-21635643D01*
X16569055Y-21637392D01*
X16569056Y-21637393D01*
X16569345Y-21637540D01*
X16671605Y-21689644D01*
X16675410Y-21690247D01*
X16675411Y-21690247D01*
X16785280Y-21707648D01*
X16789087Y-21708251D01*
X16792894Y-21707648D01*
X16902763Y-21690247D01*
X16902764Y-21690247D01*
X16906569Y-21689644D01*
X17008829Y-21637540D01*
X17009118Y-21637393D01*
X17009119Y-21637392D01*
X17012552Y-21635643D01*
X17096660Y-21551535D01*
X17102435Y-21540202D01*
X17148911Y-21448986D01*
X17150661Y-21445552D01*
X17153675Y-21426526D01*
X17168665Y-21331877D01*
X17169268Y-21328070D01*
X17150661Y-21210588D01*
X17096660Y-21104605D01*
X17012552Y-21020497D01*
X17009119Y-21018748D01*
X17009118Y-21018747D01*
X16959560Y-20993496D01*
X16906569Y-20966496D01*
X16902764Y-20965893D01*
X16902763Y-20965893D01*
X16792894Y-20948492D01*
X16789087Y-20947889D01*
X16785280Y-20948492D01*
X16675411Y-20965893D01*
X16675410Y-20965893D01*
X16671605Y-20966496D01*
X16618614Y-20993496D01*
X16569056Y-21018747D01*
X16569055Y-21018748D01*
X16565622Y-21020497D01*
X16481514Y-21104605D01*
X16427513Y-21210588D01*
X16408906Y-21328070D01*
X15193246Y-21328070D01*
X15189222Y-21320171D01*
X15189221Y-21320170D01*
X15187472Y-21316737D01*
X15103364Y-21232629D01*
X15099931Y-21230880D01*
X15099930Y-21230879D01*
X15050372Y-21205628D01*
X14997381Y-21178628D01*
X14993576Y-21178025D01*
X14993575Y-21178025D01*
X14883706Y-21160624D01*
X14879899Y-21160021D01*
X14876092Y-21160624D01*
X14766223Y-21178025D01*
X14766222Y-21178025D01*
X14762417Y-21178628D01*
X14709426Y-21205628D01*
X14659868Y-21230879D01*
X14659867Y-21230880D01*
X14656434Y-21232629D01*
X14572326Y-21316737D01*
X14570577Y-21320170D01*
X14570576Y-21320171D01*
X14564612Y-21331877D01*
X14518325Y-21422720D01*
X14517722Y-21426525D01*
X14517722Y-21426526D01*
X14514709Y-21445552D01*
X14499718Y-21540202D01*
X12940202Y-21540202D01*
X12900000Y-21500000D01*
X8900000Y-25500000D01*
X200000Y-25500000D01*
X200000Y-24439340D01*
X5519462Y-24439340D01*
X5520065Y-24443147D01*
X5535056Y-24537796D01*
X5538069Y-24556822D01*
X5539819Y-24560256D01*
X5588924Y-24656630D01*
X5592070Y-24662805D01*
X5676178Y-24746913D01*
X5679611Y-24748662D01*
X5679612Y-24748663D01*
X5711966Y-24765148D01*
X5782161Y-24800914D01*
X5785966Y-24801517D01*
X5785967Y-24801517D01*
X5895836Y-24818918D01*
X5899643Y-24819521D01*
X5903450Y-24818918D01*
X6013319Y-24801517D01*
X6013320Y-24801517D01*
X6017125Y-24800914D01*
X6087320Y-24765148D01*
X6119674Y-24748663D01*
X6119675Y-24748662D01*
X6123108Y-24746913D01*
X6207216Y-24662805D01*
X6210363Y-24656630D01*
X6212991Y-24651472D01*
X7428650Y-24651472D01*
X7429253Y-24655279D01*
X7444937Y-24754303D01*
X7447257Y-24768954D01*
X7463849Y-24801517D01*
X7498996Y-24870497D01*
X7501258Y-24874937D01*
X7585366Y-24959045D01*
X7588799Y-24960794D01*
X7588800Y-24960795D01*
X7638358Y-24986046D01*
X7691349Y-25013046D01*
X7695154Y-25013649D01*
X7695155Y-25013649D01*
X7805024Y-25031050D01*
X7808831Y-25031653D01*
X7812638Y-25031050D01*
X7922507Y-25013649D01*
X7922508Y-25013649D01*
X7926313Y-25013046D01*
X7979304Y-24986046D01*
X8028862Y-24960795D01*
X8028863Y-24960794D01*
X8032296Y-24959045D01*
X8116404Y-24874937D01*
X8118667Y-24870497D01*
X8153813Y-24801517D01*
X8170405Y-24768954D01*
X8172726Y-24754303D01*
X8188409Y-24655279D01*
X8189012Y-24651472D01*
X8182007Y-24607241D01*
X8171008Y-24537796D01*
X8171008Y-24537795D01*
X8170405Y-24533990D01*
X8124118Y-24443147D01*
X8118154Y-24431441D01*
X8118153Y-24431440D01*
X8116404Y-24428007D01*
X8032296Y-24343899D01*
X8028863Y-24342150D01*
X8028862Y-24342149D01*
X7979305Y-24316899D01*
X7926313Y-24289898D01*
X7922508Y-24289295D01*
X7922507Y-24289295D01*
X7812638Y-24271894D01*
X7808831Y-24271291D01*
X7805024Y-24271894D01*
X7695155Y-24289295D01*
X7695154Y-24289295D01*
X7691349Y-24289898D01*
X7638357Y-24316899D01*
X7588800Y-24342149D01*
X7588799Y-24342150D01*
X7585366Y-24343899D01*
X7501258Y-24428007D01*
X7499509Y-24431440D01*
X7499508Y-24431441D01*
X7493544Y-24443147D01*
X7447257Y-24533990D01*
X7446654Y-24537795D01*
X7446654Y-24537796D01*
X7435655Y-24607241D01*
X7428650Y-24651472D01*
X6212991Y-24651472D01*
X6259467Y-24560256D01*
X6261217Y-24556822D01*
X6264231Y-24537796D01*
X6279221Y-24443147D01*
X6279824Y-24439340D01*
X6261217Y-24321858D01*
X6207216Y-24215875D01*
X6123108Y-24131767D01*
X6119675Y-24130018D01*
X6119674Y-24130017D01*
X6070116Y-24104766D01*
X6017125Y-24077766D01*
X6013320Y-24077163D01*
X6013319Y-24077163D01*
X5903450Y-24059762D01*
X5899643Y-24059159D01*
X5895836Y-24059762D01*
X5785967Y-24077163D01*
X5785966Y-24077163D01*
X5782161Y-24077766D01*
X5729170Y-24104766D01*
X5679612Y-24130017D01*
X5679611Y-24130018D01*
X5676178Y-24131767D01*
X5592070Y-24215875D01*
X5538069Y-24321858D01*
X5519462Y-24439340D01*
X200000Y-24439340D01*
X200000Y-23237258D01*
X8842864Y-23237258D01*
X8861471Y-23354740D01*
X8915472Y-23460723D01*
X8999580Y-23544831D01*
X9003013Y-23546580D01*
X9003014Y-23546581D01*
X9052571Y-23571831D01*
X9105563Y-23598832D01*
X9109368Y-23599435D01*
X9109369Y-23599435D01*
X9219238Y-23616836D01*
X9223045Y-23617439D01*
X9226852Y-23616836D01*
X9336721Y-23599435D01*
X9336722Y-23599435D01*
X9340527Y-23598832D01*
X9393519Y-23571831D01*
X9443076Y-23546581D01*
X9443077Y-23546580D01*
X9446510Y-23544831D01*
X9530618Y-23460723D01*
X9584619Y-23354740D01*
X9603226Y-23237258D01*
X9590935Y-23159655D01*
X9585222Y-23123582D01*
X9585222Y-23123581D01*
X9584619Y-23119776D01*
X9530618Y-23013793D01*
X9446510Y-22929685D01*
X9443077Y-22927936D01*
X9443076Y-22927935D01*
X9364194Y-22887743D01*
X9340527Y-22875684D01*
X9336722Y-22875081D01*
X9336721Y-22875081D01*
X9226852Y-22857680D01*
X9223045Y-22857077D01*
X9219238Y-22857680D01*
X9109369Y-22875081D01*
X9109368Y-22875081D01*
X9105563Y-22875684D01*
X9081896Y-22887743D01*
X9003014Y-22927935D01*
X9003013Y-22927936D01*
X8999580Y-22929685D01*
X8915472Y-23013793D01*
X8861471Y-23119776D01*
X8860868Y-23123581D01*
X8860868Y-23123582D01*
X8855155Y-23159655D01*
X8842864Y-23237258D01*
X200000Y-23237258D01*
X200000Y-22400000D01*
X6319819Y-22400000D01*
X6338426Y-22517482D01*
X6365426Y-22570473D01*
X6389951Y-22618605D01*
X6392427Y-22623465D01*
X6476535Y-22707573D01*
X6479968Y-22709322D01*
X6479969Y-22709323D01*
X6529527Y-22734574D01*
X6582518Y-22761574D01*
X6586323Y-22762177D01*
X6586324Y-22762177D01*
X6696193Y-22779578D01*
X6700000Y-22780181D01*
X6703807Y-22779578D01*
X6813676Y-22762177D01*
X6813677Y-22762177D01*
X6817482Y-22761574D01*
X6870473Y-22734574D01*
X6920031Y-22709323D01*
X6920032Y-22709322D01*
X6923465Y-22707573D01*
X7007573Y-22623465D01*
X7009324Y-22620028D01*
X7010358Y-22618605D01*
X7042334Y-22599009D01*
X7078801Y-22607764D01*
X7089642Y-22618605D01*
X7090676Y-22620028D01*
X7092427Y-22623465D01*
X7176535Y-22707573D01*
X7179968Y-22709322D01*
X7179969Y-22709323D01*
X7229527Y-22734574D01*
X7282518Y-22761574D01*
X7286323Y-22762177D01*
X7286324Y-22762177D01*
X7396193Y-22779578D01*
X7400000Y-22780181D01*
X7403807Y-22779578D01*
X7513676Y-22762177D01*
X7513677Y-22762177D01*
X7517482Y-22761574D01*
X7570473Y-22734574D01*
X7620031Y-22709323D01*
X7620032Y-22709322D01*
X7623465Y-22707573D01*
X7707573Y-22623465D01*
X7710050Y-22618605D01*
X7734574Y-22570473D01*
X7761574Y-22517482D01*
X7780181Y-22400000D01*
X7761574Y-22282518D01*
X7715573Y-22192236D01*
X7709323Y-22179969D01*
X7709322Y-22179968D01*
X7707573Y-22176535D01*
X7623465Y-22092427D01*
X7620032Y-22090678D01*
X7620031Y-22090677D01*
X7570474Y-22065427D01*
X7517482Y-22038426D01*
X7513677Y-22037823D01*
X7513676Y-22037823D01*
X7403807Y-22020422D01*
X7400000Y-22019819D01*
X7396193Y-22020422D01*
X7286324Y-22037823D01*
X7286323Y-22037823D01*
X7282518Y-22038426D01*
X7229526Y-22065427D01*
X7179969Y-22090677D01*
X7179968Y-22090678D01*
X7176535Y-22092427D01*
X7092427Y-22176535D01*
X7090676Y-22179972D01*
X7089642Y-22181395D01*
X7057666Y-22200991D01*
X7021199Y-22192236D01*
X7010358Y-22181395D01*
X7009324Y-22179972D01*
X7007573Y-22176535D01*
X6923465Y-22092427D01*
X6920032Y-22090678D01*
X6920031Y-22090677D01*
X6870474Y-22065427D01*
X6817482Y-22038426D01*
X6813677Y-22037823D01*
X6813676Y-22037823D01*
X6703807Y-22020422D01*
X6700000Y-22019819D01*
X6696193Y-22020422D01*
X6586324Y-22037823D01*
X6586323Y-22037823D01*
X6582518Y-22038426D01*
X6529526Y-22065427D01*
X6479969Y-22090677D01*
X6479968Y-22090678D01*
X6476535Y-22092427D01*
X6392427Y-22176535D01*
X6390678Y-22179968D01*
X6390677Y-22179969D01*
X6384427Y-22192236D01*
X6338426Y-22282518D01*
X6319819Y-22400000D01*
X200000Y-22400000D01*
X200000Y-21150000D01*
X5369819Y-21150000D01*
X5370422Y-21153807D01*
X5387426Y-21261166D01*
X5388426Y-21267482D01*
X5412134Y-21314011D01*
X5431898Y-21352800D01*
X5442427Y-21373465D01*
X5526535Y-21457573D01*
X5529968Y-21459322D01*
X5529969Y-21459323D01*
X5565428Y-21477390D01*
X5632518Y-21511574D01*
X5636323Y-21512177D01*
X5636324Y-21512177D01*
X5746193Y-21529578D01*
X5750000Y-21530181D01*
X5753807Y-21529578D01*
X5863676Y-21512177D01*
X5863677Y-21512177D01*
X5867482Y-21511574D01*
X5934572Y-21477390D01*
X5970031Y-21459323D01*
X5970032Y-21459322D01*
X5973465Y-21457573D01*
X6057573Y-21373465D01*
X6068103Y-21352800D01*
X6087866Y-21314011D01*
X6111574Y-21267482D01*
X6112575Y-21261166D01*
X6129578Y-21153807D01*
X6130181Y-21150000D01*
X6113587Y-21045227D01*
X8913574Y-21045227D01*
X8914177Y-21049034D01*
X8929168Y-21143683D01*
X8932181Y-21162709D01*
X8933931Y-21166143D01*
X8980408Y-21257359D01*
X8986182Y-21268692D01*
X9070290Y-21352800D01*
X9073723Y-21354549D01*
X9073724Y-21354550D01*
X9104108Y-21370031D01*
X9176273Y-21406801D01*
X9180078Y-21407404D01*
X9180079Y-21407404D01*
X9289948Y-21424805D01*
X9293755Y-21425408D01*
X9297562Y-21424805D01*
X9407431Y-21407404D01*
X9407432Y-21407404D01*
X9411237Y-21406801D01*
X9483402Y-21370031D01*
X9513786Y-21354550D01*
X9513787Y-21354549D01*
X9517220Y-21352800D01*
X9601328Y-21268692D01*
X9607103Y-21257359D01*
X10822763Y-21257359D01*
X10841370Y-21374841D01*
X10895371Y-21480824D01*
X10979479Y-21564932D01*
X10982912Y-21566681D01*
X10982913Y-21566682D01*
X11032471Y-21591933D01*
X11085462Y-21618933D01*
X11089267Y-21619536D01*
X11089268Y-21619536D01*
X11199137Y-21636937D01*
X11202944Y-21637540D01*
X11206751Y-21636937D01*
X11316620Y-21619536D01*
X11316621Y-21619536D01*
X11320426Y-21618933D01*
X11373417Y-21591933D01*
X11422975Y-21566682D01*
X11422976Y-21566681D01*
X11426409Y-21564932D01*
X11510517Y-21480824D01*
X11564518Y-21374841D01*
X11583125Y-21257359D01*
X11575717Y-21210588D01*
X11565121Y-21143683D01*
X11565121Y-21143682D01*
X11564518Y-21139877D01*
X11518231Y-21049034D01*
X11512267Y-21037328D01*
X11512266Y-21037327D01*
X11510517Y-21033894D01*
X11426409Y-20949786D01*
X11422976Y-20948037D01*
X11422975Y-20948036D01*
X11373417Y-20922785D01*
X11320426Y-20895785D01*
X11316621Y-20895182D01*
X11316620Y-20895182D01*
X11206751Y-20877781D01*
X11202944Y-20877178D01*
X11199137Y-20877781D01*
X11089268Y-20895182D01*
X11089267Y-20895182D01*
X11085462Y-20895785D01*
X11032471Y-20922785D01*
X10982913Y-20948036D01*
X10982912Y-20948037D01*
X10979479Y-20949786D01*
X10895371Y-21033894D01*
X10893622Y-21037327D01*
X10893621Y-21037328D01*
X10887657Y-21049034D01*
X10841370Y-21139877D01*
X10840767Y-21143682D01*
X10840767Y-21143683D01*
X10830171Y-21210588D01*
X10822763Y-21257359D01*
X9607103Y-21257359D01*
X9653579Y-21166143D01*
X9655329Y-21162709D01*
X9658343Y-21143683D01*
X9673333Y-21049034D01*
X9673936Y-21045227D01*
X9661744Y-20968246D01*
X9655932Y-20931551D01*
X9655932Y-20931550D01*
X9655329Y-20927745D01*
X9613246Y-20845153D01*
X9603078Y-20825196D01*
X9603077Y-20825195D01*
X9601328Y-20821762D01*
X9517220Y-20737654D01*
X9513787Y-20735905D01*
X9513786Y-20735904D01*
X9464228Y-20710653D01*
X9411237Y-20683653D01*
X9407432Y-20683050D01*
X9407431Y-20683050D01*
X9297562Y-20665649D01*
X9293755Y-20665046D01*
X9289948Y-20665649D01*
X9180079Y-20683050D01*
X9180078Y-20683050D01*
X9176273Y-20683653D01*
X9123282Y-20710653D01*
X9073724Y-20735904D01*
X9073723Y-20735905D01*
X9070290Y-20737654D01*
X8986182Y-20821762D01*
X8984433Y-20825195D01*
X8984432Y-20825196D01*
X8974264Y-20845153D01*
X8932181Y-20927745D01*
X8931578Y-20931550D01*
X8931578Y-20931551D01*
X8925766Y-20968246D01*
X8913574Y-21045227D01*
X6113587Y-21045227D01*
X6111574Y-21032518D01*
X6068528Y-20948036D01*
X6059323Y-20929969D01*
X6059322Y-20929968D01*
X6057573Y-20926535D01*
X5973465Y-20842427D01*
X5970032Y-20840678D01*
X5970031Y-20840677D01*
X5920473Y-20815426D01*
X5867482Y-20788426D01*
X5863677Y-20787823D01*
X5863676Y-20787823D01*
X5753807Y-20770422D01*
X5750000Y-20769819D01*
X5746193Y-20770422D01*
X5636324Y-20787823D01*
X5636323Y-20787823D01*
X5632518Y-20788426D01*
X5579527Y-20815426D01*
X5529969Y-20840677D01*
X5529968Y-20840678D01*
X5526535Y-20842427D01*
X5442427Y-20926535D01*
X5440678Y-20929968D01*
X5440677Y-20929969D01*
X5431472Y-20948036D01*
X5388426Y-21032518D01*
X5369819Y-21150000D01*
X200000Y-21150000D01*
X200000Y-19348171D01*
X10610631Y-19348171D01*
X10629238Y-19465653D01*
X10683239Y-19571636D01*
X10767347Y-19655744D01*
X10770780Y-19657493D01*
X10770781Y-19657494D01*
X10820338Y-19682744D01*
X10873330Y-19709745D01*
X10877135Y-19710348D01*
X10877136Y-19710348D01*
X10987005Y-19727749D01*
X10990812Y-19728352D01*
X10994619Y-19727749D01*
X11104488Y-19710348D01*
X11104489Y-19710348D01*
X11108294Y-19709745D01*
X11161286Y-19682744D01*
X11210843Y-19657494D01*
X11210844Y-19657493D01*
X11214277Y-19655744D01*
X11239007Y-19631014D01*
X12590530Y-19631014D01*
X12591133Y-19634821D01*
X12605947Y-19728352D01*
X12609137Y-19748496D01*
X12663138Y-19854479D01*
X12747246Y-19938587D01*
X12750679Y-19940336D01*
X12750680Y-19940337D01*
X12800237Y-19965587D01*
X12853229Y-19992588D01*
X12857034Y-19993191D01*
X12857035Y-19993191D01*
X12966904Y-20010592D01*
X12970711Y-20011195D01*
X12974518Y-20010592D01*
X13084387Y-19993191D01*
X13084388Y-19993191D01*
X13088193Y-19992588D01*
X13141185Y-19965587D01*
X13190742Y-19940337D01*
X13190743Y-19940336D01*
X13194176Y-19938587D01*
X13278284Y-19854479D01*
X13332285Y-19748496D01*
X13335476Y-19728352D01*
X13350289Y-19634821D01*
X13350892Y-19631014D01*
X14711850Y-19631014D01*
X14712453Y-19634821D01*
X14727267Y-19728352D01*
X14730457Y-19748496D01*
X14784458Y-19854479D01*
X14868566Y-19938587D01*
X14871999Y-19940336D01*
X14872000Y-19940337D01*
X14921557Y-19965587D01*
X14974549Y-19992588D01*
X14978354Y-19993191D01*
X14978355Y-19993191D01*
X15088224Y-20010592D01*
X15092031Y-20011195D01*
X15095838Y-20010592D01*
X15205707Y-19993191D01*
X15205708Y-19993191D01*
X15209513Y-19992588D01*
X15262505Y-19965587D01*
X15312062Y-19940337D01*
X15312063Y-19940336D01*
X15315496Y-19938587D01*
X15399604Y-19854479D01*
X15453605Y-19748496D01*
X15456796Y-19728352D01*
X15471609Y-19634821D01*
X15472212Y-19631014D01*
X15453605Y-19513532D01*
X15399604Y-19407549D01*
X15315496Y-19323441D01*
X15312063Y-19321692D01*
X15312062Y-19321691D01*
X15262505Y-19296441D01*
X15209513Y-19269440D01*
X15205708Y-19268837D01*
X15205707Y-19268837D01*
X15095838Y-19251436D01*
X15092031Y-19250833D01*
X15088224Y-19251436D01*
X14978355Y-19268837D01*
X14978354Y-19268837D01*
X14974549Y-19269440D01*
X14921557Y-19296441D01*
X14872000Y-19321691D01*
X14871999Y-19321692D01*
X14868566Y-19323441D01*
X14784458Y-19407549D01*
X14730457Y-19513532D01*
X14711850Y-19631014D01*
X13350892Y-19631014D01*
X13332285Y-19513532D01*
X13278284Y-19407549D01*
X13194176Y-19323441D01*
X13190743Y-19321692D01*
X13190742Y-19321691D01*
X13141185Y-19296441D01*
X13088193Y-19269440D01*
X13084388Y-19268837D01*
X13084387Y-19268837D01*
X12974518Y-19251436D01*
X12970711Y-19250833D01*
X12966904Y-19251436D01*
X12857035Y-19268837D01*
X12857034Y-19268837D01*
X12853229Y-19269440D01*
X12800237Y-19296441D01*
X12750680Y-19321691D01*
X12750679Y-19321692D01*
X12747246Y-19323441D01*
X12663138Y-19407549D01*
X12609137Y-19513532D01*
X12590530Y-19631014D01*
X11239007Y-19631014D01*
X11298385Y-19571636D01*
X11352386Y-19465653D01*
X11370993Y-19348171D01*
X11358801Y-19271190D01*
X11352989Y-19234495D01*
X11352989Y-19234494D01*
X11352386Y-19230689D01*
X11298385Y-19124706D01*
X11223679Y-19050000D01*
X17000000Y-19050000D01*
X17400000Y-19050000D01*
X17600000Y-19050000D01*
X18000000Y-19050000D01*
X18000000Y-19000000D01*
X19319819Y-19000000D01*
X19338426Y-19117482D01*
X19392427Y-19223465D01*
X19476535Y-19307573D01*
X19479968Y-19309322D01*
X19479969Y-19309323D01*
X19513028Y-19326167D01*
X19582518Y-19361574D01*
X19586323Y-19362177D01*
X19586324Y-19362177D01*
X19696193Y-19379578D01*
X19700000Y-19380181D01*
X19703807Y-19379578D01*
X19813676Y-19362177D01*
X19813677Y-19362177D01*
X19817482Y-19361574D01*
X19886972Y-19326167D01*
X19920031Y-19309323D01*
X19920032Y-19309322D01*
X19923465Y-19307573D01*
X20007573Y-19223465D01*
X20061574Y-19117482D01*
X20080181Y-19000000D01*
X20061574Y-18882518D01*
X20007573Y-18776535D01*
X19923465Y-18692427D01*
X19920032Y-18690678D01*
X19920031Y-18690677D01*
X19870473Y-18665426D01*
X19817482Y-18638426D01*
X19813677Y-18637823D01*
X19813676Y-18637823D01*
X19703807Y-18620422D01*
X19700000Y-18619819D01*
X19696193Y-18620422D01*
X19586324Y-18637823D01*
X19586323Y-18637823D01*
X19582518Y-18638426D01*
X19529527Y-18665426D01*
X19479969Y-18690677D01*
X19479968Y-18690678D01*
X19476535Y-18692427D01*
X19392427Y-18776535D01*
X19338426Y-18882518D01*
X19319819Y-19000000D01*
X18000000Y-19000000D01*
X18000000Y-17950000D01*
X17600000Y-17950000D01*
X17600000Y-19050000D01*
X17400000Y-19050000D01*
X17400000Y-17950000D01*
X17000000Y-17950000D01*
X17000000Y-19050000D01*
X11223679Y-19050000D01*
X11214277Y-19040598D01*
X11210844Y-19038849D01*
X11210843Y-19038848D01*
X11149462Y-19007573D01*
X11108294Y-18986597D01*
X11104489Y-18985994D01*
X11104488Y-18985994D01*
X10994619Y-18968593D01*
X10990812Y-18967990D01*
X10987005Y-18968593D01*
X10877136Y-18985994D01*
X10877135Y-18985994D01*
X10873330Y-18986597D01*
X10832162Y-19007573D01*
X10770781Y-19038848D01*
X10770780Y-19038849D01*
X10767347Y-19040598D01*
X10683239Y-19124706D01*
X10629238Y-19230689D01*
X10628635Y-19234494D01*
X10628635Y-19234495D01*
X10622823Y-19271190D01*
X10610631Y-19348171D01*
X200000Y-19348171D01*
X200000Y-18700000D01*
X5119819Y-18700000D01*
X5138426Y-18817482D01*
X5192427Y-18923465D01*
X5276535Y-19007573D01*
X5279968Y-19009322D01*
X5279969Y-19009323D01*
X5329527Y-19034574D01*
X5382518Y-19061574D01*
X5386323Y-19062177D01*
X5386324Y-19062177D01*
X5496193Y-19079578D01*
X5500000Y-19080181D01*
X5503807Y-19079578D01*
X5613676Y-19062177D01*
X5613677Y-19062177D01*
X5617482Y-19061574D01*
X5670473Y-19034574D01*
X5720031Y-19009323D01*
X5720032Y-19009322D01*
X5723465Y-19007573D01*
X5765352Y-18965686D01*
X5800000Y-18951334D01*
X5834648Y-18965686D01*
X5876535Y-19007573D01*
X5879968Y-19009322D01*
X5879969Y-19009323D01*
X5929527Y-19034574D01*
X5982518Y-19061574D01*
X5986323Y-19062177D01*
X5986324Y-19062177D01*
X6096193Y-19079578D01*
X6100000Y-19080181D01*
X6103807Y-19079578D01*
X6213676Y-19062177D01*
X6213677Y-19062177D01*
X6217482Y-19061574D01*
X6270473Y-19034574D01*
X6320031Y-19009323D01*
X6320032Y-19009322D01*
X6323465Y-19007573D01*
X6365352Y-18965686D01*
X6400000Y-18951334D01*
X6434648Y-18965686D01*
X6476535Y-19007573D01*
X6479968Y-19009322D01*
X6479969Y-19009323D01*
X6529527Y-19034574D01*
X6582518Y-19061574D01*
X6586323Y-19062177D01*
X6586324Y-19062177D01*
X6696193Y-19079578D01*
X6700000Y-19080181D01*
X6703807Y-19079578D01*
X6813676Y-19062177D01*
X6813677Y-19062177D01*
X6817482Y-19061574D01*
X6870473Y-19034574D01*
X6920031Y-19009323D01*
X6920032Y-19009322D01*
X6923465Y-19007573D01*
X7007573Y-18923465D01*
X7061574Y-18817482D01*
X7080181Y-18700000D01*
X7061574Y-18582518D01*
X7007573Y-18476535D01*
X6923465Y-18392427D01*
X6920032Y-18390678D01*
X6920031Y-18390677D01*
X6870473Y-18365426D01*
X6817482Y-18338426D01*
X6813677Y-18337823D01*
X6813676Y-18337823D01*
X6703807Y-18320422D01*
X6700000Y-18319819D01*
X6696193Y-18320422D01*
X6586324Y-18337823D01*
X6586323Y-18337823D01*
X6582518Y-18338426D01*
X6529527Y-18365426D01*
X6479969Y-18390677D01*
X6479968Y-18390678D01*
X6476535Y-18392427D01*
X6434648Y-18434314D01*
X6400000Y-18448666D01*
X6365352Y-18434314D01*
X6323465Y-18392427D01*
X6320032Y-18390678D01*
X6320031Y-18390677D01*
X6270473Y-18365426D01*
X6217482Y-18338426D01*
X6213677Y-18337823D01*
X6213676Y-18337823D01*
X6103807Y-18320422D01*
X6100000Y-18319819D01*
X6096193Y-18320422D01*
X5986324Y-18337823D01*
X5986323Y-18337823D01*
X5982518Y-18338426D01*
X5929527Y-18365426D01*
X5879969Y-18390677D01*
X5879968Y-18390678D01*
X5876535Y-18392427D01*
X5834648Y-18434314D01*
X5800000Y-18448666D01*
X5765352Y-18434314D01*
X5723465Y-18392427D01*
X5720032Y-18390678D01*
X5720031Y-18390677D01*
X5670473Y-18365426D01*
X5617482Y-18338426D01*
X5613677Y-18337823D01*
X5613676Y-18337823D01*
X5503807Y-18320422D01*
X5500000Y-18319819D01*
X5496193Y-18320422D01*
X5386324Y-18337823D01*
X5386323Y-18337823D01*
X5382518Y-18338426D01*
X5329527Y-18365426D01*
X5279969Y-18390677D01*
X5279968Y-18390678D01*
X5276535Y-18392427D01*
X5192427Y-18476535D01*
X5138426Y-18582518D01*
X5119819Y-18700000D01*
X200000Y-18700000D01*
X200000Y-17950000D01*
X7999999Y-17950000D01*
X8399999Y-17950000D01*
X8600000Y-17950000D01*
X9000000Y-17950000D01*
X9000000Y-17571753D01*
X10093934Y-17571753D01*
X10376777Y-17854596D01*
X10981373Y-17249999D01*
X15500000Y-17249999D01*
X15900000Y-17249999D01*
X16100000Y-17249999D01*
X16500000Y-17249999D01*
X16500000Y-16149999D01*
X16100000Y-16149999D01*
X16100000Y-17249999D01*
X15900000Y-17249999D01*
X15900000Y-16149999D01*
X15500000Y-16149999D01*
X15500000Y-17249999D01*
X10981373Y-17249999D01*
X11154594Y-17076778D01*
X10871751Y-16793935D01*
X10093934Y-17571753D01*
X9000000Y-17571753D01*
X9000000Y-17147488D01*
X9669669Y-17147488D01*
X9952512Y-17430331D01*
X10730329Y-16652513D01*
X10447487Y-16369671D01*
X9669669Y-17147488D01*
X9000000Y-17147488D01*
X9000000Y-16850000D01*
X8600000Y-16850000D01*
X8600000Y-17950000D01*
X8399999Y-17950000D01*
X8399999Y-16850000D01*
X7999999Y-16850000D01*
X7999999Y-17950000D01*
X200000Y-17950000D01*
X200000Y-12205545D01*
X8225364Y-12205545D01*
X8243971Y-12323027D01*
X8297972Y-12429010D01*
X8382080Y-12513118D01*
X8385513Y-12514867D01*
X8385514Y-12514868D01*
X8435072Y-12540119D01*
X8488063Y-12567119D01*
X8491868Y-12567722D01*
X8491869Y-12567722D01*
X8521036Y-12572341D01*
X8577919Y-12581351D01*
X8609895Y-12600945D01*
X8618649Y-12622080D01*
X8632881Y-12711937D01*
X8686882Y-12817920D01*
X8770990Y-12902028D01*
X8774423Y-12903777D01*
X8774424Y-12903778D01*
X8823982Y-12929029D01*
X8876973Y-12956029D01*
X8880778Y-12956632D01*
X8880779Y-12956632D01*
X8990648Y-12974033D01*
X8994455Y-12974636D01*
X8998262Y-12974033D01*
X9108131Y-12956632D01*
X9108132Y-12956632D01*
X9111937Y-12956029D01*
X9164928Y-12929029D01*
X9214486Y-12903778D01*
X9214487Y-12903777D01*
X9217920Y-12902028D01*
X9302028Y-12817920D01*
X9356029Y-12711937D01*
X9374636Y-12594455D01*
X15125364Y-12594455D01*
X15143971Y-12711937D01*
X15197972Y-12817920D01*
X15282080Y-12902028D01*
X15285513Y-12903777D01*
X15285514Y-12903778D01*
X15335072Y-12929029D01*
X15388063Y-12956029D01*
X15391868Y-12956632D01*
X15391869Y-12956632D01*
X15501738Y-12974033D01*
X15505545Y-12974636D01*
X15509352Y-12974033D01*
X15619221Y-12956632D01*
X15619222Y-12956632D01*
X15623027Y-12956029D01*
X15676018Y-12929029D01*
X15725576Y-12903778D01*
X15725577Y-12903777D01*
X15729010Y-12902028D01*
X15813118Y-12817920D01*
X15867119Y-12711937D01*
X15881351Y-12622081D01*
X15900945Y-12590105D01*
X15922080Y-12581351D01*
X15978964Y-12572341D01*
X16008131Y-12567722D01*
X16008132Y-12567722D01*
X16011937Y-12567119D01*
X16064929Y-12540118D01*
X16114486Y-12514868D01*
X16114487Y-12514867D01*
X16117920Y-12513118D01*
X16202028Y-12429010D01*
X16256029Y-12323027D01*
X16274636Y-12205545D01*
X16256029Y-12088063D01*
X16215017Y-12007573D01*
X16203778Y-11985514D01*
X16203777Y-11985513D01*
X16202028Y-11982080D01*
X16117920Y-11897972D01*
X16114487Y-11896223D01*
X16114486Y-11896222D01*
X16064928Y-11870971D01*
X16011937Y-11843971D01*
X16008132Y-11843368D01*
X16008131Y-11843368D01*
X15898262Y-11825967D01*
X15894455Y-11825364D01*
X15890648Y-11825967D01*
X15780779Y-11843368D01*
X15780778Y-11843368D01*
X15776973Y-11843971D01*
X15723982Y-11870971D01*
X15674424Y-11896222D01*
X15674423Y-11896223D01*
X15670990Y-11897972D01*
X15586882Y-11982080D01*
X15585133Y-11985513D01*
X15585132Y-11985514D01*
X15573893Y-12007573D01*
X15532881Y-12088063D01*
X15532278Y-12091868D01*
X15532278Y-12091869D01*
X15518650Y-12177918D01*
X15499055Y-12209895D01*
X15477920Y-12218649D01*
X15421036Y-12227659D01*
X15391869Y-12232278D01*
X15391868Y-12232278D01*
X15388063Y-12232881D01*
X15335072Y-12259881D01*
X15285514Y-12285132D01*
X15285513Y-12285133D01*
X15282080Y-12286882D01*
X15197972Y-12370990D01*
X15143971Y-12476973D01*
X15125364Y-12594455D01*
X9374636Y-12594455D01*
X9356029Y-12476973D01*
X9302028Y-12370990D01*
X9217920Y-12286882D01*
X9214487Y-12285133D01*
X9214486Y-12285132D01*
X9164928Y-12259881D01*
X9111937Y-12232881D01*
X9108132Y-12232278D01*
X9108131Y-12232278D01*
X9078964Y-12227659D01*
X9022081Y-12218649D01*
X8990105Y-12199055D01*
X8981350Y-12177918D01*
X8967722Y-12091869D01*
X8967722Y-12091868D01*
X8967119Y-12088063D01*
X8926107Y-12007573D01*
X8914868Y-11985514D01*
X8914867Y-11985513D01*
X8913118Y-11982080D01*
X8829010Y-11897972D01*
X8825577Y-11896223D01*
X8825576Y-11896222D01*
X8776018Y-11870971D01*
X8723027Y-11843971D01*
X8719222Y-11843368D01*
X8719221Y-11843368D01*
X8609352Y-11825967D01*
X8605545Y-11825364D01*
X8601738Y-11825967D01*
X8491869Y-11843368D01*
X8491868Y-11843368D01*
X8488063Y-11843971D01*
X8435072Y-11870971D01*
X8385514Y-11896222D01*
X8385513Y-11896223D01*
X8382080Y-11897972D01*
X8297972Y-11982080D01*
X8296223Y-11985513D01*
X8296222Y-11985514D01*
X8284983Y-12007573D01*
X8243971Y-12088063D01*
X8225364Y-12205545D01*
X200000Y-12205545D01*
X200000Y-11700000D01*
X1969819Y-11700000D01*
X1988426Y-11817482D01*
X2015427Y-11870474D01*
X2030827Y-11900698D01*
X2042427Y-11923465D01*
X2126535Y-12007573D01*
X2129968Y-12009322D01*
X2129969Y-12009323D01*
X2179526Y-12034573D01*
X2232518Y-12061574D01*
X2236323Y-12062177D01*
X2236324Y-12062177D01*
X2346193Y-12079578D01*
X2350000Y-12080181D01*
X2353807Y-12079578D01*
X2463676Y-12062177D01*
X2463677Y-12062177D01*
X2467482Y-12061574D01*
X2520474Y-12034573D01*
X2570031Y-12009323D01*
X2570032Y-12009322D01*
X2573465Y-12007573D01*
X2657573Y-11923465D01*
X2669174Y-11900698D01*
X2684573Y-11870474D01*
X2711574Y-11817482D01*
X2730181Y-11700000D01*
X2711574Y-11582518D01*
X2657573Y-11476535D01*
X2573465Y-11392427D01*
X2570032Y-11390678D01*
X2570031Y-11390677D01*
X2520473Y-11365426D01*
X2467482Y-11338426D01*
X2463677Y-11337823D01*
X2463676Y-11337823D01*
X2353807Y-11320422D01*
X2350000Y-11319819D01*
X2346193Y-11320422D01*
X2236324Y-11337823D01*
X2236323Y-11337823D01*
X2232518Y-11338426D01*
X2179527Y-11365426D01*
X2129969Y-11390677D01*
X2129968Y-11390678D01*
X2126535Y-11392427D01*
X2042427Y-11476535D01*
X1988426Y-11582518D01*
X1969819Y-11700000D01*
X200000Y-11700000D01*
X200000Y-11294455D01*
X8225364Y-11294455D01*
X8243971Y-11411937D01*
X8297972Y-11517920D01*
X8382080Y-11602028D01*
X8385513Y-11603777D01*
X8385514Y-11603778D01*
X8435072Y-11629029D01*
X8488063Y-11656029D01*
X8491868Y-11656632D01*
X8491869Y-11656632D01*
X8601738Y-11674033D01*
X8605545Y-11674636D01*
X8609352Y-11674033D01*
X8719221Y-11656632D01*
X8719222Y-11656632D01*
X8723027Y-11656029D01*
X8776018Y-11629029D01*
X8825576Y-11603778D01*
X8825577Y-11603777D01*
X8829010Y-11602028D01*
X8913118Y-11517920D01*
X8967119Y-11411937D01*
X8981351Y-11322081D01*
X9000945Y-11290105D01*
X9022080Y-11281351D01*
X9078964Y-11272341D01*
X9108131Y-11267722D01*
X9108132Y-11267722D01*
X9111937Y-11267119D01*
X9164928Y-11240119D01*
X9214486Y-11214868D01*
X9214487Y-11214867D01*
X9217920Y-11213118D01*
X9302028Y-11129010D01*
X9306644Y-11119952D01*
X9354279Y-11026461D01*
X9356029Y-11023027D01*
X9374636Y-10905545D01*
X9359880Y-10812379D01*
X10844819Y-10812379D01*
X10845422Y-10816186D01*
X10861218Y-10915917D01*
X10863426Y-10929861D01*
X10890427Y-10982853D01*
X10912509Y-11026191D01*
X10917427Y-11035844D01*
X11001535Y-11119952D01*
X11004968Y-11121701D01*
X11004969Y-11121702D01*
X11019312Y-11129010D01*
X11107518Y-11173953D01*
X11111323Y-11174556D01*
X11111324Y-11174556D01*
X11221193Y-11191957D01*
X11225000Y-11192560D01*
X11228807Y-11191957D01*
X11338676Y-11174556D01*
X11338677Y-11174556D01*
X11342482Y-11173953D01*
X11430688Y-11129010D01*
X11445031Y-11121702D01*
X11445032Y-11121701D01*
X11448465Y-11119952D01*
X11465352Y-11103065D01*
X11500000Y-11088713D01*
X11534648Y-11103065D01*
X11551535Y-11119952D01*
X11554968Y-11121701D01*
X11554969Y-11121702D01*
X11569312Y-11129010D01*
X11657518Y-11173953D01*
X11661323Y-11174556D01*
X11661324Y-11174556D01*
X11771193Y-11191957D01*
X11775000Y-11192560D01*
X11778807Y-11191957D01*
X11888676Y-11174556D01*
X11888677Y-11174556D01*
X11892482Y-11173953D01*
X11980688Y-11129010D01*
X11995031Y-11121702D01*
X11995032Y-11121701D01*
X11998465Y-11119952D01*
X12082573Y-11035844D01*
X12087492Y-11026191D01*
X12109573Y-10982853D01*
X12136574Y-10929861D01*
X12138783Y-10915917D01*
X12154578Y-10816186D01*
X12155181Y-10812379D01*
X12344819Y-10812379D01*
X12345422Y-10816186D01*
X12361218Y-10915917D01*
X12363426Y-10929861D01*
X12390427Y-10982853D01*
X12412509Y-11026191D01*
X12417427Y-11035844D01*
X12501535Y-11119952D01*
X12504968Y-11121701D01*
X12504969Y-11121702D01*
X12519312Y-11129010D01*
X12607518Y-11173953D01*
X12611323Y-11174556D01*
X12611324Y-11174556D01*
X12721193Y-11191957D01*
X12725000Y-11192560D01*
X12728807Y-11191957D01*
X12838676Y-11174556D01*
X12838677Y-11174556D01*
X12842482Y-11173953D01*
X12930688Y-11129010D01*
X12945031Y-11121702D01*
X12945032Y-11121701D01*
X12948465Y-11119952D01*
X12965352Y-11103065D01*
X13000000Y-11088713D01*
X13034648Y-11103065D01*
X13051535Y-11119952D01*
X13054968Y-11121701D01*
X13054969Y-11121702D01*
X13069312Y-11129010D01*
X13157518Y-11173953D01*
X13161323Y-11174556D01*
X13161324Y-11174556D01*
X13271193Y-11191957D01*
X13275000Y-11192560D01*
X13278807Y-11191957D01*
X13388676Y-11174556D01*
X13388677Y-11174556D01*
X13392482Y-11173953D01*
X13480688Y-11129010D01*
X13495031Y-11121702D01*
X13495032Y-11121701D01*
X13498465Y-11119952D01*
X13582573Y-11035844D01*
X13587492Y-11026191D01*
X13609573Y-10982853D01*
X13636574Y-10929861D01*
X13638783Y-10915917D01*
X13640426Y-10905545D01*
X15125364Y-10905545D01*
X15143971Y-11023027D01*
X15145721Y-11026461D01*
X15193357Y-11119952D01*
X15197972Y-11129010D01*
X15282080Y-11213118D01*
X15285513Y-11214867D01*
X15285514Y-11214868D01*
X15335072Y-11240119D01*
X15388063Y-11267119D01*
X15391868Y-11267722D01*
X15391869Y-11267722D01*
X15421036Y-11272341D01*
X15477919Y-11281351D01*
X15509895Y-11300945D01*
X15518649Y-11322080D01*
X15532881Y-11411937D01*
X15586882Y-11517920D01*
X15670990Y-11602028D01*
X15674423Y-11603777D01*
X15674424Y-11603778D01*
X15723982Y-11629029D01*
X15776973Y-11656029D01*
X15780778Y-11656632D01*
X15780779Y-11656632D01*
X15890648Y-11674033D01*
X15894455Y-11674636D01*
X15898262Y-11674033D01*
X16008131Y-11656632D01*
X16008132Y-11656632D01*
X16011937Y-11656029D01*
X16064929Y-11629028D01*
X16114486Y-11603778D01*
X16114487Y-11603777D01*
X16117920Y-11602028D01*
X16202028Y-11517920D01*
X16256029Y-11411937D01*
X16274636Y-11294455D01*
X16256029Y-11176973D01*
X16212064Y-11090686D01*
X16203778Y-11074424D01*
X16203777Y-11074423D01*
X16202028Y-11070990D01*
X16117920Y-10986882D01*
X16114487Y-10985133D01*
X16114486Y-10985132D01*
X16064928Y-10959881D01*
X16011937Y-10932881D01*
X16008132Y-10932278D01*
X16008131Y-10932278D01*
X15978964Y-10927659D01*
X15922081Y-10918649D01*
X15890105Y-10899055D01*
X15881350Y-10877918D01*
X15870970Y-10812379D01*
X16844819Y-10812379D01*
X16845422Y-10816186D01*
X16861218Y-10915917D01*
X16863426Y-10929861D01*
X16890427Y-10982853D01*
X16912509Y-11026191D01*
X16917427Y-11035844D01*
X17001535Y-11119952D01*
X17004968Y-11121701D01*
X17004969Y-11121702D01*
X17019312Y-11129010D01*
X17107518Y-11173953D01*
X17111323Y-11174556D01*
X17111324Y-11174556D01*
X17221193Y-11191957D01*
X17225000Y-11192560D01*
X17228807Y-11191957D01*
X17338676Y-11174556D01*
X17338677Y-11174556D01*
X17342482Y-11173953D01*
X17430688Y-11129010D01*
X17445031Y-11121702D01*
X17445032Y-11121701D01*
X17448465Y-11119952D01*
X17465352Y-11103065D01*
X17500000Y-11088713D01*
X17534648Y-11103065D01*
X17551535Y-11119952D01*
X17554968Y-11121701D01*
X17554969Y-11121702D01*
X17569312Y-11129010D01*
X17657518Y-11173953D01*
X17661323Y-11174556D01*
X17661324Y-11174556D01*
X17771193Y-11191957D01*
X17775000Y-11192560D01*
X17778807Y-11191957D01*
X17888676Y-11174556D01*
X17888677Y-11174556D01*
X17892482Y-11173953D01*
X17980688Y-11129010D01*
X17995031Y-11121702D01*
X17995032Y-11121701D01*
X17998465Y-11119952D01*
X18082573Y-11035844D01*
X18087492Y-11026191D01*
X18109573Y-10982853D01*
X18136574Y-10929861D01*
X18138783Y-10915917D01*
X18154578Y-10816186D01*
X18155181Y-10812379D01*
X18344819Y-10812379D01*
X18345422Y-10816186D01*
X18361218Y-10915917D01*
X18363426Y-10929861D01*
X18390427Y-10982853D01*
X18412509Y-11026191D01*
X18417427Y-11035844D01*
X18501535Y-11119952D01*
X18504968Y-11121701D01*
X18504969Y-11121702D01*
X18519312Y-11129010D01*
X18607518Y-11173953D01*
X18611323Y-11174556D01*
X18611324Y-11174556D01*
X18721193Y-11191957D01*
X18725000Y-11192560D01*
X18728807Y-11191957D01*
X18838676Y-11174556D01*
X18838677Y-11174556D01*
X18842482Y-11173953D01*
X18930688Y-11129010D01*
X18945031Y-11121702D01*
X18945032Y-11121701D01*
X18948465Y-11119952D01*
X18965352Y-11103065D01*
X19000000Y-11088713D01*
X19034648Y-11103065D01*
X19051535Y-11119952D01*
X19054968Y-11121701D01*
X19054969Y-11121702D01*
X19069312Y-11129010D01*
X19157518Y-11173953D01*
X19161323Y-11174556D01*
X19161324Y-11174556D01*
X19271193Y-11191957D01*
X19275000Y-11192560D01*
X19278807Y-11191957D01*
X19388676Y-11174556D01*
X19388677Y-11174556D01*
X19392482Y-11173953D01*
X19480688Y-11129010D01*
X19495031Y-11121702D01*
X19495032Y-11121701D01*
X19498465Y-11119952D01*
X19582573Y-11035844D01*
X19587492Y-11026191D01*
X19609573Y-10982853D01*
X19636574Y-10929861D01*
X19638783Y-10915917D01*
X19654578Y-10816186D01*
X19655181Y-10812379D01*
X19636574Y-10694897D01*
X19588577Y-10600698D01*
X19584323Y-10592348D01*
X19584322Y-10592347D01*
X19582573Y-10588914D01*
X19498465Y-10504806D01*
X19495032Y-10503057D01*
X19495031Y-10503056D01*
X19445474Y-10477806D01*
X19392482Y-10450805D01*
X19388677Y-10450202D01*
X19388676Y-10450202D01*
X19278807Y-10432801D01*
X19275000Y-10432198D01*
X19271193Y-10432801D01*
X19161324Y-10450202D01*
X19161323Y-10450202D01*
X19157518Y-10450805D01*
X19104527Y-10477805D01*
X19054969Y-10503056D01*
X19054968Y-10503057D01*
X19051535Y-10504806D01*
X19034648Y-10521693D01*
X19000000Y-10536045D01*
X18965352Y-10521693D01*
X18948465Y-10504806D01*
X18945032Y-10503057D01*
X18945031Y-10503056D01*
X18895474Y-10477806D01*
X18842482Y-10450805D01*
X18838677Y-10450202D01*
X18838676Y-10450202D01*
X18728807Y-10432801D01*
X18725000Y-10432198D01*
X18721193Y-10432801D01*
X18611324Y-10450202D01*
X18611323Y-10450202D01*
X18607518Y-10450805D01*
X18554527Y-10477805D01*
X18504969Y-10503056D01*
X18504968Y-10503057D01*
X18501535Y-10504806D01*
X18417427Y-10588914D01*
X18415678Y-10592347D01*
X18415677Y-10592348D01*
X18411423Y-10600698D01*
X18363426Y-10694897D01*
X18344819Y-10812379D01*
X18155181Y-10812379D01*
X18136574Y-10694897D01*
X18088577Y-10600698D01*
X18084323Y-10592348D01*
X18084322Y-10592347D01*
X18082573Y-10588914D01*
X17998465Y-10504806D01*
X17995032Y-10503057D01*
X17995031Y-10503056D01*
X17945474Y-10477806D01*
X17892482Y-10450805D01*
X17888677Y-10450202D01*
X17888676Y-10450202D01*
X17778807Y-10432801D01*
X17775000Y-10432198D01*
X17771193Y-10432801D01*
X17661324Y-10450202D01*
X17661323Y-10450202D01*
X17657518Y-10450805D01*
X17604527Y-10477805D01*
X17554969Y-10503056D01*
X17554968Y-10503057D01*
X17551535Y-10504806D01*
X17534648Y-10521693D01*
X17500000Y-10536045D01*
X17465352Y-10521693D01*
X17448465Y-10504806D01*
X17445032Y-10503057D01*
X17445031Y-10503056D01*
X17395474Y-10477806D01*
X17342482Y-10450805D01*
X17338677Y-10450202D01*
X17338676Y-10450202D01*
X17228807Y-10432801D01*
X17225000Y-10432198D01*
X17221193Y-10432801D01*
X17111324Y-10450202D01*
X17111323Y-10450202D01*
X17107518Y-10450805D01*
X17054527Y-10477805D01*
X17004969Y-10503056D01*
X17004968Y-10503057D01*
X17001535Y-10504806D01*
X16917427Y-10588914D01*
X16915678Y-10592347D01*
X16915677Y-10592348D01*
X16911423Y-10600698D01*
X16863426Y-10694897D01*
X16844819Y-10812379D01*
X15870970Y-10812379D01*
X15867722Y-10791869D01*
X15867722Y-10791868D01*
X15867119Y-10788063D01*
X15817899Y-10691463D01*
X15814868Y-10685514D01*
X15814867Y-10685513D01*
X15813118Y-10682080D01*
X15729010Y-10597972D01*
X15725577Y-10596223D01*
X15725576Y-10596222D01*
X15676018Y-10570971D01*
X15623027Y-10543971D01*
X15619222Y-10543368D01*
X15619221Y-10543368D01*
X15509352Y-10525967D01*
X15505545Y-10525364D01*
X15501738Y-10525967D01*
X15391869Y-10543368D01*
X15391868Y-10543368D01*
X15388063Y-10543971D01*
X15335072Y-10570971D01*
X15285514Y-10596222D01*
X15285513Y-10596223D01*
X15282080Y-10597972D01*
X15197972Y-10682080D01*
X15196223Y-10685513D01*
X15196222Y-10685514D01*
X15193191Y-10691463D01*
X15143971Y-10788063D01*
X15125364Y-10905545D01*
X13640426Y-10905545D01*
X13654578Y-10816186D01*
X13655181Y-10812379D01*
X13636574Y-10694897D01*
X13588577Y-10600698D01*
X13584323Y-10592348D01*
X13584322Y-10592347D01*
X13582573Y-10588914D01*
X13498465Y-10504806D01*
X13495032Y-10503057D01*
X13495031Y-10503056D01*
X13445474Y-10477806D01*
X13392482Y-10450805D01*
X13388677Y-10450202D01*
X13388676Y-10450202D01*
X13278807Y-10432801D01*
X13275000Y-10432198D01*
X13271193Y-10432801D01*
X13161324Y-10450202D01*
X13161323Y-10450202D01*
X13157518Y-10450805D01*
X13104527Y-10477805D01*
X13054969Y-10503056D01*
X13054968Y-10503057D01*
X13051535Y-10504806D01*
X13034648Y-10521693D01*
X13000000Y-10536045D01*
X12965352Y-10521693D01*
X12948465Y-10504806D01*
X12945032Y-10503057D01*
X12945031Y-10503056D01*
X12895474Y-10477806D01*
X12842482Y-10450805D01*
X12838677Y-10450202D01*
X12838676Y-10450202D01*
X12728807Y-10432801D01*
X12725000Y-10432198D01*
X12721193Y-10432801D01*
X12611324Y-10450202D01*
X12611323Y-10450202D01*
X12607518Y-10450805D01*
X12554526Y-10477806D01*
X12504969Y-10503056D01*
X12504968Y-10503057D01*
X12501535Y-10504806D01*
X12417427Y-10588914D01*
X12415678Y-10592347D01*
X12415677Y-10592348D01*
X12411423Y-10600698D01*
X12363426Y-10694897D01*
X12344819Y-10812379D01*
X12155181Y-10812379D01*
X12136574Y-10694897D01*
X12088577Y-10600698D01*
X12084323Y-10592348D01*
X12084322Y-10592347D01*
X12082573Y-10588914D01*
X11998465Y-10504806D01*
X11995032Y-10503057D01*
X11995031Y-10503056D01*
X11945474Y-10477806D01*
X11892482Y-10450805D01*
X11888677Y-10450202D01*
X11888676Y-10450202D01*
X11778807Y-10432801D01*
X11775000Y-10432198D01*
X11771193Y-10432801D01*
X11661324Y-10450202D01*
X11661323Y-10450202D01*
X11657518Y-10450805D01*
X11604526Y-10477806D01*
X11554969Y-10503056D01*
X11554968Y-10503057D01*
X11551535Y-10504806D01*
X11534648Y-10521693D01*
X11500000Y-10536045D01*
X11465352Y-10521693D01*
X11448465Y-10504806D01*
X11445032Y-10503057D01*
X11445031Y-10503056D01*
X11395474Y-10477806D01*
X11342482Y-10450805D01*
X11338677Y-10450202D01*
X11338676Y-10450202D01*
X11228807Y-10432801D01*
X11225000Y-10432198D01*
X11221193Y-10432801D01*
X11111324Y-10450202D01*
X11111323Y-10450202D01*
X11107518Y-10450805D01*
X11054526Y-10477806D01*
X11004969Y-10503056D01*
X11004968Y-10503057D01*
X11001535Y-10504806D01*
X10917427Y-10588914D01*
X10915678Y-10592347D01*
X10915677Y-10592348D01*
X10911423Y-10600698D01*
X10863426Y-10694897D01*
X10844819Y-10812379D01*
X9359880Y-10812379D01*
X9356029Y-10788063D01*
X9306809Y-10691463D01*
X9303778Y-10685514D01*
X9303777Y-10685513D01*
X9302028Y-10682080D01*
X9217920Y-10597972D01*
X9214487Y-10596223D01*
X9214486Y-10596222D01*
X9164928Y-10570971D01*
X9111937Y-10543971D01*
X9108132Y-10543368D01*
X9108131Y-10543368D01*
X8998262Y-10525967D01*
X8994455Y-10525364D01*
X8990648Y-10525967D01*
X8880779Y-10543368D01*
X8880778Y-10543368D01*
X8876973Y-10543971D01*
X8823982Y-10570971D01*
X8774424Y-10596222D01*
X8774423Y-10596223D01*
X8770990Y-10597972D01*
X8686882Y-10682080D01*
X8685133Y-10685513D01*
X8685132Y-10685514D01*
X8682101Y-10691463D01*
X8632881Y-10788063D01*
X8632278Y-10791868D01*
X8632278Y-10791869D01*
X8618650Y-10877918D01*
X8599055Y-10909895D01*
X8577920Y-10918649D01*
X8521036Y-10927659D01*
X8491869Y-10932278D01*
X8491868Y-10932278D01*
X8488063Y-10932881D01*
X8435072Y-10959881D01*
X8385514Y-10985132D01*
X8385513Y-10985133D01*
X8382080Y-10986882D01*
X8297972Y-11070990D01*
X8296223Y-11074423D01*
X8296222Y-11074424D01*
X8287936Y-11090686D01*
X8243971Y-11176973D01*
X8225364Y-11294455D01*
X200000Y-11294455D01*
X200000Y-10800000D01*
X6344819Y-10800000D01*
X6345422Y-10803807D01*
X6360508Y-10899055D01*
X6363426Y-10917482D01*
X6370965Y-10932278D01*
X6415265Y-11019221D01*
X6417427Y-11023465D01*
X6501535Y-11107573D01*
X6504968Y-11109322D01*
X6504969Y-11109323D01*
X6548958Y-11131736D01*
X6607518Y-11161574D01*
X6611323Y-11162177D01*
X6611324Y-11162177D01*
X6721193Y-11179578D01*
X6725000Y-11180181D01*
X6728807Y-11179578D01*
X6838676Y-11162177D01*
X6838677Y-11162177D01*
X6842482Y-11161574D01*
X6901042Y-11131736D01*
X6945031Y-11109323D01*
X6945032Y-11109322D01*
X6948465Y-11107573D01*
X6965352Y-11090686D01*
X7000000Y-11076334D01*
X7034648Y-11090686D01*
X7051535Y-11107573D01*
X7054968Y-11109322D01*
X7054969Y-11109323D01*
X7098958Y-11131736D01*
X7157518Y-11161574D01*
X7161323Y-11162177D01*
X7161324Y-11162177D01*
X7271193Y-11179578D01*
X7275000Y-11180181D01*
X7278807Y-11179578D01*
X7388676Y-11162177D01*
X7388677Y-11162177D01*
X7392482Y-11161574D01*
X7451042Y-11131736D01*
X7495031Y-11109323D01*
X7495032Y-11109322D01*
X7498465Y-11107573D01*
X7582573Y-11023465D01*
X7584736Y-11019221D01*
X7629035Y-10932278D01*
X7636574Y-10917482D01*
X7639493Y-10899055D01*
X7654578Y-10803807D01*
X7655181Y-10800000D01*
X7651618Y-10777504D01*
X7637177Y-10686324D01*
X7637177Y-10686323D01*
X7636574Y-10682518D01*
X7590630Y-10592348D01*
X7584323Y-10579969D01*
X7584322Y-10579968D01*
X7582573Y-10576535D01*
X7498465Y-10492427D01*
X7495032Y-10490678D01*
X7495031Y-10490677D01*
X7445473Y-10465426D01*
X7392482Y-10438426D01*
X7388677Y-10437823D01*
X7388676Y-10437823D01*
X7278807Y-10420422D01*
X7275000Y-10419819D01*
X7271193Y-10420422D01*
X7161324Y-10437823D01*
X7161323Y-10437823D01*
X7157518Y-10438426D01*
X7104527Y-10465426D01*
X7054969Y-10490677D01*
X7054968Y-10490678D01*
X7051535Y-10492427D01*
X7034648Y-10509314D01*
X7000000Y-10523666D01*
X6965352Y-10509314D01*
X6948465Y-10492427D01*
X6945032Y-10490678D01*
X6945031Y-10490677D01*
X6895473Y-10465426D01*
X6842482Y-10438426D01*
X6838677Y-10437823D01*
X6838676Y-10437823D01*
X6728807Y-10420422D01*
X6725000Y-10419819D01*
X6721193Y-10420422D01*
X6611324Y-10437823D01*
X6611323Y-10437823D01*
X6607518Y-10438426D01*
X6554527Y-10465426D01*
X6504969Y-10490677D01*
X6504968Y-10490678D01*
X6501535Y-10492427D01*
X6417427Y-10576535D01*
X6415678Y-10579968D01*
X6415677Y-10579969D01*
X6409370Y-10592348D01*
X6363426Y-10682518D01*
X6362823Y-10686323D01*
X6362823Y-10686324D01*
X6348382Y-10777504D01*
X6344819Y-10800000D01*
X200000Y-10800000D01*
X200000Y-9850233D01*
X300000Y-9850233D01*
X600000Y-9850233D01*
X1800000Y-9850233D01*
X2100000Y-9850233D01*
X3300000Y-9850233D01*
X3600000Y-9850233D01*
X4800000Y-9850233D01*
X5100000Y-9850233D01*
X5100000Y-9850000D01*
X5300000Y-9850000D01*
X5600000Y-9850000D01*
X5600000Y-8550000D01*
X5300000Y-8550000D01*
X5300000Y-9850000D01*
X5100000Y-9850000D01*
X5100000Y-8550233D01*
X4800000Y-8550233D01*
X4800000Y-9850233D01*
X3600000Y-9850233D01*
X3600000Y-9850000D01*
X3800000Y-9850000D01*
X4100000Y-9850000D01*
X4100000Y-8550000D01*
X3800000Y-8550000D01*
X3800000Y-9850000D01*
X3600000Y-9850000D01*
X3600000Y-8550233D01*
X3300000Y-8550233D01*
X3300000Y-9850233D01*
X2100000Y-9850233D01*
X2100000Y-9850000D01*
X2300000Y-9850000D01*
X2600000Y-9850000D01*
X2600000Y-8550000D01*
X2300000Y-8550000D01*
X2300000Y-9850000D01*
X2100000Y-9850000D01*
X2100000Y-8550233D01*
X1800000Y-8550233D01*
X1800000Y-9850233D01*
X600000Y-9850233D01*
X600000Y-9850000D01*
X800000Y-9850000D01*
X1100000Y-9850000D01*
X1100000Y-8550000D01*
X800000Y-8550000D01*
X800000Y-9850000D01*
X600000Y-9850000D01*
X600000Y-8550233D01*
X300000Y-8550233D01*
X300000Y-9850233D01*
X200000Y-9850233D01*
X200000Y-7954577D01*
X8474819Y-7954577D01*
X8493426Y-8072059D01*
X8547427Y-8178042D01*
X8631535Y-8262150D01*
X8634968Y-8263899D01*
X8634969Y-8263900D01*
X8684526Y-8289150D01*
X8737518Y-8316151D01*
X8741323Y-8316754D01*
X8741324Y-8316754D01*
X8851193Y-8334155D01*
X8855000Y-8334758D01*
X8858807Y-8334155D01*
X8968676Y-8316754D01*
X8968677Y-8316754D01*
X8972482Y-8316151D01*
X9025473Y-8289151D01*
X9075031Y-8263900D01*
X9075032Y-8263899D01*
X9078465Y-8262150D01*
X9095352Y-8245263D01*
X9130000Y-8230911D01*
X9164648Y-8245263D01*
X9181535Y-8262150D01*
X9184968Y-8263899D01*
X9184969Y-8263900D01*
X9234526Y-8289150D01*
X9287518Y-8316151D01*
X9291323Y-8316754D01*
X9291324Y-8316754D01*
X9401193Y-8334155D01*
X9405000Y-8334758D01*
X9408807Y-8334155D01*
X9518676Y-8316754D01*
X9518677Y-8316754D01*
X9522482Y-8316151D01*
X9575473Y-8289151D01*
X9625031Y-8263900D01*
X9625032Y-8263899D01*
X9628465Y-8262150D01*
X9712573Y-8178042D01*
X9766574Y-8072059D01*
X9785181Y-7954577D01*
X12474819Y-7954577D01*
X12493426Y-8072059D01*
X12547427Y-8178042D01*
X12631535Y-8262150D01*
X12634968Y-8263899D01*
X12634969Y-8263900D01*
X12684526Y-8289150D01*
X12737518Y-8316151D01*
X12741323Y-8316754D01*
X12741324Y-8316754D01*
X12851193Y-8334155D01*
X12855000Y-8334758D01*
X12858807Y-8334155D01*
X12968676Y-8316754D01*
X12968677Y-8316754D01*
X12972482Y-8316151D01*
X13025473Y-8289151D01*
X13075031Y-8263900D01*
X13075032Y-8263899D01*
X13078465Y-8262150D01*
X13095352Y-8245263D01*
X13130000Y-8230911D01*
X13164648Y-8245263D01*
X13181535Y-8262150D01*
X13184968Y-8263899D01*
X13184969Y-8263900D01*
X13234526Y-8289150D01*
X13287518Y-8316151D01*
X13291323Y-8316754D01*
X13291324Y-8316754D01*
X13401193Y-8334155D01*
X13405000Y-8334758D01*
X13408807Y-8334155D01*
X13518676Y-8316754D01*
X13518677Y-8316754D01*
X13522482Y-8316151D01*
X13575473Y-8289151D01*
X13625031Y-8263900D01*
X13625032Y-8263899D01*
X13628465Y-8262150D01*
X13712573Y-8178042D01*
X13766574Y-8072059D01*
X13785181Y-7954577D01*
X13766574Y-7837095D01*
X13712573Y-7731112D01*
X13628465Y-7647004D01*
X13625032Y-7645255D01*
X13625031Y-7645254D01*
X13536214Y-7600000D01*
X13522482Y-7593003D01*
X13518677Y-7592400D01*
X13518676Y-7592400D01*
X13408807Y-7574999D01*
X13405000Y-7574396D01*
X13401193Y-7574999D01*
X13291324Y-7592400D01*
X13291323Y-7592400D01*
X13287518Y-7593003D01*
X13273786Y-7600000D01*
X13184969Y-7645254D01*
X13184968Y-7645255D01*
X13181535Y-7647004D01*
X13164648Y-7663891D01*
X13130000Y-7678243D01*
X13095352Y-7663891D01*
X13078465Y-7647004D01*
X13075032Y-7645255D01*
X13075031Y-7645254D01*
X12986214Y-7600000D01*
X12972482Y-7593003D01*
X12968677Y-7592400D01*
X12968676Y-7592400D01*
X12858807Y-7574999D01*
X12855000Y-7574396D01*
X12851193Y-7574999D01*
X12741324Y-7592400D01*
X12741323Y-7592400D01*
X12737518Y-7593003D01*
X12723786Y-7600000D01*
X12634969Y-7645254D01*
X12634968Y-7645255D01*
X12631535Y-7647004D01*
X12547427Y-7731112D01*
X12493426Y-7837095D01*
X12474819Y-7954577D01*
X9785181Y-7954577D01*
X9766574Y-7837095D01*
X9712573Y-7731112D01*
X9628465Y-7647004D01*
X9625032Y-7645255D01*
X9625031Y-7645254D01*
X9536214Y-7600000D01*
X9522482Y-7593003D01*
X9518677Y-7592400D01*
X9518676Y-7592400D01*
X9408807Y-7574999D01*
X9405000Y-7574396D01*
X9401193Y-7574999D01*
X9291324Y-7592400D01*
X9291323Y-7592400D01*
X9287518Y-7593003D01*
X9273786Y-7600000D01*
X9184969Y-7645254D01*
X9184968Y-7645255D01*
X9181535Y-7647004D01*
X9164648Y-7663891D01*
X9130000Y-7678243D01*
X9095352Y-7663891D01*
X9078465Y-7647004D01*
X9075032Y-7645255D01*
X9075031Y-7645254D01*
X8986214Y-7600000D01*
X8972482Y-7593003D01*
X8968677Y-7592400D01*
X8968676Y-7592400D01*
X8858807Y-7574999D01*
X8855000Y-7574396D01*
X8851193Y-7574999D01*
X8741324Y-7592400D01*
X8741323Y-7592400D01*
X8737518Y-7593003D01*
X8723786Y-7600000D01*
X8634969Y-7645254D01*
X8634968Y-7645255D01*
X8631535Y-7647004D01*
X8547427Y-7731112D01*
X8493426Y-7837095D01*
X8474819Y-7954577D01*
X200000Y-7954577D01*
X200000Y-7088759D01*
X5880000Y-7088759D01*
X5880177Y-7091695D01*
X5890476Y-7176804D01*
X5892012Y-7182852D01*
X5945098Y-7316931D01*
X5948345Y-7322694D01*
X6035419Y-7437409D01*
X6040091Y-7442081D01*
X6154806Y-7529155D01*
X6160569Y-7532402D01*
X6294648Y-7585488D01*
X6300696Y-7587024D01*
X6385805Y-7597323D01*
X6388741Y-7597500D01*
X6420253Y-7597500D01*
X6427145Y-7594645D01*
X6430000Y-7587753D01*
X6930000Y-7587753D01*
X6932855Y-7594645D01*
X6939747Y-7597500D01*
X6971259Y-7597500D01*
X6974195Y-7597323D01*
X7059304Y-7587024D01*
X7065352Y-7585488D01*
X7199431Y-7532402D01*
X7205194Y-7529155D01*
X7319909Y-7442081D01*
X7324581Y-7437409D01*
X7411655Y-7322694D01*
X7414902Y-7316931D01*
X7467988Y-7182852D01*
X7469524Y-7176804D01*
X7479823Y-7091695D01*
X7480000Y-7088759D01*
X7480000Y-6646500D01*
X7494352Y-6611852D01*
X7529000Y-6597500D01*
X7591259Y-6597500D01*
X7594195Y-6597323D01*
X7679304Y-6587024D01*
X7685352Y-6585488D01*
X7819431Y-6532402D01*
X7825194Y-6529155D01*
X7939909Y-6442081D01*
X7944581Y-6437409D01*
X7972976Y-6400000D01*
X10019819Y-6400000D01*
X10020422Y-6403807D01*
X10028938Y-6457573D01*
X10038426Y-6517482D01*
X10053592Y-6547247D01*
X10081415Y-6601852D01*
X10092427Y-6623465D01*
X10176535Y-6707573D01*
X10179968Y-6709322D01*
X10179969Y-6709323D01*
X10202722Y-6720916D01*
X10282518Y-6761574D01*
X10286323Y-6762177D01*
X10286324Y-6762177D01*
X10396193Y-6779578D01*
X10400000Y-6780181D01*
X10403807Y-6779578D01*
X10472637Y-6768677D01*
X10509104Y-6777432D01*
X10528699Y-6809409D01*
X10530579Y-6821279D01*
X10545213Y-6850000D01*
X10580788Y-6919819D01*
X10584580Y-6927262D01*
X10668688Y-7011370D01*
X10672121Y-7013119D01*
X10672122Y-7013120D01*
X10721679Y-7038370D01*
X10774671Y-7065371D01*
X10778476Y-7065974D01*
X10778477Y-7065974D01*
X10827947Y-7073809D01*
X10877739Y-7081695D01*
X10888346Y-7083375D01*
X10892153Y-7083978D01*
X10895960Y-7083375D01*
X10906568Y-7081695D01*
X10956359Y-7073809D01*
X10984248Y-7069392D01*
X11020715Y-7078147D01*
X11040310Y-7110124D01*
X11035572Y-7140034D01*
X11018851Y-7172852D01*
X11013926Y-7182518D01*
X10995319Y-7300000D01*
X11013926Y-7417482D01*
X11067927Y-7523465D01*
X11152035Y-7607573D01*
X11155468Y-7609322D01*
X11155469Y-7609323D01*
X11205026Y-7634573D01*
X11258018Y-7661574D01*
X11261823Y-7662177D01*
X11261824Y-7662177D01*
X11371693Y-7679578D01*
X11375500Y-7680181D01*
X11379307Y-7679578D01*
X11489176Y-7662177D01*
X11489177Y-7662177D01*
X11492982Y-7661574D01*
X11545973Y-7634574D01*
X11595531Y-7609323D01*
X11595532Y-7609322D01*
X11598965Y-7607573D01*
X11683073Y-7523465D01*
X11737074Y-7417482D01*
X11755681Y-7300000D01*
X11737074Y-7182518D01*
X11710073Y-7129526D01*
X11684823Y-7079969D01*
X11684822Y-7079968D01*
X11683073Y-7076535D01*
X11598965Y-6992427D01*
X11595532Y-6990678D01*
X11595531Y-6990677D01*
X11539596Y-6962177D01*
X11492982Y-6938426D01*
X11489177Y-6937823D01*
X11489176Y-6937823D01*
X11379307Y-6920422D01*
X11375500Y-6919819D01*
X11371693Y-6920422D01*
X11283405Y-6934405D01*
X11246938Y-6925650D01*
X11227343Y-6893673D01*
X11232081Y-6863763D01*
X11251976Y-6824716D01*
X11251977Y-6824713D01*
X11253727Y-6821279D01*
X11272334Y-6703797D01*
X11257772Y-6611852D01*
X11254330Y-6590121D01*
X11254330Y-6590120D01*
X11253727Y-6586315D01*
X11199726Y-6480332D01*
X11115618Y-6396224D01*
X11112185Y-6394475D01*
X11112184Y-6394474D01*
X11062113Y-6368962D01*
X11009635Y-6342223D01*
X11005830Y-6341620D01*
X11005829Y-6341620D01*
X10895960Y-6324219D01*
X10892153Y-6323616D01*
X10888346Y-6324219D01*
X10819516Y-6335120D01*
X10783049Y-6326365D01*
X10763454Y-6294388D01*
X10762177Y-6286324D01*
X10762177Y-6286323D01*
X10761574Y-6282518D01*
X10707573Y-6176535D01*
X10623465Y-6092427D01*
X10620032Y-6090678D01*
X10620031Y-6090677D01*
X10540894Y-6050355D01*
X10517482Y-6038426D01*
X10513677Y-6037823D01*
X10513676Y-6037823D01*
X10403807Y-6020422D01*
X10400000Y-6019819D01*
X10396193Y-6020422D01*
X10286324Y-6037823D01*
X10286323Y-6037823D01*
X10282518Y-6038426D01*
X10259106Y-6050355D01*
X10179969Y-6090677D01*
X10179968Y-6090678D01*
X10176535Y-6092427D01*
X10092427Y-6176535D01*
X10038426Y-6282518D01*
X10037823Y-6286323D01*
X10037823Y-6286324D01*
X10032063Y-6322694D01*
X10019819Y-6400000D01*
X7972976Y-6400000D01*
X8031655Y-6322694D01*
X8034902Y-6316931D01*
X8087988Y-6182852D01*
X8089524Y-6176804D01*
X8099823Y-6091695D01*
X8100000Y-6088759D01*
X8100000Y-6057247D01*
X8097145Y-6050355D01*
X8090253Y-6047500D01*
X6939747Y-6047500D01*
X6932855Y-6050355D01*
X6930000Y-6057247D01*
X6930000Y-7587753D01*
X6430000Y-7587753D01*
X6430000Y-6557247D01*
X6427145Y-6550355D01*
X6420253Y-6547500D01*
X5889747Y-6547500D01*
X5882855Y-6550355D01*
X5880000Y-6557247D01*
X5880000Y-7088759D01*
X200000Y-7088759D01*
X200000Y-5800000D01*
X10724321Y-5800000D01*
X10742928Y-5917482D01*
X10796929Y-6023465D01*
X10881037Y-6107573D01*
X10884470Y-6109322D01*
X10884471Y-6109323D01*
X10934029Y-6134574D01*
X10987020Y-6161574D01*
X10990825Y-6162177D01*
X10990826Y-6162177D01*
X11100695Y-6179578D01*
X11104502Y-6180181D01*
X11108309Y-6179578D01*
X11188963Y-6166804D01*
X11221984Y-6161574D01*
X11222366Y-6163989D01*
X11251857Y-6166246D01*
X11276273Y-6194712D01*
X11278099Y-6202282D01*
X11288426Y-6267482D01*
X11301136Y-6292427D01*
X11340133Y-6368962D01*
X11342427Y-6373465D01*
X11426535Y-6457573D01*
X11429968Y-6459322D01*
X11429969Y-6459323D01*
X11465852Y-6477606D01*
X11532518Y-6511574D01*
X11536323Y-6512177D01*
X11536324Y-6512177D01*
X11646193Y-6529578D01*
X11650000Y-6530181D01*
X11653807Y-6529578D01*
X11763676Y-6512177D01*
X11763677Y-6512177D01*
X11767482Y-6511574D01*
X11834148Y-6477606D01*
X11870031Y-6459323D01*
X11870032Y-6459322D01*
X11873465Y-6457573D01*
X11957573Y-6373465D01*
X11959868Y-6368962D01*
X11998864Y-6292427D01*
X12011574Y-6267482D01*
X12016272Y-6237823D01*
X12029578Y-6153807D01*
X12030181Y-6150000D01*
X12021494Y-6095153D01*
X12018898Y-6078759D01*
X13900000Y-6078759D01*
X13900177Y-6081695D01*
X13910476Y-6166804D01*
X13912012Y-6172852D01*
X13965098Y-6306931D01*
X13968345Y-6312694D01*
X14055419Y-6427409D01*
X14060091Y-6432081D01*
X14174806Y-6519155D01*
X14180569Y-6522402D01*
X14314648Y-6575488D01*
X14320696Y-6577024D01*
X14405805Y-6587323D01*
X14408741Y-6587500D01*
X14471000Y-6587500D01*
X14505648Y-6601852D01*
X14520000Y-6636500D01*
X14520000Y-7078759D01*
X14520177Y-7081695D01*
X14530476Y-7166804D01*
X14532012Y-7172852D01*
X14585098Y-7306931D01*
X14588345Y-7312694D01*
X14675419Y-7427409D01*
X14680091Y-7432081D01*
X14794806Y-7519155D01*
X14800569Y-7522402D01*
X14934648Y-7575488D01*
X14940696Y-7577024D01*
X15025805Y-7587323D01*
X15028741Y-7587500D01*
X15060253Y-7587500D01*
X15067145Y-7584645D01*
X15070000Y-7577753D01*
X15570000Y-7577753D01*
X15572855Y-7584645D01*
X15579747Y-7587500D01*
X15611259Y-7587500D01*
X15614195Y-7587323D01*
X15699304Y-7577024D01*
X15705352Y-7575488D01*
X15839431Y-7522402D01*
X15845194Y-7519155D01*
X15959909Y-7432081D01*
X15964581Y-7427409D01*
X16051655Y-7312694D01*
X16054902Y-7306931D01*
X16107988Y-7172852D01*
X16109524Y-7166804D01*
X16119823Y-7081695D01*
X16120000Y-7078759D01*
X16120000Y-6600000D01*
X17619819Y-6600000D01*
X17620422Y-6603807D01*
X17636862Y-6707604D01*
X17638426Y-6717482D01*
X17640176Y-6720916D01*
X17690677Y-6820030D01*
X17692427Y-6823465D01*
X17776535Y-6907573D01*
X17779968Y-6909322D01*
X17779969Y-6909323D01*
X17808437Y-6923828D01*
X17882518Y-6961574D01*
X17886323Y-6962177D01*
X17886324Y-6962177D01*
X17996193Y-6979578D01*
X18000000Y-6980181D01*
X18003807Y-6979578D01*
X18113676Y-6962177D01*
X18113677Y-6962177D01*
X18117482Y-6961574D01*
X18191563Y-6923828D01*
X18220031Y-6909323D01*
X18220032Y-6909322D01*
X18223465Y-6907573D01*
X18307573Y-6823465D01*
X18309324Y-6820030D01*
X18359824Y-6720916D01*
X18361574Y-6717482D01*
X18363139Y-6707604D01*
X18379578Y-6603807D01*
X18380181Y-6600000D01*
X18369123Y-6530181D01*
X18362177Y-6486324D01*
X18362177Y-6486323D01*
X18361574Y-6482518D01*
X18317589Y-6396193D01*
X18309323Y-6379969D01*
X18309322Y-6379968D01*
X18307573Y-6376535D01*
X18223465Y-6292427D01*
X18220032Y-6290678D01*
X18220031Y-6290677D01*
X18167038Y-6263676D01*
X18117482Y-6238426D01*
X18113677Y-6237823D01*
X18113676Y-6237823D01*
X18003807Y-6220422D01*
X18000000Y-6219819D01*
X17996193Y-6220422D01*
X17886324Y-6237823D01*
X17886323Y-6237823D01*
X17882518Y-6238426D01*
X17832962Y-6263676D01*
X17779969Y-6290677D01*
X17779968Y-6290678D01*
X17776535Y-6292427D01*
X17692427Y-6376535D01*
X17690678Y-6379968D01*
X17690677Y-6379969D01*
X17682411Y-6396193D01*
X17638426Y-6482518D01*
X17637823Y-6486323D01*
X17637823Y-6486324D01*
X17630877Y-6530181D01*
X17619819Y-6600000D01*
X16120000Y-6600000D01*
X16120000Y-6547247D01*
X16117145Y-6540355D01*
X16110253Y-6537500D01*
X15579747Y-6537500D01*
X15572855Y-6540355D01*
X15570000Y-6547247D01*
X15570000Y-7577753D01*
X15070000Y-7577753D01*
X15070000Y-6047247D01*
X15067145Y-6040355D01*
X15060253Y-6037500D01*
X13909747Y-6037500D01*
X13902855Y-6040355D01*
X13900000Y-6047247D01*
X13900000Y-6078759D01*
X12018898Y-6078759D01*
X12012177Y-6036324D01*
X12012177Y-6036323D01*
X12011574Y-6032518D01*
X11957573Y-5926535D01*
X11873465Y-5842427D01*
X11870032Y-5840678D01*
X11870031Y-5840677D01*
X11790197Y-5800000D01*
X11767482Y-5788426D01*
X11763677Y-5787823D01*
X11763676Y-5787823D01*
X11653807Y-5770422D01*
X11650000Y-5769819D01*
X11532518Y-5788426D01*
X11532136Y-5786011D01*
X11502645Y-5783754D01*
X11478229Y-5755288D01*
X11476403Y-5747718D01*
X11466076Y-5682518D01*
X11412075Y-5576535D01*
X11363293Y-5527753D01*
X13900000Y-5527753D01*
X13902855Y-5534645D01*
X13909747Y-5537500D01*
X14740253Y-5537500D01*
X14747145Y-5534645D01*
X14750000Y-5527753D01*
X15570000Y-5527753D01*
X15572855Y-5534645D01*
X15579747Y-5537500D01*
X16110253Y-5537500D01*
X16117145Y-5534645D01*
X16120000Y-5527753D01*
X16120000Y-5496241D01*
X16119823Y-5493305D01*
X16109524Y-5408196D01*
X16107988Y-5402148D01*
X16054902Y-5268069D01*
X16051655Y-5262306D01*
X15964581Y-5147591D01*
X15959909Y-5142919D01*
X15845194Y-5055845D01*
X15839431Y-5052598D01*
X15705352Y-4999512D01*
X15699304Y-4997976D01*
X15614195Y-4987677D01*
X15611259Y-4987500D01*
X15579747Y-4987500D01*
X15572855Y-4990355D01*
X15570000Y-4997247D01*
X15570000Y-5527753D01*
X14750000Y-5527753D01*
X14750000Y-5209595D01*
X14755341Y-5187349D01*
X14800203Y-5099302D01*
X14809719Y-5080626D01*
X14812575Y-5062598D01*
X14830201Y-4951307D01*
X14830804Y-4947500D01*
X14809719Y-4814374D01*
X14759018Y-4714868D01*
X14750278Y-4697714D01*
X14750277Y-4697712D01*
X14748528Y-4694280D01*
X14653220Y-4598972D01*
X14649787Y-4597223D01*
X14649786Y-4597222D01*
X14592952Y-4568264D01*
X14533126Y-4537781D01*
X14529321Y-4537178D01*
X14529320Y-4537178D01*
X14498141Y-4532240D01*
X14433488Y-4522000D01*
X14366512Y-4522000D01*
X14301859Y-4532240D01*
X14270680Y-4537178D01*
X14270679Y-4537178D01*
X14266874Y-4537781D01*
X14207048Y-4568264D01*
X14150214Y-4597222D01*
X14150213Y-4597223D01*
X14146780Y-4598972D01*
X14051472Y-4694280D01*
X14049723Y-4697712D01*
X14049722Y-4697714D01*
X14040982Y-4714868D01*
X13990281Y-4814374D01*
X13969196Y-4947500D01*
X13969799Y-4951307D01*
X13987426Y-5062598D01*
X13990281Y-5080626D01*
X14022905Y-5144654D01*
X14025848Y-5182040D01*
X14018276Y-5196525D01*
X13968345Y-5262306D01*
X13965098Y-5268069D01*
X13912012Y-5402148D01*
X13910476Y-5408196D01*
X13900177Y-5493305D01*
X13900000Y-5496241D01*
X13900000Y-5527753D01*
X11363293Y-5527753D01*
X11327967Y-5492427D01*
X11324534Y-5490678D01*
X11324533Y-5490677D01*
X11274976Y-5465427D01*
X11221984Y-5438426D01*
X11218179Y-5437823D01*
X11218178Y-5437823D01*
X11108309Y-5420422D01*
X11104502Y-5419819D01*
X11100695Y-5420422D01*
X10990826Y-5437823D01*
X10990825Y-5437823D01*
X10987020Y-5438426D01*
X10934028Y-5465427D01*
X10884471Y-5490677D01*
X10884470Y-5490678D01*
X10881037Y-5492427D01*
X10796929Y-5576535D01*
X10742928Y-5682518D01*
X10724321Y-5800000D01*
X200000Y-5800000D01*
X200000Y-5537753D01*
X5880000Y-5537753D01*
X5882855Y-5544645D01*
X5889747Y-5547500D01*
X6420253Y-5547500D01*
X6427145Y-5544645D01*
X6430000Y-5537753D01*
X6430000Y-5007247D01*
X6427145Y-5000355D01*
X6420253Y-4997500D01*
X6388741Y-4997500D01*
X6385805Y-4997677D01*
X6300696Y-5007976D01*
X6294648Y-5009512D01*
X6160569Y-5062598D01*
X6154806Y-5065845D01*
X6040091Y-5152919D01*
X6035419Y-5157591D01*
X5948345Y-5272306D01*
X5945098Y-5278069D01*
X5892012Y-5412148D01*
X5890476Y-5418196D01*
X5880177Y-5503305D01*
X5880000Y-5506241D01*
X5880000Y-5537753D01*
X200000Y-5537753D01*
X200000Y-4947500D01*
X7169196Y-4947500D01*
X7169799Y-4951307D01*
X7187426Y-5062598D01*
X7190281Y-5080626D01*
X7199797Y-5099302D01*
X7244659Y-5187349D01*
X7250000Y-5209595D01*
X7250000Y-5537753D01*
X7252855Y-5544645D01*
X7259747Y-5547500D01*
X8090253Y-5547500D01*
X8097145Y-5544645D01*
X8100000Y-5537753D01*
X8100000Y-5506241D01*
X8099823Y-5503305D01*
X8089524Y-5418196D01*
X8087988Y-5412148D01*
X8034901Y-5278067D01*
X8031658Y-5272310D01*
X7978675Y-5202509D01*
X7969158Y-5166233D01*
X7974045Y-5150640D01*
X8009719Y-5080626D01*
X8015316Y-5045290D01*
X8034910Y-5013315D01*
X8071377Y-5004559D01*
X8098360Y-5018308D01*
X8182080Y-5102028D01*
X8185513Y-5103777D01*
X8185514Y-5103778D01*
X8235071Y-5129028D01*
X8288063Y-5156029D01*
X8291868Y-5156632D01*
X8291869Y-5156632D01*
X8401738Y-5174033D01*
X8405545Y-5174636D01*
X8409352Y-5174033D01*
X8519221Y-5156632D01*
X8519222Y-5156632D01*
X8523027Y-5156029D01*
X8576019Y-5129028D01*
X8625576Y-5103778D01*
X8625577Y-5103777D01*
X8629010Y-5102028D01*
X8713118Y-5017920D01*
X8715465Y-5013315D01*
X8748999Y-4947500D01*
X8767119Y-4911937D01*
X8781351Y-4822081D01*
X8800945Y-4790105D01*
X8822080Y-4781351D01*
X8878964Y-4772341D01*
X8908131Y-4767722D01*
X8908132Y-4767722D01*
X8911937Y-4767119D01*
X9012064Y-4716102D01*
X9014486Y-4714868D01*
X9014487Y-4714867D01*
X9017920Y-4713118D01*
X9102028Y-4629010D01*
X9139953Y-4554577D01*
X12224819Y-4554577D01*
X12225422Y-4558384D01*
X12237040Y-4631736D01*
X12243426Y-4672059D01*
X12245176Y-4675493D01*
X12292169Y-4767722D01*
X12297427Y-4778042D01*
X12381535Y-4862150D01*
X12384968Y-4863899D01*
X12384969Y-4863900D01*
X12434527Y-4889151D01*
X12487518Y-4916151D01*
X12491323Y-4916754D01*
X12491324Y-4916754D01*
X12601193Y-4934155D01*
X12605000Y-4934758D01*
X12608807Y-4934155D01*
X12718676Y-4916754D01*
X12718677Y-4916754D01*
X12722482Y-4916151D01*
X12775473Y-4889151D01*
X12825031Y-4863900D01*
X12825032Y-4863899D01*
X12828465Y-4862150D01*
X12845352Y-4845263D01*
X12880000Y-4830911D01*
X12914648Y-4845263D01*
X12931535Y-4862150D01*
X12934968Y-4863899D01*
X12934969Y-4863900D01*
X12984527Y-4889151D01*
X13037518Y-4916151D01*
X13041323Y-4916754D01*
X13041324Y-4916754D01*
X13151193Y-4934155D01*
X13155000Y-4934758D01*
X13158807Y-4934155D01*
X13268676Y-4916754D01*
X13268677Y-4916754D01*
X13272482Y-4916151D01*
X13325473Y-4889151D01*
X13375031Y-4863900D01*
X13375032Y-4863899D01*
X13378465Y-4862150D01*
X13462573Y-4778042D01*
X13467832Y-4767722D01*
X13514824Y-4675493D01*
X13516574Y-4672059D01*
X13522961Y-4631736D01*
X13534578Y-4558384D01*
X13535181Y-4554577D01*
X13516574Y-4437095D01*
X13462573Y-4331112D01*
X13378465Y-4247004D01*
X13375032Y-4245255D01*
X13375031Y-4245254D01*
X13313055Y-4213676D01*
X13272482Y-4193003D01*
X13268677Y-4192400D01*
X13268676Y-4192400D01*
X13158807Y-4174999D01*
X13155000Y-4174396D01*
X13151193Y-4174999D01*
X13041324Y-4192400D01*
X13041323Y-4192400D01*
X13037518Y-4193003D01*
X12996945Y-4213676D01*
X12934969Y-4245254D01*
X12934968Y-4245255D01*
X12931535Y-4247004D01*
X12914648Y-4263891D01*
X12880000Y-4278243D01*
X12845352Y-4263891D01*
X12828465Y-4247004D01*
X12825032Y-4245255D01*
X12825031Y-4245254D01*
X12763055Y-4213676D01*
X12722482Y-4193003D01*
X12718677Y-4192400D01*
X12718676Y-4192400D01*
X12608807Y-4174999D01*
X12605000Y-4174396D01*
X12601193Y-4174999D01*
X12491324Y-4192400D01*
X12491323Y-4192400D01*
X12487518Y-4193003D01*
X12446945Y-4213676D01*
X12384969Y-4245254D01*
X12384968Y-4245255D01*
X12381535Y-4247004D01*
X12297427Y-4331112D01*
X12243426Y-4437095D01*
X12224819Y-4554577D01*
X9139953Y-4554577D01*
X9156029Y-4523027D01*
X9174636Y-4405545D01*
X9162847Y-4331112D01*
X9156632Y-4291869D01*
X9156632Y-4291868D01*
X9156029Y-4288063D01*
X9107594Y-4193003D01*
X9103778Y-4185514D01*
X9103777Y-4185513D01*
X9102028Y-4182080D01*
X9017920Y-4097972D01*
X9014487Y-4096223D01*
X9014486Y-4096222D01*
X8943050Y-4059824D01*
X8911937Y-4043971D01*
X8908132Y-4043368D01*
X8908131Y-4043368D01*
X8798262Y-4025967D01*
X8794455Y-4025364D01*
X8790648Y-4025967D01*
X8680779Y-4043368D01*
X8680778Y-4043368D01*
X8676973Y-4043971D01*
X8645860Y-4059824D01*
X8574424Y-4096222D01*
X8574423Y-4096223D01*
X8570990Y-4097972D01*
X8486882Y-4182080D01*
X8485133Y-4185513D01*
X8485132Y-4185514D01*
X8481316Y-4193003D01*
X8432881Y-4288063D01*
X8432278Y-4291868D01*
X8432278Y-4291869D01*
X8418650Y-4377918D01*
X8399055Y-4409895D01*
X8377920Y-4418649D01*
X8321036Y-4427659D01*
X8291869Y-4432278D01*
X8291868Y-4432278D01*
X8288063Y-4432881D01*
X8279793Y-4437095D01*
X8185514Y-4485132D01*
X8185513Y-4485133D01*
X8182080Y-4486882D01*
X8097972Y-4570990D01*
X8096223Y-4574423D01*
X8096222Y-4574424D01*
X8070971Y-4623982D01*
X8043971Y-4676973D01*
X8043368Y-4680780D01*
X8043367Y-4680783D01*
X8042837Y-4684127D01*
X8023240Y-4716102D01*
X7986773Y-4724855D01*
X7954798Y-4705258D01*
X7950783Y-4698705D01*
X7948528Y-4694280D01*
X7853220Y-4598972D01*
X7849787Y-4597223D01*
X7849786Y-4597222D01*
X7792952Y-4568264D01*
X7733126Y-4537781D01*
X7729321Y-4537178D01*
X7729320Y-4537178D01*
X7698141Y-4532240D01*
X7633488Y-4522000D01*
X7566512Y-4522000D01*
X7501859Y-4532240D01*
X7470680Y-4537178D01*
X7470679Y-4537178D01*
X7466874Y-4537781D01*
X7407048Y-4568264D01*
X7350214Y-4597222D01*
X7350213Y-4597223D01*
X7346780Y-4598972D01*
X7251472Y-4694280D01*
X7249723Y-4697712D01*
X7249722Y-4697714D01*
X7240982Y-4714868D01*
X7190281Y-4814374D01*
X7169196Y-4947500D01*
X200000Y-4947500D01*
X200000Y-3700000D01*
X3719819Y-3700000D01*
X3738426Y-3817482D01*
X3792427Y-3923465D01*
X3876535Y-4007573D01*
X3879968Y-4009322D01*
X3879969Y-4009323D01*
X3911452Y-4025364D01*
X3982518Y-4061574D01*
X3986323Y-4062177D01*
X3986324Y-4062177D01*
X4096193Y-4079578D01*
X4100000Y-4080181D01*
X4103807Y-4079578D01*
X4213676Y-4062177D01*
X4213677Y-4062177D01*
X4217482Y-4061574D01*
X4288548Y-4025364D01*
X4320031Y-4009323D01*
X4320032Y-4009322D01*
X4323465Y-4007573D01*
X4407573Y-3923465D01*
X4461574Y-3817482D01*
X4472341Y-3749500D01*
X10224819Y-3749500D01*
X10243426Y-3866982D01*
X10250043Y-3879969D01*
X10272206Y-3923465D01*
X10297427Y-3972965D01*
X10381535Y-4057073D01*
X10384968Y-4058822D01*
X10384969Y-4058823D01*
X10426887Y-4080181D01*
X10487518Y-4111074D01*
X10491323Y-4111677D01*
X10491324Y-4111677D01*
X10601193Y-4129078D01*
X10605000Y-4129681D01*
X10608807Y-4129078D01*
X10718676Y-4111677D01*
X10718677Y-4111677D01*
X10722482Y-4111074D01*
X10783113Y-4080181D01*
X10825031Y-4058823D01*
X10825032Y-4058822D01*
X10828465Y-4057073D01*
X10845352Y-4040186D01*
X10880000Y-4025834D01*
X10914648Y-4040186D01*
X10931535Y-4057073D01*
X10934968Y-4058822D01*
X10934969Y-4058823D01*
X10976887Y-4080181D01*
X11037518Y-4111074D01*
X11041323Y-4111677D01*
X11041324Y-4111677D01*
X11151193Y-4129078D01*
X11155000Y-4129681D01*
X11158807Y-4129078D01*
X11268676Y-4111677D01*
X11268677Y-4111677D01*
X11272482Y-4111074D01*
X11333113Y-4080181D01*
X11375031Y-4058823D01*
X11375032Y-4058822D01*
X11378465Y-4057073D01*
X11462573Y-3972965D01*
X11487795Y-3923465D01*
X11509957Y-3879969D01*
X11516574Y-3866982D01*
X11535181Y-3749500D01*
X11527342Y-3700000D01*
X17319819Y-3700000D01*
X17338426Y-3817482D01*
X17392427Y-3923465D01*
X17476535Y-4007573D01*
X17479968Y-4009322D01*
X17479969Y-4009323D01*
X17511452Y-4025364D01*
X17582518Y-4061574D01*
X17586323Y-4062177D01*
X17586324Y-4062177D01*
X17696193Y-4079578D01*
X17700000Y-4080181D01*
X17703807Y-4079578D01*
X17813676Y-4062177D01*
X17813677Y-4062177D01*
X17817482Y-4061574D01*
X17888548Y-4025364D01*
X17920031Y-4009323D01*
X17920032Y-4009322D01*
X17923465Y-4007573D01*
X18007573Y-3923465D01*
X18061574Y-3817482D01*
X18080181Y-3700000D01*
X18061574Y-3582518D01*
X18034544Y-3529469D01*
X18009323Y-3479969D01*
X18009322Y-3479968D01*
X18007573Y-3476535D01*
X17931038Y-3400000D01*
X18419819Y-3400000D01*
X18420422Y-3403807D01*
X18436857Y-3507573D01*
X18438426Y-3517482D01*
X18492427Y-3623465D01*
X18576535Y-3707573D01*
X18579968Y-3709322D01*
X18579969Y-3709323D01*
X18629526Y-3734573D01*
X18682518Y-3761574D01*
X18686323Y-3762177D01*
X18686324Y-3762177D01*
X18796193Y-3779578D01*
X18800000Y-3780181D01*
X18803807Y-3779578D01*
X18913676Y-3762177D01*
X18913677Y-3762177D01*
X18917482Y-3761574D01*
X19023465Y-3707573D01*
X19023627Y-3707891D01*
X19057666Y-3699719D01*
X19076471Y-3707509D01*
X19076535Y-3707573D01*
X19182518Y-3761574D01*
X19186323Y-3762177D01*
X19186324Y-3762177D01*
X19296193Y-3779578D01*
X19300000Y-3780181D01*
X19303807Y-3779578D01*
X19413676Y-3762177D01*
X19413677Y-3762177D01*
X19417482Y-3761574D01*
X19475871Y-3731823D01*
X19520025Y-3709326D01*
X19520026Y-3709325D01*
X19522134Y-3708251D01*
X19522135Y-3708251D01*
X19523465Y-3707573D01*
X19523628Y-3707892D01*
X19557659Y-3699717D01*
X19576471Y-3707509D01*
X19576535Y-3707573D01*
X19579973Y-3709325D01*
X19581399Y-3710361D01*
X19600991Y-3742339D01*
X19592233Y-3778805D01*
X19581395Y-3789642D01*
X19579972Y-3790676D01*
X19576535Y-3792427D01*
X19492427Y-3876535D01*
X19438426Y-3982518D01*
X19437823Y-3986323D01*
X19437823Y-3986324D01*
X19431544Y-4025967D01*
X19419819Y-4100000D01*
X19438426Y-4217482D01*
X19440176Y-4220916D01*
X19479727Y-4298539D01*
X19492427Y-4323465D01*
X19576535Y-4407573D01*
X19579968Y-4409322D01*
X19579969Y-4409323D01*
X19625021Y-4432278D01*
X19682518Y-4461574D01*
X19686323Y-4462177D01*
X19686324Y-4462177D01*
X19796193Y-4479578D01*
X19800000Y-4480181D01*
X19803807Y-4479578D01*
X19913676Y-4462177D01*
X19913677Y-4462177D01*
X19917482Y-4461574D01*
X19974979Y-4432278D01*
X20020031Y-4409323D01*
X20020032Y-4409322D01*
X20023465Y-4407573D01*
X20107573Y-4323465D01*
X20120274Y-4298539D01*
X20159824Y-4220916D01*
X20161574Y-4217482D01*
X20180181Y-4100000D01*
X20168456Y-4025967D01*
X20162177Y-3986324D01*
X20162177Y-3986323D01*
X20161574Y-3982518D01*
X20107573Y-3876535D01*
X20023465Y-3792427D01*
X20020028Y-3790676D01*
X20018605Y-3789642D01*
X19999009Y-3757666D01*
X20007764Y-3721199D01*
X20018601Y-3710361D01*
X20020027Y-3709325D01*
X20022137Y-3708250D01*
X20057661Y-3699718D01*
X20076472Y-3707510D01*
X20076535Y-3707573D01*
X20079974Y-3709325D01*
X20079975Y-3709326D01*
X20124129Y-3731823D01*
X20182518Y-3761574D01*
X20186323Y-3762177D01*
X20186324Y-3762177D01*
X20296193Y-3779578D01*
X20300000Y-3780181D01*
X20303807Y-3779578D01*
X20413676Y-3762177D01*
X20413677Y-3762177D01*
X20417482Y-3761574D01*
X20523465Y-3707573D01*
X20523627Y-3707891D01*
X20557666Y-3699719D01*
X20576471Y-3707509D01*
X20576535Y-3707573D01*
X20682518Y-3761574D01*
X20686323Y-3762177D01*
X20686324Y-3762177D01*
X20796193Y-3779578D01*
X20800000Y-3780181D01*
X20803807Y-3779578D01*
X20913676Y-3762177D01*
X20913677Y-3762177D01*
X20917482Y-3761574D01*
X20970474Y-3734573D01*
X21020031Y-3709323D01*
X21020032Y-3709322D01*
X21023465Y-3707573D01*
X21107573Y-3623465D01*
X21161574Y-3517482D01*
X21163144Y-3507573D01*
X21179578Y-3403807D01*
X21180181Y-3400000D01*
X21161574Y-3282518D01*
X21117589Y-3196193D01*
X21109323Y-3179969D01*
X21109322Y-3179968D01*
X21107573Y-3176535D01*
X21023465Y-3092427D01*
X21020032Y-3090678D01*
X21020031Y-3090677D01*
X20924655Y-3042081D01*
X20917482Y-3038426D01*
X20913677Y-3037823D01*
X20913676Y-3037823D01*
X20803807Y-3020422D01*
X20800000Y-3019819D01*
X20796193Y-3020422D01*
X20686324Y-3037823D01*
X20686323Y-3037823D01*
X20682518Y-3038426D01*
X20576535Y-3092427D01*
X20576373Y-3092109D01*
X20542334Y-3100281D01*
X20523529Y-3092491D01*
X20523465Y-3092427D01*
X20417482Y-3038426D01*
X20413677Y-3037823D01*
X20413676Y-3037823D01*
X20303807Y-3020422D01*
X20300000Y-3019819D01*
X20296193Y-3020422D01*
X20186324Y-3037823D01*
X20186323Y-3037823D01*
X20182518Y-3038426D01*
X20076535Y-3092427D01*
X20076373Y-3092109D01*
X20042334Y-3100281D01*
X20023529Y-3092491D01*
X20023465Y-3092427D01*
X19917482Y-3038426D01*
X19913677Y-3037823D01*
X19913676Y-3037823D01*
X19803807Y-3020422D01*
X19800000Y-3019819D01*
X19796193Y-3020422D01*
X19686324Y-3037823D01*
X19686323Y-3037823D01*
X19682518Y-3038426D01*
X19576535Y-3092427D01*
X19576373Y-3092109D01*
X19542334Y-3100281D01*
X19523529Y-3092491D01*
X19523465Y-3092427D01*
X19417482Y-3038426D01*
X19413677Y-3037823D01*
X19413676Y-3037823D01*
X19303807Y-3020422D01*
X19300000Y-3019819D01*
X19296193Y-3020422D01*
X19186324Y-3037823D01*
X19186323Y-3037823D01*
X19182518Y-3038426D01*
X19076535Y-3092427D01*
X19076373Y-3092109D01*
X19042334Y-3100281D01*
X19023529Y-3092491D01*
X19023465Y-3092427D01*
X18917482Y-3038426D01*
X18913677Y-3037823D01*
X18913676Y-3037823D01*
X18803807Y-3020422D01*
X18800000Y-3019819D01*
X18796193Y-3020422D01*
X18686324Y-3037823D01*
X18686323Y-3037823D01*
X18682518Y-3038426D01*
X18675345Y-3042081D01*
X18579969Y-3090677D01*
X18579968Y-3090678D01*
X18576535Y-3092427D01*
X18492427Y-3176535D01*
X18490678Y-3179968D01*
X18490677Y-3179969D01*
X18482411Y-3196193D01*
X18438426Y-3282518D01*
X18419819Y-3400000D01*
X17931038Y-3400000D01*
X17923465Y-3392427D01*
X17920032Y-3390678D01*
X17920031Y-3390677D01*
X17870473Y-3365426D01*
X17817482Y-3338426D01*
X17813677Y-3337823D01*
X17813676Y-3337823D01*
X17703807Y-3320422D01*
X17700000Y-3319819D01*
X17696193Y-3320422D01*
X17586324Y-3337823D01*
X17586323Y-3337823D01*
X17582518Y-3338426D01*
X17529527Y-3365426D01*
X17479969Y-3390677D01*
X17479968Y-3390678D01*
X17476535Y-3392427D01*
X17392427Y-3476535D01*
X17390678Y-3479968D01*
X17390677Y-3479969D01*
X17365456Y-3529469D01*
X17338426Y-3582518D01*
X17319819Y-3700000D01*
X11527342Y-3700000D01*
X11527297Y-3699719D01*
X11517177Y-3635824D01*
X11517177Y-3635823D01*
X11516574Y-3632018D01*
X11462573Y-3526035D01*
X11378465Y-3441927D01*
X11375032Y-3440178D01*
X11375031Y-3440177D01*
X11303650Y-3403807D01*
X11272482Y-3387926D01*
X11268677Y-3387323D01*
X11268676Y-3387323D01*
X11158807Y-3369922D01*
X11155000Y-3369319D01*
X11151193Y-3369922D01*
X11041324Y-3387323D01*
X11041323Y-3387323D01*
X11037518Y-3387926D01*
X11006350Y-3403807D01*
X10934969Y-3440177D01*
X10934968Y-3440178D01*
X10931535Y-3441927D01*
X10914648Y-3458814D01*
X10880000Y-3473166D01*
X10845352Y-3458814D01*
X10828465Y-3441927D01*
X10825032Y-3440178D01*
X10825031Y-3440177D01*
X10753650Y-3403807D01*
X10722482Y-3387926D01*
X10718677Y-3387323D01*
X10718676Y-3387323D01*
X10608807Y-3369922D01*
X10605000Y-3369319D01*
X10601193Y-3369922D01*
X10491324Y-3387323D01*
X10491323Y-3387323D01*
X10487518Y-3387926D01*
X10456350Y-3403807D01*
X10384969Y-3440177D01*
X10384968Y-3440178D01*
X10381535Y-3441927D01*
X10297427Y-3526035D01*
X10243426Y-3632018D01*
X10242823Y-3635823D01*
X10242823Y-3635824D01*
X10232703Y-3699719D01*
X10224819Y-3749500D01*
X4472341Y-3749500D01*
X4480181Y-3700000D01*
X4461574Y-3582518D01*
X4434544Y-3529469D01*
X4409323Y-3479969D01*
X4409322Y-3479968D01*
X4407573Y-3476535D01*
X4323465Y-3392427D01*
X4320032Y-3390678D01*
X4320031Y-3390677D01*
X4270473Y-3365426D01*
X4217482Y-3338426D01*
X4213677Y-3337823D01*
X4213676Y-3337823D01*
X4103807Y-3320422D01*
X4100000Y-3319819D01*
X4096193Y-3320422D01*
X3986324Y-3337823D01*
X3986323Y-3337823D01*
X3982518Y-3338426D01*
X3929527Y-3365426D01*
X3879969Y-3390677D01*
X3879968Y-3390678D01*
X3876535Y-3392427D01*
X3792427Y-3476535D01*
X3790678Y-3479968D01*
X3790677Y-3479969D01*
X3765456Y-3529469D01*
X3738426Y-3582518D01*
X3719819Y-3700000D01*
X200000Y-3700000D01*
X200000Y-3200000D01*
X619819Y-3200000D01*
X638426Y-3317482D01*
X692427Y-3423465D01*
X776535Y-3507573D01*
X779968Y-3509322D01*
X779969Y-3509323D01*
X812769Y-3526035D01*
X882518Y-3561574D01*
X886323Y-3562177D01*
X886324Y-3562177D01*
X996193Y-3579578D01*
X1000000Y-3580181D01*
X1003807Y-3579578D01*
X1113676Y-3562177D01*
X1113677Y-3562177D01*
X1117482Y-3561574D01*
X1187231Y-3526035D01*
X1220031Y-3509323D01*
X1220032Y-3509322D01*
X1223465Y-3507573D01*
X1307573Y-3423465D01*
X1361574Y-3317482D01*
X1380181Y-3200000D01*
X2419819Y-3200000D01*
X2438426Y-3317482D01*
X2492427Y-3423465D01*
X2576535Y-3507573D01*
X2579968Y-3509322D01*
X2579969Y-3509323D01*
X2612769Y-3526035D01*
X2682518Y-3561574D01*
X2686323Y-3562177D01*
X2686324Y-3562177D01*
X2796193Y-3579578D01*
X2800000Y-3580181D01*
X2803807Y-3579578D01*
X2913676Y-3562177D01*
X2913677Y-3562177D01*
X2917482Y-3561574D01*
X2987231Y-3526035D01*
X3020031Y-3509323D01*
X3020032Y-3509322D01*
X3023465Y-3507573D01*
X3107573Y-3423465D01*
X3161574Y-3317482D01*
X3180181Y-3200000D01*
X3169475Y-3132402D01*
X3162177Y-3086324D01*
X3162177Y-3086323D01*
X3161574Y-3082518D01*
X3107573Y-2976535D01*
X3023465Y-2892427D01*
X3020032Y-2890678D01*
X3020031Y-2890677D01*
X2970473Y-2865426D01*
X2917482Y-2838426D01*
X2913677Y-2837823D01*
X2913676Y-2837823D01*
X2803807Y-2820422D01*
X2800000Y-2819819D01*
X2796193Y-2820422D01*
X2686324Y-2837823D01*
X2686323Y-2837823D01*
X2682518Y-2838426D01*
X2629527Y-2865426D01*
X2579969Y-2890677D01*
X2579968Y-2890678D01*
X2576535Y-2892427D01*
X2492427Y-2976535D01*
X2438426Y-3082518D01*
X2437823Y-3086323D01*
X2437823Y-3086324D01*
X2430525Y-3132402D01*
X2419819Y-3200000D01*
X1380181Y-3200000D01*
X1369475Y-3132402D01*
X1362177Y-3086324D01*
X1362177Y-3086323D01*
X1361574Y-3082518D01*
X1307573Y-2976535D01*
X1223465Y-2892427D01*
X1220032Y-2890678D01*
X1220031Y-2890677D01*
X1170473Y-2865426D01*
X1117482Y-2838426D01*
X1113677Y-2837823D01*
X1113676Y-2837823D01*
X1003807Y-2820422D01*
X1000000Y-2819819D01*
X996193Y-2820422D01*
X886324Y-2837823D01*
X886323Y-2837823D01*
X882518Y-2838426D01*
X829527Y-2865426D01*
X779969Y-2890677D01*
X779968Y-2890678D01*
X776535Y-2892427D01*
X692427Y-2976535D01*
X638426Y-3082518D01*
X637823Y-3086323D01*
X637823Y-3086324D01*
X630525Y-3132402D01*
X619819Y-3200000D01*
X200000Y-3200000D01*
X200000Y-2688759D01*
X14520000Y-2688759D01*
X14520177Y-2691695D01*
X14530476Y-2776804D01*
X14532012Y-2782852D01*
X14585098Y-2916931D01*
X14588345Y-2922694D01*
X14675419Y-3037409D01*
X14680091Y-3042081D01*
X14794806Y-3129155D01*
X14800569Y-3132402D01*
X14934648Y-3185488D01*
X14940696Y-3187024D01*
X15025805Y-3197323D01*
X15028741Y-3197500D01*
X15060253Y-3197500D01*
X15067145Y-3194645D01*
X15070000Y-3187753D01*
X15570000Y-3187753D01*
X15572855Y-3194645D01*
X15579747Y-3197500D01*
X15611259Y-3197500D01*
X15614195Y-3197323D01*
X15699304Y-3187024D01*
X15705352Y-3185488D01*
X15839431Y-3132402D01*
X15845194Y-3129155D01*
X15959909Y-3042081D01*
X15964581Y-3037409D01*
X16051655Y-2922694D01*
X16054902Y-2916931D01*
X16107988Y-2782852D01*
X16109524Y-2776804D01*
X16119823Y-2691695D01*
X16120000Y-2688759D01*
X16120000Y-2007247D01*
X16117145Y-2000355D01*
X16110253Y-1997500D01*
X15579747Y-1997500D01*
X15572855Y-2000355D01*
X15570000Y-2007247D01*
X15570000Y-3187753D01*
X15070000Y-3187753D01*
X15070000Y-2007247D01*
X15067145Y-2000355D01*
X15060253Y-1997500D01*
X14529747Y-1997500D01*
X14522855Y-2000355D01*
X14520000Y-2007247D01*
X14520000Y-2688759D01*
X200000Y-2688759D01*
X200000Y-1000000D01*
X3419819Y-1000000D01*
X3438426Y-1117482D01*
X3440176Y-1120916D01*
X3489379Y-1217482D01*
X3492427Y-1223465D01*
X3576535Y-1307573D01*
X3579968Y-1309322D01*
X3579969Y-1309323D01*
X3605124Y-1322140D01*
X3682518Y-1361574D01*
X3686323Y-1362177D01*
X3686324Y-1362177D01*
X3796193Y-1379578D01*
X3800000Y-1380181D01*
X3803807Y-1379578D01*
X3913676Y-1362177D01*
X3913677Y-1362177D01*
X3917482Y-1361574D01*
X3994876Y-1322140D01*
X4020031Y-1309323D01*
X4020032Y-1309322D01*
X4023465Y-1307573D01*
X4107573Y-1223465D01*
X4110622Y-1217482D01*
X4143019Y-1153899D01*
X4395887Y-1153899D01*
X4397514Y-1158907D01*
X4455132Y-1271989D01*
X4459608Y-1278149D01*
X4549351Y-1367892D01*
X4555511Y-1372368D01*
X4668597Y-1429988D01*
X4675837Y-1432341D01*
X4769651Y-1447199D01*
X4773473Y-1447500D01*
X5420253Y-1447500D01*
X5427145Y-1444645D01*
X5430000Y-1437753D01*
X5430000Y-1437752D01*
X5930000Y-1437752D01*
X5932855Y-1444644D01*
X5939747Y-1447499D01*
X6586526Y-1447499D01*
X6590349Y-1447198D01*
X6684163Y-1432341D01*
X6691403Y-1429988D01*
X6804489Y-1372368D01*
X6810649Y-1367892D01*
X6900392Y-1278149D01*
X6904868Y-1271989D01*
X6962486Y-1158907D01*
X6963588Y-1155515D01*
X6962234Y-1149874D01*
X6958360Y-1147500D01*
X5939747Y-1147500D01*
X5932855Y-1150355D01*
X5930000Y-1157247D01*
X5930000Y-1437752D01*
X5430000Y-1437752D01*
X5430000Y-1157247D01*
X5427145Y-1150355D01*
X5420253Y-1147500D01*
X4404247Y-1147500D01*
X4397355Y-1150355D01*
X4395887Y-1153899D01*
X4143019Y-1153899D01*
X4159824Y-1120916D01*
X4161574Y-1117482D01*
X4180181Y-1000000D01*
X4169575Y-933035D01*
X4162177Y-886324D01*
X4162177Y-886323D01*
X4161574Y-882518D01*
X4119386Y-799719D01*
X4109323Y-779969D01*
X4109322Y-779968D01*
X4107573Y-776535D01*
X4023465Y-692427D01*
X4020032Y-690678D01*
X4020031Y-690677D01*
X3970474Y-665427D01*
X3919560Y-639485D01*
X4396412Y-639485D01*
X4397766Y-645126D01*
X4401640Y-647500D01*
X5420253Y-647500D01*
X5427145Y-644645D01*
X5430000Y-637753D01*
X5930000Y-637753D01*
X5932855Y-644645D01*
X5939747Y-647500D01*
X6955753Y-647500D01*
X6962645Y-644645D01*
X6964113Y-641101D01*
X6962486Y-636093D01*
X6904868Y-523011D01*
X6900392Y-516851D01*
X6810649Y-427108D01*
X6804489Y-422632D01*
X6691403Y-365012D01*
X6684163Y-362659D01*
X6590349Y-347801D01*
X6586527Y-347500D01*
X5939747Y-347500D01*
X5932855Y-350355D01*
X5930000Y-357247D01*
X5930000Y-637753D01*
X5430000Y-637753D01*
X5430000Y-357248D01*
X5427145Y-350356D01*
X5420253Y-347501D01*
X4773474Y-347501D01*
X4769651Y-347802D01*
X4675837Y-362659D01*
X4668597Y-365012D01*
X4555511Y-422632D01*
X4549351Y-427108D01*
X4459608Y-516851D01*
X4455132Y-523011D01*
X4397514Y-636093D01*
X4396412Y-639485D01*
X3919560Y-639485D01*
X3917482Y-638426D01*
X3913677Y-637823D01*
X3913676Y-637823D01*
X3803807Y-620422D01*
X3800000Y-619819D01*
X3796193Y-620422D01*
X3686324Y-637823D01*
X3686323Y-637823D01*
X3682518Y-638426D01*
X3629526Y-665427D01*
X3579969Y-690677D01*
X3579968Y-690678D01*
X3576535Y-692427D01*
X3492427Y-776535D01*
X3490678Y-779968D01*
X3490677Y-779969D01*
X3480614Y-799719D01*
X3438426Y-882518D01*
X3437823Y-886323D01*
X3437823Y-886324D01*
X3430425Y-933035D01*
X3419819Y-1000000D01*
X200000Y-1000000D01*
X200000Y-249000D01*
X214352Y-214352D01*
X249000Y-200000D01*
X15020183Y-200000D01*
X15054831Y-214352D01*
G37*
%TD.AperFunction*%
%TD*%
M02*
