%TF.GenerationSoftware,KiCad,Pcbnew,(6.0.2)*%
%TF.CreationDate,2022-04-22T09:08:28+08:00*%
%TF.ProjectId,usb-nvme,7573622d-6e76-46d6-952e-6b696361645f,rev?*%
%TF.SameCoordinates,Original*%
%TF.FileFunction,Plated,1,4,PTH,Mixed*%
%TF.FilePolarity,Positive*%
%FSLAX46Y46*%
G04 Gerber Fmt 4.6, Leading zero omitted, Abs format (unit mm)*
G04 Created by KiCad (PCBNEW (6.0.2)) date 2022-04-22 09:08:28*
%MOMM*%
%LPD*%
G01*
G04 APERTURE LIST*
%TA.AperFunction,ViaDrill*%
%ADD10C,0.200000*%
%TD*%
%TA.AperFunction,ViaDrill*%
%ADD11C,0.300000*%
%TD*%
%TA.AperFunction,ComponentDrill*%
%ADD12C,0.350000*%
%TD*%
G04 aperture for slot hole*
%TA.AperFunction,ComponentDrill*%
%ADD13O,1.900000X0.400000*%
%TD*%
G04 aperture for slot hole*
%TA.AperFunction,ComponentDrill*%
%ADD14O,0.600000X1.600000*%
%TD*%
G04 aperture for slot hole*
%TA.AperFunction,ComponentDrill*%
%ADD15O,1.200000X0.600000*%
%TD*%
G04 aperture for slot hole*
%TA.AperFunction,ComponentDrill*%
%ADD16O,0.600000X1.900000*%
%TD*%
%TA.AperFunction,ComponentDrill*%
%ADD17C,1.000000*%
%TD*%
G04 APERTURE END LIST*
D10*
X1000000Y-3200000D03*
X1000000Y-43075500D03*
X1100000Y-1200000D03*
X1400000Y-39200000D03*
X1400000Y-40200000D03*
X1450000Y-8200000D03*
X1700000Y-42500000D03*
X2200000Y-39300000D03*
X2350000Y-11700000D03*
X2800000Y-3200000D03*
X2800000Y-7200000D03*
X2800000Y-7500000D03*
X2800000Y-7800000D03*
X2800000Y-10500000D03*
X2800000Y-10800000D03*
X2800000Y-38650000D03*
X2900000Y-40400000D03*
X3100000Y-7200000D03*
X3100000Y-7500000D03*
X3100000Y-7800000D03*
X3100000Y-10500000D03*
X3100000Y-10800000D03*
X3800000Y-1000000D03*
X4100000Y-3700000D03*
X4450000Y-8200000D03*
X4600000Y-38800000D03*
X5181025Y-23200000D03*
X5200000Y-27700000D03*
X5200000Y-38800000D03*
X5250000Y-30100000D03*
X5300000Y-31500000D03*
X5500000Y-18700000D03*
X5750000Y-21150000D03*
X5758222Y-22600862D03*
X5800000Y-31200000D03*
X5828932Y-28328427D03*
X5899643Y-24439340D03*
X5900000Y-27300000D03*
X6100000Y-18700000D03*
X6200000Y-30400000D03*
X6250000Y-8100000D03*
X6250000Y-10000000D03*
X6250000Y-38650000D03*
X6700000Y-18700000D03*
X6700000Y-22400000D03*
X6700000Y-32900000D03*
X6725000Y-10800000D03*
X7074500Y-21100000D03*
X7275000Y-10800000D03*
X7400000Y-22400000D03*
X7400000Y-40200000D03*
X7525988Y-30025483D03*
X7600000Y-28300000D03*
X7750000Y-8100000D03*
X7750000Y-10000000D03*
X7808831Y-24651472D03*
X7808831Y-26348528D03*
X7850000Y-33100000D03*
X7900000Y-7000000D03*
X8100000Y-41300000D03*
X8200000Y-11750000D03*
X8303807Y-20055277D03*
X8400000Y-38700000D03*
X8405545Y-4794455D03*
X8586649Y-31086144D03*
X8605545Y-11294455D03*
X8605545Y-12205545D03*
X8794455Y-4405545D03*
X8800000Y-42500000D03*
X8800000Y-43000000D03*
X8855000Y-7954577D03*
X8994455Y-10905545D03*
X8994455Y-12594455D03*
X9010914Y-31510407D03*
X9152334Y-19206750D03*
X9200000Y-40600000D03*
X9223045Y-23237258D03*
X9250000Y-10000000D03*
X9293755Y-21045227D03*
X9300000Y-13100000D03*
X9300000Y-42500000D03*
X9300000Y-43000000D03*
X9400000Y-32300000D03*
X9400000Y-33100000D03*
X9405000Y-7954577D03*
X9505887Y-28045584D03*
X9505887Y-30166905D03*
X9800000Y-40000000D03*
X9800000Y-40300000D03*
X10000000Y-28400000D03*
X10000862Y-18358222D03*
X10071573Y-22388730D03*
X10100000Y-3400000D03*
X10100000Y-40000000D03*
X10100000Y-40300000D03*
X10400000Y-6400000D03*
X10400000Y-28900000D03*
X10400000Y-33100000D03*
X10400000Y-40000000D03*
X10400000Y-40300000D03*
X10600000Y-32200000D03*
X10605000Y-3749500D03*
X10750000Y-8100000D03*
X10750000Y-10000000D03*
X10750000Y-11200000D03*
X10892153Y-6703797D03*
X10920101Y-29459798D03*
X10990812Y-19348171D03*
X11000000Y-42450000D03*
X11000000Y-42750000D03*
X11000000Y-43050000D03*
X11100000Y-31700000D03*
X11104502Y-5800000D03*
X11155000Y-3749500D03*
X11202944Y-21257359D03*
X11225000Y-10812379D03*
X11375500Y-7300000D03*
X11400000Y-33100000D03*
X11650000Y-6150000D03*
X11775000Y-10812379D03*
X11800000Y-38700000D03*
X11800000Y-39100000D03*
X11800000Y-39500000D03*
X12250000Y-8100000D03*
X12250000Y-10000000D03*
X12250000Y-11200000D03*
X12334315Y-20125988D03*
X12605000Y-4554577D03*
X12700000Y-18300000D03*
X12725000Y-10812379D03*
X12855000Y-7954577D03*
X12900000Y-33100000D03*
X12970711Y-19631014D03*
X13155000Y-4554577D03*
X13275000Y-10812379D03*
X13400000Y-38700000D03*
X13400000Y-39100000D03*
X13400000Y-39500000D03*
X13405000Y-7954577D03*
X13465685Y-30874012D03*
X13748528Y-20408831D03*
X13750000Y-10000000D03*
X13800000Y-11200000D03*
X13900000Y-33000000D03*
X14300000Y-7000000D03*
X14600000Y-33000000D03*
X14844544Y-31616474D03*
X14879899Y-21540202D03*
X14879899Y-29459798D03*
X15092031Y-19631014D03*
X15200000Y-13100000D03*
X15200000Y-41300000D03*
X15250000Y-10000000D03*
X15500000Y-38700000D03*
X15505545Y-10905545D03*
X15505545Y-12594455D03*
X15622361Y-30838656D03*
X15799138Y-32500357D03*
X15894455Y-11294455D03*
X15894455Y-12205545D03*
X15900000Y-42500000D03*
X15900000Y-43000000D03*
X16011270Y-18711775D03*
X16011270Y-22671573D03*
X16011270Y-28328427D03*
X16300000Y-11750000D03*
X16300000Y-40600000D03*
X16382501Y-32765522D03*
X16400000Y-42500000D03*
X16400000Y-43000000D03*
X16506245Y-31793250D03*
X16750000Y-8100000D03*
X16750000Y-10000000D03*
X16750000Y-11200000D03*
X16771410Y-32376613D03*
X16789087Y-21328070D03*
X16789087Y-29671930D03*
X16859798Y-19560303D03*
X16859798Y-23520101D03*
X16859798Y-27479899D03*
X16900000Y-500000D03*
X16900000Y-1100000D03*
X16900000Y-1600000D03*
X16900000Y-40000000D03*
X16900000Y-40300000D03*
X16930509Y-31368986D03*
X17142641Y-23802944D03*
X17200000Y-40000000D03*
X17200000Y-40300000D03*
X17225000Y-10812379D03*
X17300000Y-6600000D03*
X17300000Y-7100000D03*
X17300000Y-7600000D03*
X17400000Y-1100000D03*
X17400000Y-1600000D03*
X17500000Y-3100000D03*
X17500000Y-4300000D03*
X17500000Y-40000000D03*
X17500000Y-40300000D03*
X17700000Y-3700000D03*
X17708326Y-20408831D03*
X17708326Y-26631371D03*
X17708326Y-30591169D03*
X17775000Y-10812379D03*
X17800000Y-7600000D03*
X17900000Y-500000D03*
X18000000Y-6600000D03*
X18100000Y-42450000D03*
X18100000Y-42750000D03*
X18100000Y-43050000D03*
X18250000Y-8100000D03*
X18250000Y-10000000D03*
X18250000Y-11200000D03*
X18300000Y-7600000D03*
X18400000Y-500000D03*
X18480282Y-22755282D03*
X18725000Y-10812379D03*
X18768986Y-25570711D03*
X18800000Y-3400000D03*
X18839697Y-21540202D03*
X18839697Y-29459798D03*
X18900000Y-38700000D03*
X18900000Y-39100000D03*
X18900000Y-39500000D03*
X19030282Y-22755282D03*
X19051829Y-27409188D03*
X19275000Y-10812379D03*
X19300000Y-3400000D03*
X19500000Y-22200000D03*
X19700000Y-500000D03*
X19700000Y-19000000D03*
X19750000Y-8100000D03*
X19750000Y-10000000D03*
X19750000Y-11200000D03*
X19758936Y-24297918D03*
X19800000Y-3400000D03*
X19800000Y-4100000D03*
X19971068Y-28328427D03*
X20300000Y-3400000D03*
X20400000Y-19000000D03*
X20500000Y-38700000D03*
X20500000Y-39100000D03*
X20500000Y-39500000D03*
X20678175Y-24200000D03*
X20700000Y-26000000D03*
X20700000Y-26500000D03*
X20800000Y-3400000D03*
X21400000Y-600000D03*
X21400000Y-1100000D03*
X21400000Y-1600000D03*
X21400000Y-2100000D03*
X21400000Y-2600000D03*
X21500000Y-5600000D03*
X21500000Y-6100000D03*
X21500000Y-6600000D03*
X21500000Y-7100000D03*
X21500000Y-7600000D03*
D11*
X7500000Y-30980000D03*
X7500000Y-31620000D03*
D12*
%TO.C,U1*%
X9930152Y-25500000D03*
X10920101Y-24510051D03*
X10920101Y-26489949D03*
X11910051Y-23520101D03*
X11910051Y-25500000D03*
X11910051Y-27479899D03*
X11910051Y-27479899D03*
X12900000Y-22530152D03*
X12900000Y-24510051D03*
X12900000Y-26489949D03*
X12900000Y-26489949D03*
X12900000Y-28469848D03*
X12900000Y-28469848D03*
X13889949Y-23520101D03*
X13889949Y-25500000D03*
X13889949Y-25500000D03*
X13889949Y-27479899D03*
X13889949Y-27479899D03*
X14879899Y-24510051D03*
X14879899Y-24510051D03*
X14879899Y-26489949D03*
X14879899Y-26489949D03*
X15869848Y-25500000D03*
X15869848Y-25500000D03*
D13*
%TO.C,J1*%
X5680000Y-897500D03*
D14*
X6680000Y-6297500D03*
D15*
X7000000Y-5797500D03*
X15000000Y-5787500D03*
D16*
X15320000Y-1747500D03*
D14*
X15320000Y-6287500D03*
D17*
%TO.C,TP2*%
X4000000Y-42000000D03*
%TO.C,TP3*%
X6600000Y-42000000D03*
M02*
