%TF.GenerationSoftware,KiCad,Pcbnew,(6.0.2)*%
%TF.CreationDate,2022-04-22T09:08:26+08:00*%
%TF.ProjectId,usb-nvme,7573622d-6e76-46d6-952e-6b696361645f,rev?*%
%TF.SameCoordinates,Original*%
%TF.FileFunction,Copper,L3,Inr*%
%TF.FilePolarity,Positive*%
%FSLAX46Y46*%
G04 Gerber Fmt 4.6, Leading zero omitted, Abs format (unit mm)*
G04 Created by KiCad (PCBNEW (6.0.2)) date 2022-04-22 09:08:26*
%MOMM*%
%LPD*%
G01*
G04 APERTURE LIST*
G04 Aperture macros list*
%AMRoundRect*
0 Rectangle with rounded corners*
0 $1 Rounding radius*
0 $2 $3 $4 $5 $6 $7 $8 $9 X,Y pos of 4 corners*
0 Add a 4 corners polygon primitive as box body*
4,1,4,$2,$3,$4,$5,$6,$7,$8,$9,$2,$3,0*
0 Add four circle primitives for the rounded corners*
1,1,$1+$1,$2,$3*
1,1,$1+$1,$4,$5*
1,1,$1+$1,$6,$7*
1,1,$1+$1,$8,$9*
0 Add four rect primitives between the rounded corners*
20,1,$1+$1,$2,$3,$4,$5,0*
20,1,$1+$1,$4,$5,$6,$7,0*
20,1,$1+$1,$6,$7,$8,$9,0*
20,1,$1+$1,$8,$9,$2,$3,0*%
G04 Aperture macros list end*
%TA.AperFunction,NonConductor*%
%ADD10C,0.000000*%
%TD*%
%TA.AperFunction,ComponentPad*%
%ADD11R,2.000000X2.000000*%
%TD*%
%TA.AperFunction,ComponentPad*%
%ADD12C,0.700000*%
%TD*%
%TA.AperFunction,ComponentPad*%
%ADD13RoundRect,0.250000X-0.550000X-0.250000X0.550000X-0.250000X0.550000X0.250000X-0.550000X0.250000X0*%
%TD*%
%TA.AperFunction,ComponentPad*%
%ADD14RoundRect,0.250000X-0.250000X-0.750000X0.250000X-0.750000X0.250000X0.750000X-0.250000X0.750000X0*%
%TD*%
%TA.AperFunction,ComponentPad*%
%ADD15RoundRect,0.125000X-0.875000X0.125000X-0.875000X-0.125000X0.875000X-0.125000X0.875000X0.125000X0*%
%TD*%
%TA.AperFunction,ComponentPad*%
%ADD16RoundRect,0.250000X-0.250000X-0.900000X0.250000X-0.900000X0.250000X0.900000X-0.250000X0.900000X0*%
%TD*%
%TA.AperFunction,ViaPad*%
%ADD17C,0.450000*%
%TD*%
%TA.AperFunction,ViaPad*%
%ADD18C,0.500000*%
%TD*%
%TA.AperFunction,Conductor*%
%ADD19C,0.100000*%
%TD*%
%TA.AperFunction,Conductor*%
%ADD20C,0.110000*%
%TD*%
%TA.AperFunction,Conductor*%
%ADD21C,0.095000*%
%TD*%
%TA.AperFunction,Conductor*%
%ADD22C,0.200000*%
%TD*%
G04 APERTURE END LIST*
D10*
G36*
X20750000Y-16200000D02*
G01*
X20550000Y-16200000D01*
X20550000Y-16350000D01*
X20750000Y-16350000D01*
X20750000Y-16400000D01*
X20550000Y-16400000D01*
X20550000Y-16550000D01*
X20750000Y-16550000D01*
X20750000Y-16600000D01*
X20500000Y-16600000D01*
X20500000Y-16150000D01*
X20750000Y-16150000D01*
X20750000Y-16200000D01*
G37*
D11*
%TO.N,+5V*%
%TO.C,TP2*%
X4000000Y-42000000D03*
%TD*%
%TO.N,GND*%
%TO.C,TP3*%
X6600000Y-42000000D03*
%TD*%
D12*
%TO.N,GND*%
%TO.C,U1*%
X14879899Y-26489949D03*
X15869848Y-25500000D03*
X15869848Y-25500000D03*
X11910051Y-27479899D03*
X12900000Y-28469848D03*
X12900000Y-22530152D03*
X13889949Y-25500000D03*
X13889949Y-27479899D03*
X14879899Y-24510051D03*
X10920101Y-24510051D03*
X11910051Y-27479899D03*
X12900000Y-28469848D03*
X13889949Y-25500000D03*
X10920101Y-26489949D03*
X14879899Y-24510051D03*
X11910051Y-25500000D03*
X13889949Y-23520101D03*
X12900000Y-24510051D03*
X12900000Y-26489949D03*
X11910051Y-23520101D03*
X9930152Y-25500000D03*
X12900000Y-26489949D03*
X14879899Y-26489949D03*
X13889949Y-27479899D03*
%TD*%
D13*
%TO.N,GND*%
%TO.C,J1*%
X7000000Y-5797500D03*
D14*
X6680000Y-6297500D03*
D13*
X15000000Y-5787500D03*
D14*
X15320000Y-6287500D03*
D15*
X5680000Y-897500D03*
D16*
X15320000Y-1747500D03*
%TD*%
D17*
%TO.N,USB_TX1+*%
X9405000Y-7954577D03*
%TO.N,PCIe_TX0-*%
X8994455Y-10905545D03*
%TO.N,USB_TX1-*%
X8855000Y-7954577D03*
%TO.N,PCIe_TX0+*%
X8605545Y-11294455D03*
%TO.N,USB_TX2+*%
X13155000Y-4554577D03*
%TO.N,USB_TX2-*%
X12605000Y-4554577D03*
%TO.N,PCIe_TX1-*%
X11775000Y-10812379D03*
%TO.N,PCIe_TX1+*%
X11225000Y-10812379D03*
%TO.N,PCIe_TX2-*%
X15894455Y-12205545D03*
%TO.N,GND*%
X8200000Y-11750000D03*
X16900000Y-40000000D03*
X8100000Y-41300000D03*
X16011270Y-28328427D03*
X16750000Y-10000000D03*
X3100000Y-10500000D03*
X20700000Y-26500000D03*
X7525988Y-30025483D03*
X10400000Y-40300000D03*
X7074500Y-21100000D03*
X18839697Y-29459798D03*
X17500000Y-40000000D03*
X18100000Y-43050000D03*
X7900000Y-7000000D03*
X20700000Y-26000000D03*
X19971068Y-28328427D03*
X12700000Y-18300000D03*
X17500000Y-4300000D03*
X13800000Y-11200000D03*
X17800000Y-7600000D03*
X18900000Y-39500000D03*
X18250000Y-8100000D03*
X18100000Y-42450000D03*
X18900000Y-39100000D03*
X17200000Y-40300000D03*
X13900000Y-33000000D03*
X19500000Y-22200000D03*
X17708326Y-30591169D03*
X11800000Y-39100000D03*
X20400000Y-19000000D03*
X18300000Y-7600000D03*
X10750000Y-8100000D03*
X3100000Y-7800000D03*
X2800000Y-10500000D03*
X18100000Y-42750000D03*
X1100000Y-1200000D03*
X15200000Y-13100000D03*
X21400000Y-600000D03*
X16506245Y-31793250D03*
X18839697Y-21540202D03*
X17708326Y-26631371D03*
X10400000Y-33100000D03*
X1450000Y-8200000D03*
X19750000Y-10000000D03*
X7750000Y-8100000D03*
X16750000Y-8100000D03*
X13750000Y-10000000D03*
X21400000Y-1100000D03*
X11000000Y-42750000D03*
X21400000Y-2600000D03*
X8586649Y-31086144D03*
X7850000Y-33100000D03*
X15799138Y-32500357D03*
X6250000Y-10000000D03*
X4450000Y-8200000D03*
X17300000Y-7600000D03*
X13748528Y-20408831D03*
X19750000Y-8100000D03*
X18900000Y-38700000D03*
X16900000Y-40300000D03*
X9800000Y-40300000D03*
X6250000Y-8100000D03*
X15200000Y-41300000D03*
X11000000Y-42450000D03*
X17200000Y-40000000D03*
X14600000Y-33000000D03*
X10400000Y-40000000D03*
X16750000Y-11200000D03*
X17500000Y-3100000D03*
X6250000Y-38650000D03*
X10100000Y-3400000D03*
X2800000Y-38650000D03*
X14300000Y-7000000D03*
X8303807Y-20055277D03*
X2800000Y-7200000D03*
X2800000Y-7500000D03*
X9300000Y-13100000D03*
X7750000Y-10000000D03*
X12334315Y-20125988D03*
X17300000Y-7100000D03*
X2800000Y-7800000D03*
X3100000Y-7500000D03*
X10750000Y-11200000D03*
X10750000Y-10000000D03*
X5181025Y-23200000D03*
X10000862Y-18358222D03*
X9250000Y-10000000D03*
X11800000Y-38700000D03*
X16011270Y-22671573D03*
X5250000Y-30100000D03*
X21400000Y-1600000D03*
X10100000Y-40000000D03*
X20678175Y-24200000D03*
X17300000Y-6600000D03*
X3100000Y-10800000D03*
X12250000Y-10000000D03*
X10071573Y-22388730D03*
X5758222Y-22600862D03*
X16930509Y-31368986D03*
X18250000Y-10000000D03*
X2800000Y-10800000D03*
X9010914Y-31510407D03*
X2900000Y-40400000D03*
X3100000Y-7200000D03*
X10100000Y-40300000D03*
X12250000Y-11200000D03*
X9152334Y-19206750D03*
X5200000Y-27700000D03*
X12250000Y-8100000D03*
X19750000Y-11200000D03*
D18*
X7500000Y-30980000D03*
D17*
X11000000Y-43050000D03*
X5828932Y-28328427D03*
X11800000Y-39500000D03*
X16859798Y-19560303D03*
X17708326Y-20408831D03*
X1000000Y-43075500D03*
X16011270Y-18711775D03*
X15250000Y-10000000D03*
X17500000Y-40300000D03*
X21400000Y-2100000D03*
X18250000Y-11200000D03*
X16300000Y-11750000D03*
X9800000Y-40000000D03*
%TO.N,USB_CC1*%
X10400000Y-6400000D03*
X11100000Y-31700000D03*
%TO.N,PCIe_TX2+*%
X15505545Y-12594455D03*
%TO.N,USB_CC2*%
X10600000Y-32200000D03*
X11650000Y-6150000D03*
%TO.N,PCIe_TX3-*%
X17775000Y-10812379D03*
%TO.N,PCIe_TX3+*%
X17225000Y-10812379D03*
%TO.N,~{PCIe_RST}*%
X6700000Y-18700000D03*
X7600000Y-28300000D03*
%TO.N,+1V0*%
X9505887Y-28045584D03*
X13400000Y-39500000D03*
X14879899Y-21540202D03*
X7808831Y-24651472D03*
X13465685Y-30874012D03*
X12970711Y-19631014D03*
X18768986Y-25570711D03*
X11202944Y-21257359D03*
X7808831Y-26348528D03*
X13400000Y-39100000D03*
X8400000Y-38700000D03*
X17142641Y-23802944D03*
X9223045Y-23237258D03*
X14879899Y-29459798D03*
X10920101Y-29459798D03*
X16859798Y-27479899D03*
X13400000Y-38700000D03*
X16859798Y-23520101D03*
%TO.N,/3V3P_SW*%
X19800000Y-3400000D03*
X20300000Y-3400000D03*
X19300000Y-3400000D03*
X18800000Y-3400000D03*
X20800000Y-3400000D03*
%TO.N,+5V*%
X16900000Y-500000D03*
X17900000Y-500000D03*
X17400000Y-1100000D03*
X12900000Y-33100000D03*
X16900000Y-1100000D03*
X17400000Y-1600000D03*
X8800000Y-42500000D03*
X18400000Y-500000D03*
X16400000Y-42500000D03*
X19700000Y-500000D03*
X7400000Y-40200000D03*
X16400000Y-43000000D03*
X15900000Y-43000000D03*
X8800000Y-43000000D03*
X16900000Y-1600000D03*
X15900000Y-42500000D03*
X9300000Y-43000000D03*
X9300000Y-42500000D03*
%TO.N,+3.3VP*%
X21500000Y-7100000D03*
X21500000Y-6600000D03*
X21500000Y-6100000D03*
X21500000Y-7600000D03*
X21500000Y-5600000D03*
X18000000Y-6600000D03*
%TO.N,+2V5*%
X9200000Y-40600000D03*
X16789087Y-21328070D03*
X16789087Y-29671930D03*
X19051829Y-27409188D03*
X20500000Y-38700000D03*
X10990812Y-19348171D03*
X15622361Y-30838656D03*
X19758936Y-24297918D03*
X20500000Y-39100000D03*
X15092031Y-19631014D03*
X9293755Y-21045227D03*
X15500000Y-38700000D03*
X20500000Y-39500000D03*
%TO.N,+3V3*%
X1000000Y-3200000D03*
X5200000Y-38800000D03*
X11400000Y-33100000D03*
X9505887Y-30166905D03*
X5899643Y-24439340D03*
X2200000Y-39300000D03*
X14844544Y-31616474D03*
X6100000Y-18700000D03*
X16300000Y-40600000D03*
X6700000Y-32900000D03*
%TO.N,LS_LED*%
X1400000Y-40200000D03*
X2800000Y-3200000D03*
X7400000Y-22400000D03*
%TO.N,HS_LED*%
X10000000Y-28400000D03*
X4100000Y-3700000D03*
X1400000Y-39200000D03*
%TO.N,USB_D+*%
X10892153Y-6703797D03*
X11155000Y-3749500D03*
X16382501Y-32765522D03*
X11104502Y-5800000D03*
%TO.N,USB_D-*%
X10605000Y-3749500D03*
X11375500Y-7300000D03*
X16771410Y-32376613D03*
%TO.N,USB_RX2-*%
X12855000Y-7954577D03*
%TO.N,USB_RX2+*%
X13405000Y-7954577D03*
%TO.N,USB_RX1-*%
X8405545Y-4794455D03*
%TO.N,USB_RX1+*%
X8794455Y-4405545D03*
%TO.N,M2_LED*%
X19700000Y-19000000D03*
X3800000Y-1000000D03*
X1700000Y-42500000D03*
%TO.N,PCIe_PWR_EN*%
X17700000Y-3700000D03*
X5900000Y-27300000D03*
X19800000Y-4100000D03*
%TO.N,SPI_DO*%
X5300000Y-31500000D03*
X10400000Y-28900000D03*
%TO.N,SPI_CLK*%
X5800000Y-31200000D03*
D18*
X7500000Y-31620000D03*
D17*
%TO.N,SPI_DI*%
X6200000Y-30400000D03*
X9400000Y-32300000D03*
%TO.N,PCIe_REFCLK-*%
X7275000Y-10800000D03*
X19030282Y-22755282D03*
%TO.N,PCIe_REFCLK+*%
X18480282Y-22755282D03*
X6725000Y-10800000D03*
%TO.N,PCIe_RX3-*%
X19275000Y-10812379D03*
%TO.N,PCIe_RX3+*%
X18725000Y-10812379D03*
%TO.N,PCIe_RX2-*%
X15894455Y-11294455D03*
%TO.N,PCIe_RX2+*%
X15505545Y-10905545D03*
%TO.N,PCIe_RX1-*%
X13275000Y-10812379D03*
%TO.N,PCIe_RX1+*%
X12725000Y-10812379D03*
%TO.N,PCIe_RX0-*%
X8994455Y-12594455D03*
%TO.N,PCIe_RX0+*%
X8605545Y-12205545D03*
%TO.N,PCIe_DET*%
X2350000Y-11700000D03*
X6700000Y-22400000D03*
%TO.N,PCIe_CLKREQ*%
X5750000Y-21150000D03*
X5500000Y-18700000D03*
%TO.N,VBUS_DET*%
X4600000Y-38800000D03*
X9400000Y-33100000D03*
%TD*%
D19*
%TO.N,VBUS_DET*%
X4600001Y-37941421D02*
G75*
G02*
X4629291Y-37870711I99994J2D01*
G01*
%TO.N,PCIe_DET*%
X5541421Y-21900000D02*
G75*
G02*
X5470711Y-21870711I0J99999D01*
G01*
X6158579Y-21900001D02*
G75*
G02*
X6229289Y-21929291I2J-99994D01*
G01*
%TO.N,PCIe_CLKREQ*%
X5529290Y-20929290D02*
G75*
G02*
X5500000Y-20858579I70705J70709D01*
G01*
%TO.N,PCIe_DET*%
X2379290Y-18779290D02*
G75*
G02*
X2350000Y-18708579I70705J70709D01*
G01*
D20*
%TO.N,PCIe_REFCLK+*%
X6895001Y-13502073D02*
G75*
G03*
X6924291Y-13572783I99994J-2D01*
G01*
%TO.N,PCIe_REFCLK-*%
X7134290Y-13485796D02*
G75*
G02*
X7105000Y-13415085I70705J70709D01*
G01*
X7134289Y-10940711D02*
G75*
G03*
X7105000Y-11011421I70710J-70710D01*
G01*
X8914205Y-15265711D02*
G75*
G03*
X8984915Y-15295000I70710J70710D01*
G01*
%TO.N,PCIe_REFCLK+*%
X18100001Y-22058579D02*
G75*
G03*
X18129291Y-22129289I99994J-2D01*
G01*
X6895000Y-11011421D02*
G75*
G03*
X6865711Y-10940711I-99999J0D01*
G01*
D19*
%TO.N,SPI_DI*%
X7658579Y-30400000D02*
G75*
G02*
X7729289Y-30429289I0J-99999D01*
G01*
D20*
%TO.N,PCIe_REFCLK-*%
X18889572Y-22614572D02*
G75*
G02*
X18860282Y-22543861I70705J70709D01*
G01*
D19*
%TO.N,SPI_DI*%
X8541421Y-32299999D02*
G75*
G02*
X8470711Y-32270709I-2J99994D01*
G01*
%TO.N,SPI_CLK*%
X6190711Y-31590711D02*
G75*
G03*
X6261421Y-31620000I70710J70710D01*
G01*
%TO.N,SPI_DO*%
X9729290Y-29570710D02*
G75*
G02*
X9658579Y-29600000I-70709J70705D01*
G01*
D20*
%TO.N,PCIe_REFCLK+*%
X11785795Y-15534289D02*
G75*
G03*
X11715085Y-15505000I-70710J-70710D01*
G01*
X8827217Y-15475711D02*
G75*
G03*
X8897927Y-15505000I70710J70710D01*
G01*
X18194958Y-22194958D02*
G75*
G03*
X18265668Y-22224247I70710J70710D01*
G01*
D19*
%TO.N,SPI_DO*%
X6441421Y-29600000D02*
G75*
G03*
X6370711Y-29629289I0J-99999D01*
G01*
X5300001Y-30741421D02*
G75*
G02*
X5329291Y-30670711I99994J2D01*
G01*
D20*
%TO.N,PCIe_REFCLK+*%
X18650282Y-22440197D02*
G75*
G03*
X18620993Y-22369486I-99999J1D01*
G01*
X18434332Y-22224247D02*
G75*
G02*
X18505042Y-22253536I0J-99999D01*
G01*
X18650281Y-22543861D02*
G75*
G02*
X18620991Y-22614571I-99994J-2D01*
G01*
X17644957Y-21644957D02*
G75*
G03*
X17715667Y-21674246I70710J70710D01*
G01*
D19*
%TO.N,SPI_DI*%
X8070710Y-30770710D02*
G75*
G02*
X8100000Y-30841421I-70705J-70709D01*
G01*
X8129289Y-31929289D02*
G75*
G02*
X8100000Y-31858579I70710J70710D01*
G01*
D20*
%TO.N,PCIe_REFCLK+*%
X18100000Y-21889914D02*
G75*
G03*
X18070711Y-21819204I-99999J0D01*
G01*
X17884332Y-21674246D02*
G75*
G02*
X17955043Y-21703535I1J-99999D01*
G01*
%TO.N,PCIe_REFCLK-*%
X18860282Y-22353209D02*
G75*
G03*
X18830993Y-22282499I-99999J0D01*
G01*
X11802073Y-15295001D02*
G75*
G02*
X11872783Y-15324291I2J-99994D01*
G01*
%TO.N,PCIe_REFCLK+*%
X17605044Y-21605044D02*
G75*
G02*
X17575754Y-21534333I70705J70709D01*
G01*
X17546464Y-21294956D02*
G75*
G02*
X17575754Y-21365667I-70705J-70709D01*
G01*
D19*
%TO.N,M2_LED*%
X2541421Y-1000000D02*
G75*
G03*
X2470711Y-1029289I0J-99999D01*
G01*
X12270710Y-32029290D02*
G75*
G03*
X12300000Y-31958579I-70705J70709D01*
G01*
X11629289Y-32670711D02*
G75*
G02*
X11558579Y-32700000I-70710J70710D01*
G01*
%TO.N,PCIe_PWR_EN*%
X5029289Y-4770711D02*
G75*
G03*
X5000000Y-4841421I70710J-70710D01*
G01*
%TO.N,M2_LED*%
X12300000Y-30641421D02*
G75*
G02*
X12329289Y-30570711I99999J0D01*
G01*
%TO.N,PCIe_PWR_EN*%
X5000001Y-15758579D02*
G75*
G03*
X5029291Y-15829289I99994J-2D01*
G01*
X6870710Y-2929290D02*
G75*
G02*
X6941421Y-2900000I70709J-70705D01*
G01*
%TO.N,M2_LED*%
X429290Y-3070710D02*
G75*
G03*
X400000Y-3141421I70705J-70709D01*
G01*
X429289Y-41229289D02*
G75*
G02*
X400000Y-41158579I70710J70710D01*
G01*
X20170710Y-22729290D02*
G75*
G03*
X20200000Y-22658579I-70705J70709D01*
G01*
X20170711Y-19470711D02*
G75*
G02*
X20200000Y-19541421I-70710J-70710D01*
G01*
%TO.N,PCIe_PWR_EN*%
X18070711Y-4070711D02*
G75*
G03*
X18141421Y-4100000I70710J70710D01*
G01*
X13958579Y-2900000D02*
G75*
G02*
X14029289Y-2929289I0J-99999D01*
G01*
X14841421Y-3699999D02*
G75*
G02*
X14770711Y-3670709I-2J99994D01*
G01*
%TO.N,M2_LED*%
X2200000Y-39941421D02*
G75*
G03*
X2170711Y-39870711I-99999J0D01*
G01*
X1800001Y-39458579D02*
G75*
G03*
X1829291Y-39529289I99994J-2D01*
G01*
%TO.N,PCIe_PWR_EN*%
X7370710Y-28770710D02*
G75*
G03*
X7441421Y-28800000I70709J70705D01*
G01*
X7758579Y-28800000D02*
G75*
G03*
X7829289Y-28770711I0J99999D01*
G01*
%TO.N,M2_LED*%
X2199999Y-41958579D02*
G75*
G02*
X2170709Y-42029289I-99994J-2D01*
G01*
%TO.N,PCIe_PWR_EN*%
X8270710Y-28329290D02*
G75*
G03*
X8300000Y-28258579I-70705J70709D01*
G01*
X8329289Y-24970711D02*
G75*
G03*
X8300000Y-25041421I70710J-70710D01*
G01*
%TO.N,M2_LED*%
X1800000Y-34041421D02*
G75*
G02*
X1829289Y-33970711I99999J0D01*
G01*
X3541421Y-32300001D02*
G75*
G03*
X3470711Y-32329291I-2J-99994D01*
G01*
%TO.N,PCIe_PWR_EN*%
X9667772Y-23632228D02*
G75*
G03*
X9697062Y-23561517I-70705J70709D01*
G01*
X9667773Y-20467773D02*
G75*
G02*
X9697062Y-20538483I-70710J-70710D01*
G01*
%TO.N,M2_LED*%
X7058579Y-32300000D02*
G75*
G02*
X7129289Y-32329289I0J-99999D01*
G01*
X7541421Y-32699999D02*
G75*
G02*
X7470711Y-32670709I-2J99994D01*
G01*
D21*
%TO.N,USB_D-*%
X19508579Y-32650000D02*
G75*
G02*
X19579289Y-32679289I0J-99999D01*
G01*
X20118193Y-8697501D02*
G75*
G02*
X20188903Y-8726791I2J-99994D01*
G01*
X19673210Y-32773210D02*
G75*
G03*
X19743921Y-32802500I70709J70705D01*
G01*
X19918193Y-32802500D02*
G75*
G03*
X19988903Y-32773211I0J99999D01*
G01*
X21302499Y-30161079D02*
G75*
G02*
X21273209Y-30231789I-99994J-2D01*
G01*
X17738921Y-32802499D02*
G75*
G02*
X17668211Y-32773209I-2J99994D01*
G01*
X17574289Y-32679289D02*
G75*
G03*
X17503579Y-32650000I-70710J-70710D01*
G01*
X16800699Y-32656925D02*
G75*
G02*
X16771410Y-32586215I70710J70710D01*
G01*
X15101035Y-8697500D02*
G75*
G02*
X15030325Y-8668211I0J99999D01*
G01*
X10782501Y-4378965D02*
G75*
G03*
X10811791Y-4449675I99994J-2D01*
G01*
X21302500Y-19738921D02*
G75*
G03*
X21273211Y-19668211I-99999J0D01*
G01*
X10782500Y-3968421D02*
G75*
G03*
X10753211Y-3897711I-99999J0D01*
G01*
X20973210Y-12188904D02*
G75*
G03*
X21002500Y-12118193I-70705J70709D01*
G01*
X20973211Y-9511097D02*
G75*
G02*
X21002500Y-9581807I-70710J-70710D01*
G01*
X17391421Y-32650001D02*
G75*
G03*
X17320711Y-32679291I-2J-99994D01*
G01*
X16916984Y-32773210D02*
G75*
G03*
X16987695Y-32802500I70709J70705D01*
G01*
X17226789Y-32773211D02*
G75*
G02*
X17156079Y-32802500I-70710J70710D01*
G01*
X21273210Y-19226790D02*
G75*
G03*
X21302500Y-19156079I-70705J70709D01*
G01*
X21273211Y-18911097D02*
G75*
G02*
X21302500Y-18981807I-70710J-70710D01*
G01*
X21179290Y-19574290D02*
G75*
G02*
X21150000Y-19503579I70705J70709D01*
G01*
X21179289Y-19320711D02*
G75*
G03*
X21150000Y-19391421I70710J-70710D01*
G01*
X19161079Y-32802500D02*
G75*
G03*
X19231789Y-32773211I0J99999D01*
G01*
X19396421Y-32650001D02*
G75*
G03*
X19325711Y-32679291I-2J-99994D01*
G01*
D19*
%TO.N,HS_LED*%
X3129290Y-2729290D02*
G75*
G03*
X3058579Y-2700000I-70709J-70705D01*
G01*
D21*
%TO.N,USB_D+*%
X11006789Y-3897711D02*
G75*
G03*
X10977500Y-3968421I70710J-70710D01*
G01*
D19*
%TO.N,HS_LED*%
X1400001Y-39458579D02*
G75*
G03*
X1429291Y-39529289I99994J-2D01*
G01*
X1870711Y-39970711D02*
G75*
G02*
X1900000Y-40041421I-70710J-70710D01*
G01*
D21*
%TO.N,USB_D+*%
X21168210Y-12269676D02*
G75*
G03*
X21197500Y-12198965I-70705J70709D01*
G01*
X19626789Y-13811097D02*
G75*
G03*
X19597500Y-13881807I70710J-70710D01*
G01*
X20069675Y-32968211D02*
G75*
G02*
X19998965Y-32997500I-70710J70710D01*
G01*
X15181807Y-8502500D02*
G75*
G02*
X15111097Y-8473211I0J99999D01*
G01*
X10977501Y-4298193D02*
G75*
G03*
X11006791Y-4368903I99994J-2D01*
G01*
D19*
%TO.N,HS_LED*%
X5341421Y-29200000D02*
G75*
G03*
X5270711Y-29229289I0J-99999D01*
G01*
D21*
%TO.N,USB_D+*%
X16592103Y-32765522D02*
G75*
G02*
X16662813Y-32794811I0J-99999D01*
G01*
X16906923Y-32997499D02*
G75*
G02*
X16836213Y-32968209I-2J99994D01*
G01*
D19*
%TO.N,HS_LED*%
X9158579Y-29200000D02*
G75*
G03*
X9229289Y-29170711I0J99999D01*
G01*
D21*
%TO.N,USB_D+*%
X21197500Y-9501035D02*
G75*
G03*
X21168211Y-9430325I-99999J0D01*
G01*
X20198965Y-8502501D02*
G75*
G02*
X20269675Y-8531791I2J-99994D01*
G01*
D19*
%TO.N,HS_LED*%
X1558579Y-40700000D02*
G75*
G03*
X1629289Y-40670711I0J99999D01*
G01*
X1899999Y-40358579D02*
G75*
G02*
X1870709Y-40429289I-99994J-2D01*
G01*
X2641421Y-2700000D02*
G75*
G03*
X2570711Y-2729289I0J-99999D01*
G01*
X700001Y-4641421D02*
G75*
G02*
X729291Y-4570711I99994J2D01*
G01*
X1429290Y-33070710D02*
G75*
G03*
X1400000Y-33141421I70705J-70709D01*
G01*
D21*
%TO.N,USB_D-*%
X21273210Y-31488904D02*
G75*
G03*
X21302500Y-31418193I-70705J70709D01*
G01*
X21273211Y-30673211D02*
G75*
G02*
X21302500Y-30743921I-70710J-70710D01*
G01*
%TO.N,USB_D+*%
X21468210Y-31569676D02*
G75*
G03*
X21497500Y-31498965I-70705J70709D01*
G01*
X21497500Y-18901035D02*
G75*
G03*
X21468211Y-18830325I-99999J0D01*
G01*
X19597501Y-16918193D02*
G75*
G03*
X19626791Y-16988903I99994J-2D01*
G01*
D19*
%TO.N,HS_LED*%
X700000Y-40158579D02*
G75*
G03*
X729289Y-40229289I99999J0D01*
G01*
X1241421Y-40699999D02*
G75*
G02*
X1170711Y-40670709I-2J99994D01*
G01*
D21*
%TO.N,USB_D-*%
X19431790Y-17069676D02*
G75*
G02*
X19402500Y-16998965I70705J70709D01*
G01*
X19431789Y-13730325D02*
G75*
G03*
X19402500Y-13801035I70710J-70710D01*
G01*
X21179290Y-30579290D02*
G75*
G02*
X21150000Y-30508579I70705J70709D01*
G01*
X21179289Y-30325711D02*
G75*
G03*
X21150000Y-30396421I70710J-70710D01*
G01*
D19*
%TO.N,+3V3*%
X4570710Y-3470710D02*
G75*
G02*
X4600000Y-3541421I-70705J-70709D01*
G01*
X10829290Y-33670710D02*
G75*
G02*
X10758579Y-33700000I-70709J70705D01*
G01*
%TO.N,LS_LED*%
X1029290Y-39829290D02*
G75*
G02*
X1000000Y-39758579I70705J70709D01*
G01*
X1000001Y-24241421D02*
G75*
G02*
X1029291Y-24170711I99994J2D01*
G01*
X5158579Y-24000000D02*
G75*
G03*
X5229289Y-23970711I0J99999D01*
G01*
X5941421Y-23300001D02*
G75*
G03*
X5870711Y-23329291I-2J-99994D01*
G01*
%TO.N,+3V3*%
X10341421Y-33700000D02*
G75*
G03*
X10270711Y-33729289I0J-99999D01*
G01*
%TO.N,LS_LED*%
X1029290Y-4970710D02*
G75*
G03*
X1000000Y-5041421I70705J-70709D01*
G01*
%TO.N,+3V3*%
X3529289Y-2429289D02*
G75*
G03*
X3458579Y-2400000I-70710J-70710D01*
G01*
%TO.N,LS_LED*%
X6958579Y-23300000D02*
G75*
G03*
X7029289Y-23270711I0J99999D01*
G01*
X7399999Y-22858579D02*
G75*
G02*
X7370709Y-22929289I-99994J-2D01*
G01*
%TO.N,+3V3*%
X4600000Y-3858579D02*
G75*
G02*
X4570711Y-3929289I-99999J0D01*
G01*
%TO.N,LS_LED*%
X1000000Y-23758579D02*
G75*
G03*
X1029289Y-23829289I99999J0D01*
G01*
%TO.N,+3V3*%
X6100001Y-19258579D02*
G75*
G03*
X6129291Y-19329289I99994J-2D01*
G01*
X7870711Y-21070711D02*
G75*
G02*
X7900000Y-21141421I-70710J-70710D01*
G01*
X2229290Y-37370710D02*
G75*
G03*
X2200000Y-37441421I70705J-70709D01*
G01*
X3729290Y-4770710D02*
G75*
G03*
X3700000Y-4841421I70705J-70709D01*
G01*
X3700000Y-16258579D02*
G75*
G03*
X3729289Y-16329289I99999J0D01*
G01*
X1841421Y-2400001D02*
G75*
G03*
X1770711Y-2429291I-2J-99994D01*
G01*
X16270710Y-34141070D02*
G75*
G02*
X16300000Y-34211781I-70705J-70709D01*
G01*
X15170710Y-31942640D02*
G75*
G02*
X15200000Y-32013351I-70705J-70709D01*
G01*
X15229289Y-33099649D02*
G75*
G02*
X15200000Y-33028939I70710J70710D01*
G01*
X6319239Y-24439340D02*
G75*
G03*
X6389949Y-24410051I0J99999D01*
G01*
X7899999Y-22858579D02*
G75*
G02*
X7870709Y-22929289I-99994J-2D01*
G01*
%TO.N,+2V5*%
X13429290Y-40770710D02*
G75*
G02*
X13358579Y-40800000I-70709J70705D01*
G01*
X9441421Y-40800000D02*
G75*
G02*
X9370711Y-40770711I0J99999D01*
G01*
D22*
%TO.N,+5V*%
X8329289Y-40170711D02*
G75*
G02*
X8258579Y-40200000I-70710J70710D01*
G01*
X12870710Y-35629290D02*
G75*
G03*
X12900000Y-35558579I-70705J70709D01*
G01*
D19*
%TO.N,~{PCIe_RST}*%
X7200000Y-24141421D02*
G75*
G02*
X7229289Y-24070711I99999J0D01*
G01*
X8170710Y-23129290D02*
G75*
G03*
X8200000Y-23058579I-70705J70709D01*
G01*
X8170711Y-20870711D02*
G75*
G02*
X8200000Y-20941421I-70710J-70710D01*
G01*
X7200001Y-27858579D02*
G75*
G03*
X7229291Y-27929289I99994J-2D01*
G01*
X6729290Y-19429290D02*
G75*
G02*
X6700000Y-19358579I70705J70709D01*
G01*
%TO.N,USB_CC1*%
X5600000Y-5241421D02*
G75*
G02*
X5629289Y-5170711I99999J0D01*
G01*
X8929289Y-25170711D02*
G75*
G03*
X8900000Y-25241421I70710J-70710D01*
G01*
%TO.N,USB_CC2*%
X11400000Y-30758579D02*
G75*
G02*
X11370711Y-30829289I-99999J0D01*
G01*
%TO.N,USB_CC1*%
X10370710Y-4870710D02*
G75*
G02*
X10400000Y-4941421I-70705J-70709D01*
G01*
%TO.N,USB_CC2*%
X8600000Y-25858579D02*
G75*
G03*
X8629289Y-25929289I99999J0D01*
G01*
X11399999Y-28741421D02*
G75*
G03*
X11370709Y-28670711I-99994J2D01*
G01*
X8600001Y-25141421D02*
G75*
G02*
X8629291Y-25070711I99994J2D01*
G01*
X10629290Y-31570710D02*
G75*
G03*
X10600000Y-31641421I70705J-70709D01*
G01*
%TO.N,USB_CC1*%
X7270710Y-3529290D02*
G75*
G02*
X7341421Y-3500000I70709J-70705D01*
G01*
X9029289Y-3529289D02*
G75*
G03*
X8958579Y-3500000I-70710J-70710D01*
G01*
X10770710Y-23329290D02*
G75*
G03*
X10800000Y-23258579I-70705J70709D01*
G01*
%TO.N,USB_CC2*%
X10470710Y-19870710D02*
G75*
G02*
X10500000Y-19941421I-70705J-70709D01*
G01*
X10470711Y-23229289D02*
G75*
G03*
X10500000Y-23158579I-70710J70710D01*
G01*
%TO.N,USB_CC1*%
X10800000Y-19841421D02*
G75*
G03*
X10770711Y-19770711I-99999J0D01*
G01*
X5600001Y-14558579D02*
G75*
G03*
X5629291Y-14629289I99994J-2D01*
G01*
X11670710Y-31129290D02*
G75*
G03*
X11700000Y-31058579I-70705J70709D01*
G01*
%TO.N,USB_CC2*%
X11650000Y-5791421D02*
G75*
G03*
X11620711Y-5720711I-99999J0D01*
G01*
X9058579Y-3200001D02*
G75*
G02*
X9129289Y-3229291I2J-99994D01*
G01*
%TO.N,USB_CC1*%
X11700000Y-28641421D02*
G75*
G03*
X11670711Y-28570711I-99999J0D01*
G01*
X8900001Y-25758579D02*
G75*
G03*
X8929291Y-25829289I99994J-2D01*
G01*
%TO.N,USB_CC2*%
X7141421Y-3200000D02*
G75*
G03*
X7070711Y-3229289I0J-99999D01*
G01*
X5329290Y-4970710D02*
G75*
G03*
X5300000Y-5041421I70705J-70709D01*
G01*
X5329289Y-14729289D02*
G75*
G02*
X5300000Y-14658579I70710J70710D01*
G01*
%TO.N,USB_CC1*%
X7270710Y-3529290D02*
X5629289Y-5170711D01*
X11700000Y-28641421D02*
X11700000Y-31058579D01*
X5629290Y-14629290D02*
X10770711Y-19770711D01*
X10770710Y-23329290D02*
X8929289Y-25170711D01*
X8958579Y-3500000D02*
X7341421Y-3500000D01*
X8900000Y-25241421D02*
X8900000Y-25758579D01*
X8929290Y-25829290D02*
X11670711Y-28570711D01*
X5600000Y-5241421D02*
X5600000Y-14558579D01*
X10800000Y-19841421D02*
X10800000Y-23258579D01*
X10400000Y-6400000D02*
X10400000Y-4941421D01*
X10370710Y-4870710D02*
X9029289Y-3529289D01*
X11670710Y-31129290D02*
X11100000Y-31700000D01*
%TO.N,USB_CC2*%
X10470710Y-19870710D02*
X5329289Y-14729289D01*
X11400000Y-30758579D02*
X11400000Y-28741421D01*
X10500000Y-23158579D02*
X10500000Y-19941421D01*
X9129290Y-3229290D02*
X11620711Y-5720711D01*
X7141421Y-3200000D02*
X9058579Y-3200000D01*
X10600000Y-32200000D02*
X10600000Y-31641421D01*
X5300000Y-14658579D02*
X5300000Y-5041421D01*
X8600000Y-25858579D02*
X8600000Y-25141421D01*
X8629290Y-25070710D02*
X10470711Y-23229289D01*
X10629290Y-31570710D02*
X11370711Y-30829289D01*
X11370710Y-28670710D02*
X8629289Y-25929289D01*
X11650000Y-5791421D02*
X11650000Y-6150000D01*
X5329290Y-4970710D02*
X7070711Y-3229289D01*
%TO.N,~{PCIe_RST}*%
X7200000Y-24141421D02*
X7200000Y-27858579D01*
X6729290Y-19429290D02*
X8170711Y-20870711D01*
X6700000Y-18700000D02*
X6700000Y-19358579D01*
X8200000Y-20941421D02*
X8200000Y-23058579D01*
X7229290Y-27929290D02*
X7600000Y-28300000D01*
X8170710Y-23129290D02*
X7229289Y-24070711D01*
D22*
%TO.N,+5V*%
X12900000Y-33100000D02*
X12900000Y-35558579D01*
X8258579Y-40200000D02*
X7400000Y-40200000D01*
X12870710Y-35629290D02*
X8329289Y-40170711D01*
D19*
%TO.N,+2V5*%
X9441421Y-40800000D02*
X13358579Y-40800000D01*
X13429290Y-40770710D02*
X15500000Y-38700000D01*
X9200000Y-40600000D02*
X9370711Y-40770711D01*
%TO.N,+3V3*%
X3458579Y-2400000D02*
X1841421Y-2400000D01*
X15170710Y-31942640D02*
X14844544Y-31616474D01*
X16300000Y-40600000D02*
X16300000Y-34211781D01*
X4600000Y-3858579D02*
X4600000Y-3541421D01*
X3729290Y-4770710D02*
X4570711Y-3929289D01*
X3700000Y-16258579D02*
X3700000Y-4841421D01*
X6100000Y-18700000D02*
X3729289Y-16329289D01*
X10341421Y-33700000D02*
X10758579Y-33700000D01*
X15200000Y-33028939D02*
X15200000Y-32013351D01*
X10829290Y-33670710D02*
X11400000Y-33100000D01*
X6100000Y-18700000D02*
X6100000Y-19258579D01*
X2229290Y-37370710D02*
X6700000Y-32900000D01*
X6129290Y-19329290D02*
X7870711Y-21070711D01*
X7870710Y-22929290D02*
X6389949Y-24410051D01*
X2200000Y-39300000D02*
X2200000Y-37441421D01*
X5200000Y-38800000D02*
X10270711Y-33729289D01*
X16270710Y-34141070D02*
X15229289Y-33099649D01*
X7900000Y-21141421D02*
X7900000Y-22858579D01*
X1770710Y-2429290D02*
X1000000Y-3200000D01*
X6319239Y-24439340D02*
X5899643Y-24439340D01*
X4570710Y-3470710D02*
X3529289Y-2429289D01*
%TO.N,LS_LED*%
X1029290Y-39829290D02*
X1400000Y-40200000D01*
X7370710Y-22929290D02*
X7029289Y-23270711D01*
X1200000Y-24000000D02*
X1029289Y-23829289D01*
X7400000Y-22400000D02*
X7400000Y-22858579D01*
X6958579Y-23300000D02*
X5941421Y-23300000D01*
X1000000Y-23758579D02*
X1000000Y-5041421D01*
X1029290Y-24170710D02*
X1200000Y-24000000D01*
X5870710Y-23329290D02*
X5229289Y-23970711D01*
X1000000Y-39758579D02*
X1000000Y-24241421D01*
X1029290Y-4970710D02*
X2800000Y-3200000D01*
X5158579Y-24000000D02*
X1200000Y-24000000D01*
%TO.N,HS_LED*%
X1400000Y-39200000D02*
X1400000Y-33141421D01*
X1558579Y-40700000D02*
X1241421Y-40700000D01*
X1900000Y-40041421D02*
X1900000Y-40358579D01*
X729290Y-4570710D02*
X2570711Y-2729289D01*
X3129290Y-2729290D02*
X4100000Y-3700000D01*
X1429290Y-39529290D02*
X1870711Y-39970711D01*
X1870710Y-40429290D02*
X1629289Y-40670711D01*
X1400000Y-39200000D02*
X1400000Y-39458579D01*
X1170710Y-40670710D02*
X729289Y-40229289D01*
X1429290Y-33070710D02*
X5270711Y-29229289D01*
X700000Y-40158579D02*
X700000Y-4641421D01*
X2641421Y-2700000D02*
X3058579Y-2700000D01*
X10000000Y-28400000D02*
X9229289Y-29170711D01*
X9158579Y-29200000D02*
X5341421Y-29200000D01*
D21*
%TO.N,USB_D+*%
X20269676Y-8531790D02*
X21168211Y-9430325D01*
X19626790Y-16988904D02*
X21468211Y-18830325D01*
X19998965Y-32997500D02*
X16906923Y-32997500D01*
X16836212Y-32968210D02*
X16662813Y-32794811D01*
X21468210Y-31569676D02*
X20069675Y-32968211D01*
X11006790Y-4368904D02*
X15111097Y-8473211D01*
X21497500Y-18901035D02*
X21497500Y-31498965D01*
X16592103Y-32765522D02*
X16382501Y-32765522D01*
X19597500Y-13881807D02*
X19597500Y-16918193D01*
X21197500Y-9501035D02*
X21197500Y-12198965D01*
X11155000Y-3749500D02*
X11006789Y-3897711D01*
X10977500Y-3968421D02*
X10977500Y-4298193D01*
X21168210Y-12269676D02*
X19626789Y-13811097D01*
X15181807Y-8502500D02*
X20198965Y-8502500D01*
%TO.N,USB_D-*%
X21302500Y-30743921D02*
X21302500Y-31418193D01*
X19325710Y-32679290D02*
X19231789Y-32773211D01*
X21150000Y-19391421D02*
X21150000Y-19503579D01*
X21302500Y-18981807D02*
X21302500Y-19156079D01*
X17156079Y-32802500D02*
X16987695Y-32802500D01*
X21150000Y-30396421D02*
X21150000Y-30508579D01*
X17320710Y-32679290D02*
X17226789Y-32773211D01*
X21002500Y-9581807D02*
X21002500Y-12118193D01*
X19402500Y-13801035D02*
X19402500Y-16998965D01*
X16771410Y-32586215D02*
X16771410Y-32376613D01*
X21273210Y-19226790D02*
X21179289Y-19320711D01*
X19431790Y-17069676D02*
X21273211Y-18911097D01*
X21179290Y-30579290D02*
X21273211Y-30673211D01*
X21273210Y-31488904D02*
X19988903Y-32773211D01*
X17503579Y-32650000D02*
X17391421Y-32650000D01*
X20188904Y-8726790D02*
X20973211Y-9511097D01*
X16916984Y-32773210D02*
X16800699Y-32656925D01*
X10605000Y-3749500D02*
X10753211Y-3897711D01*
X20973210Y-12188904D02*
X19431789Y-13730325D01*
X17668210Y-32773210D02*
X17574289Y-32679289D01*
X21179290Y-19574290D02*
X21273211Y-19668211D01*
X10782500Y-3968421D02*
X10782500Y-4378965D01*
X19918193Y-32802500D02*
X19743921Y-32802500D01*
X21273210Y-30231790D02*
X21179289Y-30325711D01*
X19508579Y-32650000D02*
X19396421Y-32650000D01*
X19161079Y-32802500D02*
X17738921Y-32802500D01*
X10811790Y-4449676D02*
X15030325Y-8668211D01*
X19673210Y-32773210D02*
X19579289Y-32679289D01*
X21302500Y-19738921D02*
X21302500Y-30161079D01*
X15101035Y-8697500D02*
X20118193Y-8697500D01*
D19*
%TO.N,M2_LED*%
X12300000Y-30641421D02*
X12300000Y-31958579D01*
X2200000Y-39941421D02*
X2200000Y-41958579D01*
X20170710Y-22729290D02*
X12329289Y-30570711D01*
X400000Y-41158579D02*
X400000Y-3141421D01*
X1700000Y-42500000D02*
X429289Y-41229289D01*
X7470710Y-32670710D02*
X7129289Y-32329289D01*
X2541421Y-1000000D02*
X3800000Y-1000000D01*
X2170710Y-42029290D02*
X1700000Y-42500000D01*
X1829290Y-39529290D02*
X2170711Y-39870711D01*
X7058579Y-32300000D02*
X3541421Y-32300000D01*
X19700000Y-19000000D02*
X20170711Y-19470711D01*
X20200000Y-19541421D02*
X20200000Y-22658579D01*
X12270710Y-32029290D02*
X11629289Y-32670711D01*
X3470710Y-32329290D02*
X1829289Y-33970711D01*
X429290Y-3070710D02*
X2470711Y-1029289D01*
X11558579Y-32700000D02*
X7541421Y-32700000D01*
X1800000Y-34041421D02*
X1800000Y-39458579D01*
%TO.N,PCIe_PWR_EN*%
X14770710Y-3670710D02*
X14029289Y-2929289D01*
X6870710Y-2929290D02*
X5029289Y-4770711D01*
X9667772Y-23632228D02*
X8329289Y-24970711D01*
X17700000Y-3700000D02*
X18070711Y-4070711D01*
X13958579Y-2900000D02*
X6941421Y-2900000D01*
X18141421Y-4100000D02*
X19800000Y-4100000D01*
X5029290Y-15829290D02*
X9667773Y-20467773D01*
X8270710Y-28329290D02*
X7829289Y-28770711D01*
X9697062Y-20538483D02*
X9697062Y-23561517D01*
X8300000Y-25041421D02*
X8300000Y-28258579D01*
X7370710Y-28770710D02*
X5900000Y-27300000D01*
X5000000Y-4841421D02*
X5000000Y-15758579D01*
X17700000Y-3700000D02*
X14841421Y-3700000D01*
X7758579Y-28800000D02*
X7441421Y-28800000D01*
%TO.N,SPI_DO*%
X5329290Y-30670710D02*
X6370711Y-29629289D01*
X6441421Y-29600000D02*
X9658579Y-29600000D01*
X9729290Y-29570710D02*
X10400000Y-28900000D01*
X5300000Y-31500000D02*
X5300000Y-30741421D01*
%TO.N,SPI_CLK*%
X6261421Y-31620000D02*
X7500000Y-31620000D01*
X5800000Y-31200000D02*
X6190711Y-31590711D01*
%TO.N,SPI_DI*%
X8070710Y-30770710D02*
X7729289Y-30429289D01*
X7658579Y-30400000D02*
X6200000Y-30400000D01*
X8100000Y-31858579D02*
X8100000Y-30841421D01*
X8470710Y-32270710D02*
X8129289Y-31929289D01*
X9400000Y-32300000D02*
X8541421Y-32300000D01*
D20*
%TO.N,PCIe_REFCLK-*%
X7275000Y-10800000D02*
X7134289Y-10940711D01*
X7134290Y-13485796D02*
X8914205Y-15265711D01*
X18889572Y-22614572D02*
X19030282Y-22755282D01*
X8984915Y-15295000D02*
X11802073Y-15295000D01*
X11872784Y-15324290D02*
X18830993Y-22282499D01*
X18860282Y-22353209D02*
X18860282Y-22543861D01*
X7105000Y-11011421D02*
X7105000Y-13415085D01*
%TO.N,PCIe_REFCLK+*%
X18265668Y-22224247D02*
X18434332Y-22224247D01*
X6725000Y-10800000D02*
X6865711Y-10940711D01*
X17955043Y-21703535D02*
X18070711Y-21819204D01*
X6924290Y-13572784D02*
X8827217Y-15475711D01*
X17575754Y-21365667D02*
X17575754Y-21534333D01*
X17715667Y-21674246D02*
X17884332Y-21674246D01*
X18650282Y-22440197D02*
X18650282Y-22543861D01*
X17605044Y-21605044D02*
X17644957Y-21644957D01*
X18620992Y-22614572D02*
X18480282Y-22755282D01*
X18129290Y-22129290D02*
X18194958Y-22194958D01*
X18505042Y-22253536D02*
X18620993Y-22369486D01*
X18100000Y-21889914D02*
X18100000Y-22058579D01*
X8897927Y-15505000D02*
X11715085Y-15505000D01*
X11785795Y-15534289D02*
X17546464Y-21294956D01*
X6895000Y-11011421D02*
X6895000Y-13502073D01*
D19*
%TO.N,PCIe_DET*%
X2350000Y-11700000D02*
X2350000Y-18708579D01*
X6229290Y-21929290D02*
X6700000Y-22400000D01*
X5541421Y-21900000D02*
X6158579Y-21900000D01*
X2379290Y-18779290D02*
X5470711Y-21870711D01*
%TO.N,PCIe_CLKREQ*%
X5500000Y-18700000D02*
X5500000Y-20858579D01*
X5529290Y-20929290D02*
X5750000Y-21150000D01*
%TO.N,VBUS_DET*%
X4600000Y-38800000D02*
X4600000Y-37941421D01*
X4629290Y-37870710D02*
X9400000Y-33100000D01*
%TD*%
%TA.AperFunction,Conductor*%
%TO.N,GND*%
G36*
X12966977Y-21596165D02*
G01*
X12984640Y-21603481D01*
X13037410Y-21638741D01*
X13044835Y-21644835D01*
X16755165Y-25355165D01*
X16761259Y-25362590D01*
X16796519Y-25415360D01*
X16803835Y-25433024D01*
X16815256Y-25490441D01*
X16815256Y-25509559D01*
X16803835Y-25566976D01*
X16796519Y-25584640D01*
X16761259Y-25637410D01*
X16755165Y-25644835D01*
X13044835Y-29355165D01*
X13037410Y-29361259D01*
X12984640Y-29396519D01*
X12966977Y-29403835D01*
X12909557Y-29415256D01*
X12890443Y-29415256D01*
X12833023Y-29403835D01*
X12815360Y-29396519D01*
X12762590Y-29361259D01*
X12755165Y-29355165D01*
X9114852Y-25714852D01*
X9100500Y-25680204D01*
X9100500Y-25319796D01*
X9114852Y-25285148D01*
X12755165Y-21644835D01*
X12762590Y-21638741D01*
X12815360Y-21603481D01*
X12833023Y-21596165D01*
X12890443Y-21584744D01*
X12909557Y-21584744D01*
X12966977Y-21596165D01*
G37*
%TD.AperFunction*%
%TD*%
%TA.AperFunction,Conductor*%
%TO.N,GND*%
G36*
X19804726Y-9700940D02*
G01*
X19866982Y-9713323D01*
X19884637Y-9720636D01*
X19933320Y-9753166D01*
X19946834Y-9766680D01*
X19979364Y-9815363D01*
X19986677Y-9833018D01*
X19999060Y-9895274D01*
X20000000Y-9904823D01*
X20000000Y-11295177D01*
X19999060Y-11304726D01*
X19986677Y-11366982D01*
X19979364Y-11384637D01*
X19946834Y-11433320D01*
X19933320Y-11446834D01*
X19884637Y-11479364D01*
X19866982Y-11486677D01*
X19804726Y-11499060D01*
X19795177Y-11500000D01*
X17382843Y-11500000D01*
X17306306Y-11515224D01*
X17241421Y-11558579D01*
X15461993Y-13338007D01*
X15454568Y-13344101D01*
X15401797Y-13379362D01*
X15384139Y-13386677D01*
X15321883Y-13399060D01*
X15312334Y-13400000D01*
X15104823Y-13400000D01*
X15095274Y-13399060D01*
X15033018Y-13386677D01*
X15015363Y-13379364D01*
X14966680Y-13346834D01*
X14953166Y-13333320D01*
X14920636Y-13284637D01*
X14913323Y-13266982D01*
X14900940Y-13204726D01*
X14900000Y-13195177D01*
X14900000Y-12594455D01*
X15125364Y-12594455D01*
X15143971Y-12711937D01*
X15197972Y-12817920D01*
X15282080Y-12902028D01*
X15285513Y-12903777D01*
X15285514Y-12903778D01*
X15335072Y-12929029D01*
X15388063Y-12956029D01*
X15391868Y-12956632D01*
X15391869Y-12956632D01*
X15501738Y-12974033D01*
X15505545Y-12974636D01*
X15509352Y-12974033D01*
X15619221Y-12956632D01*
X15619222Y-12956632D01*
X15623027Y-12956029D01*
X15676018Y-12929029D01*
X15725576Y-12903778D01*
X15725577Y-12903777D01*
X15729010Y-12902028D01*
X15813118Y-12817920D01*
X15867119Y-12711937D01*
X15881351Y-12622081D01*
X15900945Y-12590105D01*
X15922080Y-12581351D01*
X15978964Y-12572341D01*
X16008131Y-12567722D01*
X16008132Y-12567722D01*
X16011937Y-12567119D01*
X16064929Y-12540118D01*
X16114486Y-12514868D01*
X16114487Y-12514867D01*
X16117920Y-12513118D01*
X16202028Y-12429010D01*
X16256029Y-12323027D01*
X16258487Y-12307511D01*
X16274033Y-12209352D01*
X16274636Y-12205545D01*
X16263061Y-12132463D01*
X16256632Y-12091869D01*
X16256632Y-12091868D01*
X16256029Y-12088063D01*
X16202028Y-11982080D01*
X16117920Y-11897972D01*
X16114487Y-11896223D01*
X16114486Y-11896222D01*
X16064928Y-11870971D01*
X16011937Y-11843971D01*
X16008132Y-11843368D01*
X16008131Y-11843368D01*
X15898262Y-11825967D01*
X15894455Y-11825364D01*
X15890648Y-11825967D01*
X15780779Y-11843368D01*
X15780778Y-11843368D01*
X15776973Y-11843971D01*
X15723982Y-11870971D01*
X15674424Y-11896222D01*
X15674423Y-11896223D01*
X15670990Y-11897972D01*
X15586882Y-11982080D01*
X15532881Y-12088063D01*
X15532278Y-12091868D01*
X15532278Y-12091869D01*
X15518650Y-12177918D01*
X15499055Y-12209895D01*
X15477920Y-12218649D01*
X15421036Y-12227659D01*
X15391869Y-12232278D01*
X15391868Y-12232278D01*
X15388063Y-12232881D01*
X15345500Y-12254568D01*
X15285514Y-12285132D01*
X15285513Y-12285133D01*
X15282080Y-12286882D01*
X15197972Y-12370990D01*
X15143971Y-12476973D01*
X15125364Y-12594455D01*
X14900000Y-12594455D01*
X14900000Y-12582843D01*
X14884776Y-12506306D01*
X14841421Y-12441421D01*
X13958579Y-11558579D01*
X13893694Y-11515224D01*
X13817157Y-11500000D01*
X10682843Y-11500000D01*
X10606306Y-11515224D01*
X10541421Y-11558579D01*
X9658579Y-12441421D01*
X9615224Y-12506306D01*
X9600000Y-12582843D01*
X9600000Y-13195177D01*
X9599060Y-13204726D01*
X9586677Y-13266982D01*
X9579364Y-13284637D01*
X9546834Y-13333320D01*
X9533320Y-13346834D01*
X9484637Y-13379364D01*
X9466982Y-13386677D01*
X9404726Y-13399060D01*
X9395177Y-13400000D01*
X9187666Y-13400000D01*
X9178117Y-13399060D01*
X9115861Y-13386677D01*
X9098203Y-13379362D01*
X9045432Y-13344101D01*
X9038007Y-13338007D01*
X7961993Y-12261993D01*
X7955899Y-12254568D01*
X7923142Y-12205545D01*
X8225364Y-12205545D01*
X8225967Y-12209352D01*
X8241514Y-12307511D01*
X8243971Y-12323027D01*
X8297972Y-12429010D01*
X8382080Y-12513118D01*
X8385513Y-12514867D01*
X8385514Y-12514868D01*
X8435072Y-12540119D01*
X8488063Y-12567119D01*
X8491868Y-12567722D01*
X8491869Y-12567722D01*
X8521036Y-12572341D01*
X8577919Y-12581351D01*
X8609895Y-12600945D01*
X8618649Y-12622080D01*
X8632881Y-12711937D01*
X8686882Y-12817920D01*
X8770990Y-12902028D01*
X8774423Y-12903777D01*
X8774424Y-12903778D01*
X8823982Y-12929029D01*
X8876973Y-12956029D01*
X8880778Y-12956632D01*
X8880779Y-12956632D01*
X8990648Y-12974033D01*
X8994455Y-12974636D01*
X8998262Y-12974033D01*
X9108131Y-12956632D01*
X9108132Y-12956632D01*
X9111937Y-12956029D01*
X9164928Y-12929029D01*
X9214486Y-12903778D01*
X9214487Y-12903777D01*
X9217920Y-12902028D01*
X9302028Y-12817920D01*
X9356029Y-12711937D01*
X9374636Y-12594455D01*
X9356029Y-12476973D01*
X9302028Y-12370990D01*
X9217920Y-12286882D01*
X9214487Y-12285133D01*
X9214486Y-12285132D01*
X9154500Y-12254568D01*
X9111937Y-12232881D01*
X9108132Y-12232278D01*
X9108131Y-12232278D01*
X9078964Y-12227659D01*
X9022081Y-12218649D01*
X8990105Y-12199055D01*
X8981350Y-12177918D01*
X8967722Y-12091869D01*
X8967722Y-12091868D01*
X8967119Y-12088063D01*
X8913118Y-11982080D01*
X8829010Y-11897972D01*
X8825577Y-11896223D01*
X8825576Y-11896222D01*
X8776018Y-11870971D01*
X8723027Y-11843971D01*
X8719222Y-11843368D01*
X8719221Y-11843368D01*
X8609352Y-11825967D01*
X8605545Y-11825364D01*
X8601738Y-11825967D01*
X8491869Y-11843368D01*
X8491868Y-11843368D01*
X8488063Y-11843971D01*
X8435072Y-11870971D01*
X8385514Y-11896222D01*
X8385513Y-11896223D01*
X8382080Y-11897972D01*
X8297972Y-11982080D01*
X8243971Y-12088063D01*
X8243368Y-12091868D01*
X8243368Y-12091869D01*
X8236939Y-12132463D01*
X8225364Y-12205545D01*
X7923142Y-12205545D01*
X7920638Y-12201797D01*
X7913323Y-12184139D01*
X7900940Y-12121883D01*
X7900000Y-12112334D01*
X7900000Y-11294455D01*
X8225364Y-11294455D01*
X8243971Y-11411937D01*
X8297972Y-11517920D01*
X8382080Y-11602028D01*
X8385513Y-11603777D01*
X8385514Y-11603778D01*
X8435072Y-11629029D01*
X8488063Y-11656029D01*
X8491868Y-11656632D01*
X8491869Y-11656632D01*
X8601738Y-11674033D01*
X8605545Y-11674636D01*
X8609352Y-11674033D01*
X8719221Y-11656632D01*
X8719222Y-11656632D01*
X8723027Y-11656029D01*
X8776018Y-11629029D01*
X8825576Y-11603778D01*
X8825577Y-11603777D01*
X8829010Y-11602028D01*
X8913118Y-11517920D01*
X8967119Y-11411937D01*
X8981351Y-11322081D01*
X9000945Y-11290105D01*
X9022080Y-11281351D01*
X9078964Y-11272341D01*
X9108131Y-11267722D01*
X9108132Y-11267722D01*
X9111937Y-11267119D01*
X9164928Y-11240119D01*
X9214486Y-11214868D01*
X9214487Y-11214867D01*
X9217920Y-11213118D01*
X9302028Y-11129010D01*
X9306644Y-11119952D01*
X9354279Y-11026461D01*
X9356029Y-11023027D01*
X9374636Y-10905545D01*
X9359880Y-10812379D01*
X10844819Y-10812379D01*
X10845422Y-10816186D01*
X10861218Y-10915917D01*
X10863426Y-10929861D01*
X10890427Y-10982853D01*
X10911120Y-11023465D01*
X10917427Y-11035844D01*
X11001535Y-11119952D01*
X11004968Y-11121701D01*
X11004969Y-11121702D01*
X11019312Y-11129010D01*
X11107518Y-11173953D01*
X11111323Y-11174556D01*
X11111324Y-11174556D01*
X11221193Y-11191957D01*
X11225000Y-11192560D01*
X11228807Y-11191957D01*
X11338676Y-11174556D01*
X11338677Y-11174556D01*
X11342482Y-11173953D01*
X11430688Y-11129010D01*
X11445031Y-11121702D01*
X11445032Y-11121701D01*
X11448465Y-11119952D01*
X11465352Y-11103065D01*
X11500000Y-11088713D01*
X11534648Y-11103065D01*
X11551535Y-11119952D01*
X11554968Y-11121701D01*
X11554969Y-11121702D01*
X11569312Y-11129010D01*
X11657518Y-11173953D01*
X11661323Y-11174556D01*
X11661324Y-11174556D01*
X11771193Y-11191957D01*
X11775000Y-11192560D01*
X11778807Y-11191957D01*
X11888676Y-11174556D01*
X11888677Y-11174556D01*
X11892482Y-11173953D01*
X11980688Y-11129010D01*
X11995031Y-11121702D01*
X11995032Y-11121701D01*
X11998465Y-11119952D01*
X12082573Y-11035844D01*
X12088881Y-11023465D01*
X12109573Y-10982853D01*
X12136574Y-10929861D01*
X12138783Y-10915917D01*
X12154578Y-10816186D01*
X12155181Y-10812379D01*
X12344819Y-10812379D01*
X12345422Y-10816186D01*
X12361218Y-10915917D01*
X12363426Y-10929861D01*
X12390427Y-10982853D01*
X12411120Y-11023465D01*
X12417427Y-11035844D01*
X12501535Y-11119952D01*
X12504968Y-11121701D01*
X12504969Y-11121702D01*
X12519312Y-11129010D01*
X12607518Y-11173953D01*
X12611323Y-11174556D01*
X12611324Y-11174556D01*
X12721193Y-11191957D01*
X12725000Y-11192560D01*
X12728807Y-11191957D01*
X12838676Y-11174556D01*
X12838677Y-11174556D01*
X12842482Y-11173953D01*
X12930688Y-11129010D01*
X12945031Y-11121702D01*
X12945032Y-11121701D01*
X12948465Y-11119952D01*
X12965352Y-11103065D01*
X13000000Y-11088713D01*
X13034648Y-11103065D01*
X13051535Y-11119952D01*
X13054968Y-11121701D01*
X13054969Y-11121702D01*
X13069312Y-11129010D01*
X13157518Y-11173953D01*
X13161323Y-11174556D01*
X13161324Y-11174556D01*
X13271193Y-11191957D01*
X13275000Y-11192560D01*
X13278807Y-11191957D01*
X13388676Y-11174556D01*
X13388677Y-11174556D01*
X13392482Y-11173953D01*
X13480688Y-11129010D01*
X13495031Y-11121702D01*
X13495032Y-11121701D01*
X13498465Y-11119952D01*
X13582573Y-11035844D01*
X13588881Y-11023465D01*
X13609573Y-10982853D01*
X13636574Y-10929861D01*
X13638783Y-10915917D01*
X13640426Y-10905545D01*
X15125364Y-10905545D01*
X15143971Y-11023027D01*
X15145721Y-11026461D01*
X15193357Y-11119952D01*
X15197972Y-11129010D01*
X15282080Y-11213118D01*
X15285513Y-11214867D01*
X15285514Y-11214868D01*
X15335072Y-11240119D01*
X15388063Y-11267119D01*
X15391868Y-11267722D01*
X15391869Y-11267722D01*
X15421036Y-11272341D01*
X15477919Y-11281351D01*
X15509895Y-11300945D01*
X15518649Y-11322080D01*
X15532881Y-11411937D01*
X15586882Y-11517920D01*
X15670990Y-11602028D01*
X15674423Y-11603777D01*
X15674424Y-11603778D01*
X15723982Y-11629029D01*
X15776973Y-11656029D01*
X15780778Y-11656632D01*
X15780779Y-11656632D01*
X15890648Y-11674033D01*
X15894455Y-11674636D01*
X15898262Y-11674033D01*
X16008131Y-11656632D01*
X16008132Y-11656632D01*
X16011937Y-11656029D01*
X16064929Y-11629028D01*
X16114486Y-11603778D01*
X16114487Y-11603777D01*
X16117920Y-11602028D01*
X16202028Y-11517920D01*
X16256029Y-11411937D01*
X16274636Y-11294455D01*
X16256029Y-11176973D01*
X16218371Y-11103065D01*
X16203778Y-11074424D01*
X16203777Y-11074423D01*
X16202028Y-11070990D01*
X16117920Y-10986882D01*
X16114487Y-10985133D01*
X16114486Y-10985132D01*
X16064928Y-10959881D01*
X16011937Y-10932881D01*
X16008132Y-10932278D01*
X16008131Y-10932278D01*
X15978964Y-10927659D01*
X15922081Y-10918649D01*
X15890105Y-10899055D01*
X15881350Y-10877918D01*
X15870970Y-10812379D01*
X16844819Y-10812379D01*
X16845422Y-10816186D01*
X16861218Y-10915917D01*
X16863426Y-10929861D01*
X16890427Y-10982853D01*
X16911120Y-11023465D01*
X16917427Y-11035844D01*
X17001535Y-11119952D01*
X17004968Y-11121701D01*
X17004969Y-11121702D01*
X17019312Y-11129010D01*
X17107518Y-11173953D01*
X17111323Y-11174556D01*
X17111324Y-11174556D01*
X17221193Y-11191957D01*
X17225000Y-11192560D01*
X17228807Y-11191957D01*
X17338676Y-11174556D01*
X17338677Y-11174556D01*
X17342482Y-11173953D01*
X17430688Y-11129010D01*
X17445031Y-11121702D01*
X17445032Y-11121701D01*
X17448465Y-11119952D01*
X17465352Y-11103065D01*
X17500000Y-11088713D01*
X17534648Y-11103065D01*
X17551535Y-11119952D01*
X17554968Y-11121701D01*
X17554969Y-11121702D01*
X17569312Y-11129010D01*
X17657518Y-11173953D01*
X17661323Y-11174556D01*
X17661324Y-11174556D01*
X17771193Y-11191957D01*
X17775000Y-11192560D01*
X17778807Y-11191957D01*
X17888676Y-11174556D01*
X17888677Y-11174556D01*
X17892482Y-11173953D01*
X17980688Y-11129010D01*
X17995031Y-11121702D01*
X17995032Y-11121701D01*
X17998465Y-11119952D01*
X18082573Y-11035844D01*
X18088881Y-11023465D01*
X18109573Y-10982853D01*
X18136574Y-10929861D01*
X18138783Y-10915917D01*
X18154578Y-10816186D01*
X18155181Y-10812379D01*
X18344819Y-10812379D01*
X18345422Y-10816186D01*
X18361218Y-10915917D01*
X18363426Y-10929861D01*
X18390427Y-10982853D01*
X18411120Y-11023465D01*
X18417427Y-11035844D01*
X18501535Y-11119952D01*
X18504968Y-11121701D01*
X18504969Y-11121702D01*
X18519312Y-11129010D01*
X18607518Y-11173953D01*
X18611323Y-11174556D01*
X18611324Y-11174556D01*
X18721193Y-11191957D01*
X18725000Y-11192560D01*
X18728807Y-11191957D01*
X18838676Y-11174556D01*
X18838677Y-11174556D01*
X18842482Y-11173953D01*
X18930688Y-11129010D01*
X18945031Y-11121702D01*
X18945032Y-11121701D01*
X18948465Y-11119952D01*
X18965352Y-11103065D01*
X19000000Y-11088713D01*
X19034648Y-11103065D01*
X19051535Y-11119952D01*
X19054968Y-11121701D01*
X19054969Y-11121702D01*
X19069312Y-11129010D01*
X19157518Y-11173953D01*
X19161323Y-11174556D01*
X19161324Y-11174556D01*
X19271193Y-11191957D01*
X19275000Y-11192560D01*
X19278807Y-11191957D01*
X19388676Y-11174556D01*
X19388677Y-11174556D01*
X19392482Y-11173953D01*
X19480688Y-11129010D01*
X19495031Y-11121702D01*
X19495032Y-11121701D01*
X19498465Y-11119952D01*
X19582573Y-11035844D01*
X19588881Y-11023465D01*
X19609573Y-10982853D01*
X19636574Y-10929861D01*
X19638783Y-10915917D01*
X19654578Y-10816186D01*
X19655181Y-10812379D01*
X19636574Y-10694897D01*
X19588222Y-10600000D01*
X19584323Y-10592348D01*
X19584322Y-10592347D01*
X19582573Y-10588914D01*
X19498465Y-10504806D01*
X19495032Y-10503057D01*
X19495031Y-10503056D01*
X19424231Y-10466982D01*
X19392482Y-10450805D01*
X19388677Y-10450202D01*
X19388676Y-10450202D01*
X19278807Y-10432801D01*
X19275000Y-10432198D01*
X19271193Y-10432801D01*
X19161324Y-10450202D01*
X19161323Y-10450202D01*
X19157518Y-10450805D01*
X19125769Y-10466982D01*
X19054969Y-10503056D01*
X19054968Y-10503057D01*
X19051535Y-10504806D01*
X19034648Y-10521693D01*
X19000000Y-10536045D01*
X18965352Y-10521693D01*
X18948465Y-10504806D01*
X18945032Y-10503057D01*
X18945031Y-10503056D01*
X18874231Y-10466982D01*
X18842482Y-10450805D01*
X18838677Y-10450202D01*
X18838676Y-10450202D01*
X18728807Y-10432801D01*
X18725000Y-10432198D01*
X18721193Y-10432801D01*
X18611324Y-10450202D01*
X18611323Y-10450202D01*
X18607518Y-10450805D01*
X18575769Y-10466982D01*
X18504969Y-10503056D01*
X18504968Y-10503057D01*
X18501535Y-10504806D01*
X18417427Y-10588914D01*
X18415678Y-10592347D01*
X18415677Y-10592348D01*
X18411778Y-10600000D01*
X18363426Y-10694897D01*
X18344819Y-10812379D01*
X18155181Y-10812379D01*
X18136574Y-10694897D01*
X18088222Y-10600000D01*
X18084323Y-10592348D01*
X18084322Y-10592347D01*
X18082573Y-10588914D01*
X17998465Y-10504806D01*
X17995032Y-10503057D01*
X17995031Y-10503056D01*
X17924231Y-10466982D01*
X17892482Y-10450805D01*
X17888677Y-10450202D01*
X17888676Y-10450202D01*
X17778807Y-10432801D01*
X17775000Y-10432198D01*
X17771193Y-10432801D01*
X17661324Y-10450202D01*
X17661323Y-10450202D01*
X17657518Y-10450805D01*
X17625769Y-10466982D01*
X17554969Y-10503056D01*
X17554968Y-10503057D01*
X17551535Y-10504806D01*
X17534648Y-10521693D01*
X17500000Y-10536045D01*
X17465352Y-10521693D01*
X17448465Y-10504806D01*
X17445032Y-10503057D01*
X17445031Y-10503056D01*
X17374231Y-10466982D01*
X17342482Y-10450805D01*
X17338677Y-10450202D01*
X17338676Y-10450202D01*
X17228807Y-10432801D01*
X17225000Y-10432198D01*
X17221193Y-10432801D01*
X17111324Y-10450202D01*
X17111323Y-10450202D01*
X17107518Y-10450805D01*
X17075769Y-10466982D01*
X17004969Y-10503056D01*
X17004968Y-10503057D01*
X17001535Y-10504806D01*
X16917427Y-10588914D01*
X16915678Y-10592347D01*
X16915677Y-10592348D01*
X16911778Y-10600000D01*
X16863426Y-10694897D01*
X16844819Y-10812379D01*
X15870970Y-10812379D01*
X15867722Y-10791869D01*
X15867722Y-10791868D01*
X15867119Y-10788063D01*
X15813118Y-10682080D01*
X15729010Y-10597972D01*
X15725577Y-10596223D01*
X15725576Y-10596222D01*
X15676018Y-10570971D01*
X15623027Y-10543971D01*
X15619222Y-10543368D01*
X15619221Y-10543368D01*
X15509352Y-10525967D01*
X15505545Y-10525364D01*
X15501738Y-10525967D01*
X15391869Y-10543368D01*
X15391868Y-10543368D01*
X15388063Y-10543971D01*
X15335072Y-10570971D01*
X15285514Y-10596222D01*
X15285513Y-10596223D01*
X15282080Y-10597972D01*
X15197972Y-10682080D01*
X15143971Y-10788063D01*
X15125364Y-10905545D01*
X13640426Y-10905545D01*
X13654578Y-10816186D01*
X13655181Y-10812379D01*
X13636574Y-10694897D01*
X13588222Y-10600000D01*
X13584323Y-10592348D01*
X13584322Y-10592347D01*
X13582573Y-10588914D01*
X13498465Y-10504806D01*
X13495032Y-10503057D01*
X13495031Y-10503056D01*
X13424231Y-10466982D01*
X13392482Y-10450805D01*
X13388677Y-10450202D01*
X13388676Y-10450202D01*
X13278807Y-10432801D01*
X13275000Y-10432198D01*
X13271193Y-10432801D01*
X13161324Y-10450202D01*
X13161323Y-10450202D01*
X13157518Y-10450805D01*
X13125769Y-10466982D01*
X13054969Y-10503056D01*
X13054968Y-10503057D01*
X13051535Y-10504806D01*
X13034648Y-10521693D01*
X13000000Y-10536045D01*
X12965352Y-10521693D01*
X12948465Y-10504806D01*
X12945032Y-10503057D01*
X12945031Y-10503056D01*
X12874231Y-10466982D01*
X12842482Y-10450805D01*
X12838677Y-10450202D01*
X12838676Y-10450202D01*
X12728807Y-10432801D01*
X12725000Y-10432198D01*
X12721193Y-10432801D01*
X12611324Y-10450202D01*
X12611323Y-10450202D01*
X12607518Y-10450805D01*
X12575769Y-10466982D01*
X12504969Y-10503056D01*
X12504968Y-10503057D01*
X12501535Y-10504806D01*
X12417427Y-10588914D01*
X12415678Y-10592347D01*
X12415677Y-10592348D01*
X12411778Y-10600000D01*
X12363426Y-10694897D01*
X12344819Y-10812379D01*
X12155181Y-10812379D01*
X12136574Y-10694897D01*
X12088222Y-10600000D01*
X12084323Y-10592348D01*
X12084322Y-10592347D01*
X12082573Y-10588914D01*
X11998465Y-10504806D01*
X11995032Y-10503057D01*
X11995031Y-10503056D01*
X11924231Y-10466982D01*
X11892482Y-10450805D01*
X11888677Y-10450202D01*
X11888676Y-10450202D01*
X11778807Y-10432801D01*
X11775000Y-10432198D01*
X11771193Y-10432801D01*
X11661324Y-10450202D01*
X11661323Y-10450202D01*
X11657518Y-10450805D01*
X11625769Y-10466982D01*
X11554969Y-10503056D01*
X11554968Y-10503057D01*
X11551535Y-10504806D01*
X11534648Y-10521693D01*
X11500000Y-10536045D01*
X11465352Y-10521693D01*
X11448465Y-10504806D01*
X11445032Y-10503057D01*
X11445031Y-10503056D01*
X11374231Y-10466982D01*
X11342482Y-10450805D01*
X11338677Y-10450202D01*
X11338676Y-10450202D01*
X11228807Y-10432801D01*
X11225000Y-10432198D01*
X11221193Y-10432801D01*
X11111324Y-10450202D01*
X11111323Y-10450202D01*
X11107518Y-10450805D01*
X11075769Y-10466982D01*
X11004969Y-10503056D01*
X11004968Y-10503057D01*
X11001535Y-10504806D01*
X10917427Y-10588914D01*
X10915678Y-10592347D01*
X10915677Y-10592348D01*
X10911778Y-10600000D01*
X10863426Y-10694897D01*
X10844819Y-10812379D01*
X9359880Y-10812379D01*
X9356029Y-10788063D01*
X9302028Y-10682080D01*
X9217920Y-10597972D01*
X9214487Y-10596223D01*
X9214486Y-10596222D01*
X9164928Y-10570971D01*
X9111937Y-10543971D01*
X9108132Y-10543368D01*
X9108131Y-10543368D01*
X8998262Y-10525967D01*
X8994455Y-10525364D01*
X8990648Y-10525967D01*
X8880779Y-10543368D01*
X8880778Y-10543368D01*
X8876973Y-10543971D01*
X8823982Y-10570971D01*
X8774424Y-10596222D01*
X8774423Y-10596223D01*
X8770990Y-10597972D01*
X8686882Y-10682080D01*
X8632881Y-10788063D01*
X8632278Y-10791868D01*
X8632278Y-10791869D01*
X8618650Y-10877918D01*
X8599055Y-10909895D01*
X8577920Y-10918649D01*
X8521036Y-10927659D01*
X8491869Y-10932278D01*
X8491868Y-10932278D01*
X8488063Y-10932881D01*
X8435072Y-10959881D01*
X8385514Y-10985132D01*
X8385513Y-10985133D01*
X8382080Y-10986882D01*
X8297972Y-11070990D01*
X8296223Y-11074423D01*
X8296222Y-11074424D01*
X8281629Y-11103065D01*
X8243971Y-11176973D01*
X8225364Y-11294455D01*
X7900000Y-11294455D01*
X7900000Y-10800000D01*
X7884776Y-10723463D01*
X7841421Y-10658579D01*
X7776537Y-10615224D01*
X7700000Y-10600000D01*
X7623842Y-10600000D01*
X7589194Y-10585648D01*
X7584293Y-10579911D01*
X7582573Y-10576535D01*
X7498465Y-10492427D01*
X7495032Y-10490678D01*
X7495031Y-10490677D01*
X7445473Y-10465426D01*
X7392482Y-10438426D01*
X7388677Y-10437823D01*
X7388676Y-10437823D01*
X7278807Y-10420422D01*
X7275000Y-10419819D01*
X7271193Y-10420422D01*
X7161324Y-10437823D01*
X7161323Y-10437823D01*
X7157518Y-10438426D01*
X7104527Y-10465426D01*
X7054969Y-10490677D01*
X7054968Y-10490678D01*
X7051535Y-10492427D01*
X7034648Y-10509314D01*
X7000000Y-10523666D01*
X6965352Y-10509314D01*
X6948465Y-10492427D01*
X6945032Y-10490678D01*
X6945031Y-10490677D01*
X6895473Y-10465426D01*
X6842482Y-10438426D01*
X6838677Y-10437823D01*
X6838676Y-10437823D01*
X6728807Y-10420422D01*
X6725000Y-10419819D01*
X6721193Y-10420422D01*
X6611324Y-10437823D01*
X6611323Y-10437823D01*
X6607518Y-10438426D01*
X6554527Y-10465426D01*
X6504969Y-10490677D01*
X6504968Y-10490678D01*
X6501535Y-10492427D01*
X6417427Y-10576535D01*
X6415745Y-10579836D01*
X6383823Y-10599397D01*
X6376158Y-10600000D01*
X6204823Y-10600000D01*
X6195274Y-10599060D01*
X6133018Y-10586677D01*
X6115363Y-10579364D01*
X6066680Y-10546834D01*
X6053166Y-10533320D01*
X6020636Y-10484637D01*
X6013323Y-10466982D01*
X6000940Y-10404726D01*
X6000000Y-10395177D01*
X6000000Y-9904823D01*
X6000940Y-9895274D01*
X6013323Y-9833018D01*
X6020636Y-9815363D01*
X6053166Y-9766680D01*
X6066680Y-9753166D01*
X6115363Y-9720636D01*
X6133018Y-9713323D01*
X6195274Y-9700940D01*
X6204823Y-9700000D01*
X19795177Y-9700000D01*
X19804726Y-9700940D01*
G37*
%TD.AperFunction*%
%TD*%
M02*
