%TF.GenerationSoftware,KiCad,Pcbnew,(6.0.2)*%
%TF.CreationDate,2022-04-22T09:08:27+08:00*%
%TF.ProjectId,usb-nvme,7573622d-6e76-46d6-952e-6b696361645f,rev?*%
%TF.SameCoordinates,Original*%
%TF.FileFunction,Soldermask,Bot*%
%TF.FilePolarity,Negative*%
%FSLAX46Y46*%
G04 Gerber Fmt 4.6, Leading zero omitted, Abs format (unit mm)*
G04 Created by KiCad (PCBNEW (6.0.2)) date 2022-04-22 09:08:27*
%MOMM*%
%LPD*%
G01*
G04 APERTURE LIST*
G04 Aperture macros list*
%AMRoundRect*
0 Rectangle with rounded corners*
0 $1 Rounding radius*
0 $2 $3 $4 $5 $6 $7 $8 $9 X,Y pos of 4 corners*
0 Add a 4 corners polygon primitive as box body*
4,1,4,$2,$3,$4,$5,$6,$7,$8,$9,$2,$3,0*
0 Add four circle primitives for the rounded corners*
1,1,$1+$1,$2,$3*
1,1,$1+$1,$4,$5*
1,1,$1+$1,$6,$7*
1,1,$1+$1,$8,$9*
0 Add four rect primitives between the rounded corners*
20,1,$1+$1,$2,$3,$4,$5,0*
20,1,$1+$1,$4,$5,$6,$7,0*
20,1,$1+$1,$6,$7,$8,$9,0*
20,1,$1+$1,$8,$9,$2,$3,0*%
G04 Aperture macros list end*
%ADD10C,0.000000*%
%ADD11RoundRect,0.147500X-0.147500X-0.172500X0.147500X-0.172500X0.147500X0.172500X-0.147500X0.172500X0*%
%ADD12R,2.286000X1.854500*%
%ADD13RoundRect,0.100000X0.130000X0.100000X-0.130000X0.100000X-0.130000X-0.100000X0.130000X-0.100000X0*%
%ADD14C,1.100000*%
%ADD15R,1.200000X3.000000*%
%ADD16R,0.350000X1.400000*%
%ADD17C,0.550000*%
%ADD18R,0.300000X0.850000*%
%ADD19RoundRect,0.250000X-0.550000X-0.250000X0.550000X-0.250000X0.550000X0.250000X-0.550000X0.250000X0*%
%ADD20RoundRect,0.250000X-0.250000X-0.750000X0.250000X-0.750000X0.250000X0.750000X-0.250000X0.750000X0*%
%ADD21RoundRect,0.575000X-0.925000X-0.575000X0.925000X-0.575000X0.925000X0.575000X-0.925000X0.575000X0*%
%ADD22RoundRect,0.125000X-0.875000X0.125000X-0.875000X-0.125000X0.875000X-0.125000X0.875000X0.125000X0*%
%ADD23RoundRect,0.250000X-0.250000X-0.900000X0.250000X-0.900000X0.250000X0.900000X-0.250000X0.900000X0*%
%ADD24RoundRect,0.147500X0.147500X0.172500X-0.147500X0.172500X-0.147500X-0.172500X0.147500X-0.172500X0*%
G04 APERTURE END LIST*
D10*
G36*
X21500000Y-16350000D02*
G01*
X21300000Y-16350000D01*
X21300000Y-16150000D01*
X21500000Y-16150000D01*
X21500000Y-16350000D01*
G37*
G36*
X21700000Y-16550000D02*
G01*
X21500000Y-16550000D01*
X21500000Y-16350000D01*
X21700000Y-16350000D01*
X21700000Y-16550000D01*
G37*
D11*
%TO.C,D7*%
X715000Y-1700000D03*
X1685000Y-1700000D03*
%TD*%
%TO.C,D6*%
X715000Y-700000D03*
X1685000Y-700000D03*
%TD*%
D12*
%TO.C,L1*%
X19000000Y-2007750D03*
X19000000Y-5792250D03*
%TD*%
D13*
%TO.C,R9*%
X3120000Y-1700000D03*
X2480000Y-1700000D03*
%TD*%
D14*
%TO.C,J2*%
X21000000Y-14725000D03*
D15*
X21200000Y-10100000D03*
X800000Y-10100000D03*
D16*
X20250000Y-9200000D03*
X20000000Y-17200000D03*
X19750000Y-9200000D03*
X19500000Y-17200000D03*
X19250000Y-9200000D03*
X19000000Y-17200000D03*
X18750000Y-9200000D03*
X18500000Y-17200000D03*
X18250000Y-9200000D03*
X18000000Y-17200000D03*
X17750000Y-9200000D03*
X17500000Y-17200000D03*
X17250000Y-9200000D03*
X17000000Y-17200000D03*
X16750000Y-9200000D03*
X16500000Y-17200000D03*
X16250000Y-9200000D03*
X16000000Y-17200000D03*
X15750000Y-9200000D03*
X15500000Y-17200000D03*
X15250000Y-9200000D03*
X15000000Y-17200000D03*
X14750000Y-9200000D03*
X14500000Y-17200000D03*
X14250000Y-9200000D03*
X14000000Y-17200000D03*
X13750000Y-9200000D03*
X13500000Y-17200000D03*
X13250000Y-9200000D03*
X13000000Y-17200000D03*
X12750000Y-9200000D03*
X12500000Y-17200000D03*
X12250000Y-9200000D03*
X12000000Y-17200000D03*
X11750000Y-9200000D03*
X11500000Y-17200000D03*
X11250000Y-9200000D03*
X11000000Y-17200000D03*
X10750000Y-9200000D03*
X10500000Y-17200000D03*
X10250000Y-9200000D03*
X10000000Y-17200000D03*
X9750000Y-9200000D03*
X9500000Y-17200000D03*
X9250000Y-9200000D03*
X9000000Y-17200000D03*
X8750000Y-9200000D03*
X8500000Y-17200000D03*
X8250000Y-9200000D03*
X8000000Y-17200000D03*
X7750000Y-9200000D03*
X7500000Y-17200000D03*
X7250000Y-9200000D03*
X7000000Y-17200000D03*
X6750000Y-9200000D03*
X6500000Y-17200000D03*
X6250000Y-9200000D03*
X6000000Y-17200000D03*
X3750000Y-9200000D03*
X3500000Y-17200000D03*
X3250000Y-9200000D03*
X3000000Y-17200000D03*
X2750000Y-9200000D03*
X2500000Y-17200000D03*
X2250000Y-9200000D03*
X2000000Y-17200000D03*
X1750000Y-9200000D03*
%TD*%
D17*
%TO.C,J1*%
X7600000Y-4947500D03*
X14400000Y-4947500D03*
D18*
X8380000Y-6972500D03*
X8880000Y-6972500D03*
X9380000Y-6972500D03*
X9880000Y-6972500D03*
X10380000Y-6972500D03*
X10880000Y-6972500D03*
X11380000Y-6972500D03*
X11880000Y-6972500D03*
X12380000Y-6972500D03*
X12880000Y-6972500D03*
X13380000Y-6972500D03*
X13880000Y-6972500D03*
X13630000Y-5572500D03*
X13130000Y-5572500D03*
X12630000Y-5572500D03*
X12130000Y-5572500D03*
X11630000Y-5572500D03*
X11130000Y-5572500D03*
X10630000Y-5572500D03*
X10130000Y-5572500D03*
X9630000Y-5572500D03*
X9130000Y-5572500D03*
X8630000Y-5572500D03*
X8130000Y-5572500D03*
D19*
X7000000Y-5797500D03*
D20*
X6680000Y-6297500D03*
D19*
X15000000Y-5787500D03*
D20*
X15320000Y-6287500D03*
D21*
X5680000Y-1747500D03*
D22*
X5680000Y-897500D03*
D23*
X15320000Y-1747500D03*
%TD*%
D13*
%TO.C,R8*%
X3120001Y-700000D03*
X2480001Y-700000D03*
%TD*%
%TO.C,R10*%
X3120000Y-3700000D03*
X2480000Y-3700000D03*
%TD*%
%TO.C,R12*%
X3120000Y-2700001D03*
X2480000Y-2700001D03*
%TD*%
D24*
%TO.C,D9*%
X1685000Y-2700000D03*
X715000Y-2700000D03*
%TD*%
%TO.C,D8*%
X1685000Y-3700000D03*
X715000Y-3700000D03*
%TD*%
M02*
