%TF.GenerationSoftware,KiCad,Pcbnew,(6.0.2)*%
%TF.CreationDate,2022-04-22T09:08:27+08:00*%
%TF.ProjectId,usb-nvme,7573622d-6e76-46d6-952e-6b696361645f,rev?*%
%TF.SameCoordinates,Original*%
%TF.FileFunction,Legend,Bot*%
%TF.FilePolarity,Positive*%
%FSLAX46Y46*%
G04 Gerber Fmt 4.6, Leading zero omitted, Abs format (unit mm)*
G04 Created by KiCad (PCBNEW (6.0.2)) date 2022-04-22 09:08:27*
%MOMM*%
%LPD*%
G01*
G04 APERTURE LIST*
%ADD10C,0.150000*%
%ADD11C,0.120000*%
%ADD12C,0.100000*%
%ADD13C,0.200000*%
G04 APERTURE END LIST*
D10*
X15619047Y-12652380D02*
X15619047Y-13366666D01*
X15666666Y-13509523D01*
X15761904Y-13604761D01*
X15904761Y-13652380D01*
X16000000Y-13652380D01*
X14666666Y-13652380D02*
X15142857Y-13652380D01*
X15142857Y-12652380D01*
X13761904Y-13557142D02*
X13809523Y-13604761D01*
X13952380Y-13652380D01*
X14047619Y-13652380D01*
X14190476Y-13604761D01*
X14285714Y-13509523D01*
X14333333Y-13414285D01*
X14380952Y-13223809D01*
X14380952Y-13080952D01*
X14333333Y-12890476D01*
X14285714Y-12795238D01*
X14190476Y-12700000D01*
X14047619Y-12652380D01*
X13952380Y-12652380D01*
X13809523Y-12700000D01*
X13761904Y-12747619D01*
X13047619Y-12652380D02*
X13047619Y-13366666D01*
X13095238Y-13509523D01*
X13190476Y-13604761D01*
X13333333Y-13652380D01*
X13428571Y-13652380D01*
X12095238Y-13652380D02*
X12571428Y-13652380D01*
X12571428Y-12652380D01*
X11190476Y-13557142D02*
X11238095Y-13604761D01*
X11380952Y-13652380D01*
X11476190Y-13652380D01*
X11619047Y-13604761D01*
X11714285Y-13509523D01*
X11761904Y-13414285D01*
X11809523Y-13223809D01*
X11809523Y-13080952D01*
X11761904Y-12890476D01*
X11714285Y-12795238D01*
X11619047Y-12700000D01*
X11476190Y-12652380D01*
X11380952Y-12652380D01*
X11238095Y-12700000D01*
X11190476Y-12747619D01*
X10476190Y-12652380D02*
X10476190Y-13366666D01*
X10523809Y-13509523D01*
X10619047Y-13604761D01*
X10761904Y-13652380D01*
X10857142Y-13652380D01*
X9523809Y-13652380D02*
X10000000Y-13652380D01*
X10000000Y-12652380D01*
X8619047Y-13557142D02*
X8666666Y-13604761D01*
X8809523Y-13652380D01*
X8904761Y-13652380D01*
X9047619Y-13604761D01*
X9142857Y-13509523D01*
X9190476Y-13414285D01*
X9238095Y-13223809D01*
X9238095Y-13080952D01*
X9190476Y-12890476D01*
X9142857Y-12795238D01*
X9047619Y-12700000D01*
X8904761Y-12652380D01*
X8809523Y-12652380D01*
X8666666Y-12700000D01*
X8619047Y-12747619D01*
X7904761Y-12652380D02*
X7904761Y-13366666D01*
X7952380Y-13509523D01*
X8047619Y-13604761D01*
X8190476Y-13652380D01*
X8285714Y-13652380D01*
X6952380Y-13652380D02*
X7428571Y-13652380D01*
X7428571Y-12652380D01*
X6047619Y-13557142D02*
X6095238Y-13604761D01*
X6238095Y-13652380D01*
X6333333Y-13652380D01*
X6476190Y-13604761D01*
X6571428Y-13509523D01*
X6619047Y-13414285D01*
X6666666Y-13223809D01*
X6666666Y-13080952D01*
X6619047Y-12890476D01*
X6571428Y-12795238D01*
X6476190Y-12700000D01*
X6333333Y-12652380D01*
X6238095Y-12652380D01*
X6095238Y-12700000D01*
X6047619Y-12747619D01*
D11*
%TO.C,L1*%
X21132000Y-1768000D02*
X21132000Y-6032000D01*
X21132000Y-6032000D02*
X20443000Y-6032000D01*
X20443000Y-1768000D02*
X21132000Y-1768000D01*
X17557000Y-1768000D02*
X16868000Y-1768000D01*
X16868000Y-1768000D02*
X16868000Y-6032000D01*
X16868000Y-6032000D02*
X17557000Y-6032000D01*
D12*
%TO.C,REF\u002A\u002A*%
X6719614Y-26560387D02*
X7780001Y-25500000D01*
X12900000Y-32740773D02*
X20140773Y-25500000D01*
X16520387Y-21879613D02*
X9279614Y-21879614D01*
X12900001Y-22729076D02*
X10940661Y-27459339D01*
X10940661Y-23540661D02*
X12900001Y-28270924D01*
X12900001Y-28270924D02*
X14859340Y-23540660D01*
X11839613Y-31680387D02*
X12900001Y-30620000D01*
X12900001Y-30620000D02*
X18020000Y-25500000D01*
X14285463Y-28844802D02*
X16244802Y-24114538D01*
X14859340Y-23540660D02*
X10129076Y-25500000D01*
X12900001Y-26647754D02*
X14047755Y-25500000D01*
X12900001Y-24352246D02*
X11752247Y-25500000D01*
X5659227Y-25500000D02*
X12900000Y-32740773D01*
X16520387Y-29120386D02*
X16520387Y-21879613D01*
X16244802Y-24114538D02*
X11514539Y-22155198D01*
X12900001Y-20380000D02*
X7780001Y-25500000D01*
X9555199Y-26885462D02*
X14285463Y-28844802D01*
X9279613Y-29120387D02*
X16520387Y-29120386D01*
X12088416Y-24688415D02*
X12088416Y-26311585D01*
X19080387Y-24439613D02*
X18020000Y-25500000D01*
X12088416Y-26311585D02*
X13711586Y-26311585D01*
X7780001Y-25500000D02*
X6719614Y-24439613D01*
X14047755Y-25500000D02*
X12900001Y-24352246D01*
X9279614Y-21879614D02*
X9279613Y-29120387D01*
X9555199Y-24114538D02*
X11514539Y-28844802D01*
X14285463Y-22155198D02*
X9555199Y-24114538D01*
X13711585Y-24688415D02*
X12088416Y-24688415D01*
X13960387Y-19319614D02*
X12900001Y-20380000D01*
X15670925Y-25500000D02*
X10940661Y-23540661D01*
X7780001Y-25500000D02*
X12900001Y-30620000D01*
X13711586Y-26311585D02*
X13711585Y-24688415D01*
X11514539Y-28844802D02*
X16244802Y-26885462D01*
X19080387Y-26560387D02*
X18020000Y-25500000D01*
X20140773Y-25500000D02*
X12900000Y-18259227D01*
X12900000Y-18259227D02*
X5659227Y-25500000D01*
X11752247Y-25500000D02*
X12900001Y-26647754D01*
X10940661Y-27459339D02*
X15670925Y-25500000D01*
X12900001Y-22729076D02*
X14859340Y-27459340D01*
X18020000Y-25500000D02*
X12900001Y-20380000D01*
X13960387Y-31680386D02*
X12900001Y-30620000D01*
X16244802Y-26885462D02*
X14285463Y-22155198D01*
X11514539Y-22155198D02*
X9555199Y-26885462D01*
X10129076Y-25500000D02*
X14859340Y-27459340D01*
X11839613Y-19319613D02*
X12900001Y-20380000D01*
X12900000Y-29120387D02*
X13086304Y-29115676D01*
X13270163Y-29101695D01*
X13451349Y-29078671D01*
X13629634Y-29046833D01*
X13804790Y-29006407D01*
X13976592Y-28957621D01*
X14144810Y-28900702D01*
X14309217Y-28835878D01*
X14469587Y-28763377D01*
X14625691Y-28683425D01*
X14777302Y-28596251D01*
X14924192Y-28502081D01*
X15066135Y-28401144D01*
X15202902Y-28293666D01*
X15334266Y-28179875D01*
X15460000Y-28060000D01*
X15579875Y-27934266D01*
X15693666Y-27802902D01*
X15801144Y-27666135D01*
X15902081Y-27524192D01*
X15996251Y-27377302D01*
X16083425Y-27225691D01*
X16163377Y-27069587D01*
X16235878Y-26909217D01*
X16300702Y-26744810D01*
X16357621Y-26576592D01*
X16406407Y-26404790D01*
X16446833Y-26229634D01*
X16478671Y-26051349D01*
X16501695Y-25870163D01*
X16515676Y-25686304D01*
X16520387Y-25500000D01*
X9279613Y-25500000D02*
X9284323Y-25686304D01*
X9298304Y-25870163D01*
X9321328Y-26051349D01*
X9353166Y-26229634D01*
X9393592Y-26404790D01*
X9442378Y-26576592D01*
X9499297Y-26744810D01*
X9564121Y-26909217D01*
X9636623Y-27069587D01*
X9716574Y-27225691D01*
X9803749Y-27377302D01*
X9897919Y-27524192D01*
X9998856Y-27666135D01*
X10106334Y-27802902D01*
X10220124Y-27934266D01*
X10340000Y-28060000D01*
X10465734Y-28179875D01*
X10597098Y-28293666D01*
X10733865Y-28401144D01*
X10875808Y-28502081D01*
X11022698Y-28596251D01*
X11174309Y-28683425D01*
X11330413Y-28763377D01*
X11490782Y-28835878D01*
X11655190Y-28900702D01*
X11823408Y-28957621D01*
X11995209Y-29006407D01*
X12170366Y-29046833D01*
X12348651Y-29078671D01*
X12529836Y-29101695D01*
X12713695Y-29115676D01*
X12900000Y-29120387D01*
X13473878Y-26073877D02*
X13554661Y-25979868D01*
X13618730Y-25877423D01*
X13666086Y-25768487D01*
X13696728Y-25655007D01*
X13710656Y-25538932D01*
X13707871Y-25422207D01*
X13688371Y-25306781D01*
X13652158Y-25194599D01*
X13599231Y-25087610D01*
X13529590Y-24987761D01*
X13473878Y-24926123D01*
X12326124Y-26073877D02*
X12420132Y-26154660D01*
X12522577Y-26218729D01*
X12631513Y-26266085D01*
X12744992Y-26296727D01*
X12861068Y-26310655D01*
X12977792Y-26307870D01*
X13093219Y-26288370D01*
X13205400Y-26252157D01*
X13312389Y-26199230D01*
X13412239Y-26129589D01*
X13473878Y-26073877D01*
X9279613Y-21879613D02*
X9098019Y-22070628D01*
X8928141Y-22268468D01*
X8769979Y-22472677D01*
X8623532Y-22682800D01*
X8488801Y-22898383D01*
X8365786Y-23118970D01*
X8254487Y-23344107D01*
X8154903Y-23573338D01*
X8067035Y-23806209D01*
X7990883Y-24042265D01*
X7926447Y-24281050D01*
X7873726Y-24522110D01*
X7832721Y-24764990D01*
X7803432Y-25009235D01*
X7785858Y-25254390D01*
X7780000Y-25500000D01*
X7785858Y-25745609D01*
X7803432Y-25990764D01*
X7832721Y-26235009D01*
X7873726Y-26477889D01*
X7926447Y-26718949D01*
X7990883Y-26957734D01*
X8067035Y-27193790D01*
X8154903Y-27426661D01*
X8254487Y-27655892D01*
X8365786Y-27881029D01*
X8488801Y-28101616D01*
X8623532Y-28317199D01*
X8769979Y-28527322D01*
X8928141Y-28731531D01*
X9098019Y-28929371D01*
X9279613Y-29120387D01*
X12326124Y-24926123D02*
X12245340Y-25020131D01*
X12181271Y-25122576D01*
X12133915Y-25231512D01*
X12103273Y-25344992D01*
X12089345Y-25461067D01*
X12092130Y-25577792D01*
X12111630Y-25693218D01*
X12147843Y-25805400D01*
X12200770Y-25912389D01*
X12270411Y-26012238D01*
X12326124Y-26073877D01*
X16520387Y-21879613D02*
X16329371Y-21698019D01*
X16131531Y-21528141D01*
X15927322Y-21369979D01*
X15717199Y-21223532D01*
X15501616Y-21088801D01*
X15281029Y-20965786D01*
X15055892Y-20854487D01*
X14826661Y-20754903D01*
X14593790Y-20667035D01*
X14357734Y-20590883D01*
X14118949Y-20526447D01*
X13877889Y-20473726D01*
X13635009Y-20432721D01*
X13390764Y-20403431D01*
X13145609Y-20385858D01*
X12900000Y-20380000D01*
X12654390Y-20385858D01*
X12409236Y-20403431D01*
X12164991Y-20432721D01*
X11922111Y-20473726D01*
X11681051Y-20526446D01*
X11442265Y-20590883D01*
X11206210Y-20667035D01*
X10973339Y-20754903D01*
X10744107Y-20854487D01*
X10518971Y-20965786D01*
X10298383Y-21088801D01*
X10082800Y-21223532D01*
X9872677Y-21369978D01*
X9668468Y-21528141D01*
X9470628Y-21698019D01*
X9279613Y-21879613D01*
X9279613Y-29120387D02*
X9470628Y-29301980D01*
X9668468Y-29471858D01*
X9872677Y-29630021D01*
X10082800Y-29776467D01*
X10298383Y-29911198D01*
X10518971Y-30034213D01*
X10744107Y-30145512D01*
X10973339Y-30245096D01*
X11206210Y-30332964D01*
X11442265Y-30409116D01*
X11681051Y-30473553D01*
X11922111Y-30526273D01*
X12164991Y-30567278D01*
X12409236Y-30596568D01*
X12654390Y-30614141D01*
X12900000Y-30619999D01*
X13145609Y-30614141D01*
X13390764Y-30596568D01*
X13635009Y-30567278D01*
X13877889Y-30526273D01*
X14118949Y-30473552D01*
X14357734Y-30409116D01*
X14593790Y-30332964D01*
X14826661Y-30245096D01*
X15055892Y-30145512D01*
X15281029Y-30034213D01*
X15501616Y-29911198D01*
X15717199Y-29776467D01*
X15927322Y-29630020D01*
X16131531Y-29471858D01*
X16329371Y-29301980D01*
X16520387Y-29120387D01*
X13473878Y-24926123D02*
X13379869Y-24845339D01*
X13277423Y-24781270D01*
X13168487Y-24733914D01*
X13055008Y-24703272D01*
X12938932Y-24689344D01*
X12822208Y-24692129D01*
X12706781Y-24711629D01*
X12594600Y-24747842D01*
X12487611Y-24800769D01*
X12387762Y-24870410D01*
X12326124Y-24926123D01*
X16520387Y-29120387D02*
X16701980Y-28929371D01*
X16871858Y-28731531D01*
X17030021Y-28527322D01*
X17176467Y-28317199D01*
X17311198Y-28101616D01*
X17434213Y-27881029D01*
X17545513Y-27655892D01*
X17645096Y-27426660D01*
X17732964Y-27193789D01*
X17809116Y-26957734D01*
X17873553Y-26718948D01*
X17926274Y-26477888D01*
X17967279Y-26235008D01*
X17996568Y-25990764D01*
X18014142Y-25745609D01*
X18020000Y-25500000D01*
X18014142Y-25254390D01*
X17996568Y-25009235D01*
X17967279Y-24764991D01*
X17926274Y-24522111D01*
X17873553Y-24281051D01*
X17809116Y-24042265D01*
X17732964Y-23806210D01*
X17645096Y-23573339D01*
X17545513Y-23344107D01*
X17434213Y-23118970D01*
X17311198Y-22898383D01*
X17176467Y-22682800D01*
X17030021Y-22472677D01*
X16871858Y-22268468D01*
X16701980Y-22070628D01*
X16520387Y-21879613D01*
X16520387Y-25500000D02*
X16515676Y-25313695D01*
X16501695Y-25129836D01*
X16478671Y-24948650D01*
X16446833Y-24770365D01*
X16406407Y-24595209D01*
X16357621Y-24423407D01*
X16300702Y-24255189D01*
X16235878Y-24090782D01*
X16163377Y-23930412D01*
X16083425Y-23774308D01*
X15996251Y-23622697D01*
X15902081Y-23475807D01*
X15801144Y-23333864D01*
X15693666Y-23197097D01*
X15579875Y-23065733D01*
X15460000Y-22940000D01*
X15334266Y-22820124D01*
X15202902Y-22706333D01*
X15066135Y-22598855D01*
X14924192Y-22497918D01*
X14777302Y-22403748D01*
X14625691Y-22316574D01*
X14469587Y-22236622D01*
X14309217Y-22164121D01*
X14144810Y-22099297D01*
X13976592Y-22042378D01*
X13804790Y-21993592D01*
X13629634Y-21953166D01*
X13451349Y-21921328D01*
X13270163Y-21898304D01*
X13086304Y-21884323D01*
X12900000Y-21879613D01*
X12900000Y-21879613D02*
X12713695Y-21884323D01*
X12529836Y-21898304D01*
X12348651Y-21921328D01*
X12170366Y-21953166D01*
X11995209Y-21993592D01*
X11823408Y-22042378D01*
X11655190Y-22099297D01*
X11490782Y-22164121D01*
X11330413Y-22236622D01*
X11174309Y-22316574D01*
X11022698Y-22403748D01*
X10875808Y-22497918D01*
X10733865Y-22598855D01*
X10597098Y-22706333D01*
X10465734Y-22820124D01*
X10340000Y-22940000D01*
X10220124Y-23065733D01*
X10106334Y-23197097D01*
X9998856Y-23333864D01*
X9897919Y-23475807D01*
X9803749Y-23622697D01*
X9716574Y-23774308D01*
X9636623Y-23930412D01*
X9564121Y-24090782D01*
X9499297Y-24255189D01*
X9442378Y-24423407D01*
X9393592Y-24595209D01*
X9353166Y-24770365D01*
X9321328Y-24948650D01*
X9298304Y-25129836D01*
X9284323Y-25313695D01*
X9279613Y-25500000D01*
D13*
%TO.C,J1*%
X6530000Y-4897500D02*
X6530000Y-3347500D01*
X6530000Y-97500D02*
X6530000Y-197500D01*
X15470000Y-97500D02*
X15470000Y-197500D01*
X6530000Y-97500D02*
X15470000Y-97500D01*
X15470000Y-4897500D02*
X15470000Y-3347500D01*
%TD*%
M02*
