%TF.GenerationSoftware,KiCad,Pcbnew,(6.0.2)*%
%TF.CreationDate,2022-04-22T09:08:26+08:00*%
%TF.ProjectId,usb-nvme,7573622d-6e76-46d6-952e-6b696361645f,rev?*%
%TF.SameCoordinates,Original*%
%TF.FileFunction,Legend,Top*%
%TF.FilePolarity,Positive*%
%FSLAX46Y46*%
G04 Gerber Fmt 4.6, Leading zero omitted, Abs format (unit mm)*
G04 Created by KiCad (PCBNEW (6.0.2)) date 2022-04-22 09:08:26*
%MOMM*%
%LPD*%
G01*
G04 APERTURE LIST*
%ADD10C,0.100000*%
%ADD11C,0.120000*%
%ADD12C,0.150000*%
G04 APERTURE END LIST*
D10*
X1800000Y-43200000D02*
X1800000Y-42800000D01*
X1600000Y-43000000D02*
X2000000Y-43000000D01*
D11*
%TO.C,D1*%
X16550000Y-100000D02*
X16550000Y-2650000D01*
X18250000Y-100000D02*
X16550000Y-100000D01*
X18250000Y-100000D02*
X18250000Y-2650000D01*
%TO.C,U8*%
X11660000Y-40200000D02*
X11660000Y-38400000D01*
X11660000Y-40200000D02*
X11660000Y-41000000D01*
X8540000Y-40200000D02*
X8540000Y-41000000D01*
X8540000Y-40200000D02*
X8540000Y-39400000D01*
%TO.C,U7*%
X18760000Y-40200000D02*
X18760000Y-41000000D01*
X18760000Y-40200000D02*
X18760000Y-38400000D01*
X15640000Y-40200000D02*
X15640000Y-39400000D01*
X15640000Y-40200000D02*
X15640000Y-41000000D01*
%TO.C,U9*%
X5300000Y-38340000D02*
X3900000Y-38340000D01*
X3900000Y-40660000D02*
X5800000Y-40660000D01*
%TO.C,RN1*%
X7180000Y-20250000D02*
X7180000Y-19750000D01*
X4820000Y-20250000D02*
X4820000Y-19750000D01*
%TO.C,L3*%
X14710000Y-41861252D02*
X14710000Y-41338748D01*
X12490000Y-41861252D02*
X12490000Y-41338748D01*
%TO.C,TP2*%
X2800000Y-40800000D02*
X5200000Y-40800000D01*
X5200000Y-43200000D02*
X2800000Y-43200000D01*
X2800000Y-43200000D02*
X2800000Y-40800000D01*
X5200000Y-40800000D02*
X5200000Y-43200000D01*
%TO.C,C45*%
X12992164Y-33360000D02*
X13207836Y-33360000D01*
X12992164Y-32640000D02*
X13207836Y-32640000D01*
%TO.C,C15*%
X5560000Y-26812164D02*
X5560000Y-27027836D01*
X4840000Y-26812164D02*
X4840000Y-27027836D01*
%TO.C,C33*%
X19940580Y-5490000D02*
X19659420Y-5490000D01*
X19940580Y-6510000D02*
X19659420Y-6510000D01*
%TO.C,C51*%
X10759420Y-43310000D02*
X11040580Y-43310000D01*
X10759420Y-42290000D02*
X11040580Y-42290000D01*
D12*
%TO.C,U4*%
X4875000Y-29294975D02*
X4875000Y-32294975D01*
X7125000Y-30794975D02*
X7125000Y-32294975D01*
D11*
%TO.C,Y1*%
X21650000Y-21950000D02*
X21650000Y-19250000D01*
X19350000Y-21950000D02*
X21650000Y-21950000D01*
%TO.C,C46*%
X11307836Y-32640000D02*
X11092164Y-32640000D01*
X11307836Y-33360000D02*
X11092164Y-33360000D01*
%TO.C,C53*%
X20540580Y-38590000D02*
X20259420Y-38590000D01*
X20540580Y-39610000D02*
X20259420Y-39610000D01*
%TO.C,C54*%
X13440580Y-38590000D02*
X13159420Y-38590000D01*
X13440580Y-39610000D02*
X13159420Y-39610000D01*
%TO.C,C32*%
X19940580Y-6690000D02*
X19659420Y-6690000D01*
X19940580Y-7710000D02*
X19659420Y-7710000D01*
%TO.C,TP3*%
X5400000Y-43200000D02*
X5400000Y-40800000D01*
X7800000Y-40800000D02*
X7800000Y-43200000D01*
X5400000Y-40800000D02*
X7800000Y-40800000D01*
X7800000Y-43200000D02*
X5400000Y-43200000D01*
%TO.C,C52*%
X17859420Y-43310000D02*
X18140580Y-43310000D01*
X17859420Y-42290000D02*
X18140580Y-42290000D01*
%TO.C,U5*%
X18240000Y-3400000D02*
X18240000Y-2600000D01*
X21360000Y-3400000D02*
X21360000Y-4200000D01*
X21360000Y-3400000D02*
X21360000Y-1600000D01*
X18240000Y-3400000D02*
X18240000Y-4200000D01*
%TO.C,U2*%
X5850000Y-9700000D02*
X5850000Y-8400000D01*
X3050000Y-9700000D02*
X3050000Y-8700000D01*
%TO.C,C31*%
X19659420Y-290000D02*
X19940580Y-290000D01*
X19659420Y-1310000D02*
X19940580Y-1310000D01*
%TO.C,U3*%
X2850000Y-9700000D02*
X2850000Y-8400000D01*
X50000Y-9700000D02*
X50000Y-8700000D01*
%TO.C,U1*%
X13253553Y-18711775D02*
X12546447Y-18711775D01*
X13253553Y-32288225D02*
X13359619Y-32182159D01*
X12546447Y-18711775D02*
X12440381Y-18817841D01*
X12546447Y-32288225D02*
X13253553Y-32288225D01*
X6111775Y-25146447D02*
X6111775Y-25853553D01*
X6111775Y-25853553D02*
X6217841Y-25959619D01*
X19582159Y-25959619D02*
X19688225Y-25853553D01*
X19688225Y-25146447D02*
X19582159Y-25040381D01*
X12440381Y-32182159D02*
X12546447Y-32288225D01*
X13359619Y-18817841D02*
X13253553Y-18711775D01*
X19688225Y-25853553D02*
X19688225Y-25146447D01*
X6217841Y-25040381D02*
X6111775Y-25146447D01*
X6111775Y-25853553D02*
X5758222Y-25500000D01*
X5758222Y-25500000D02*
X6111775Y-25146447D01*
X6111775Y-25146447D02*
X6111775Y-25853553D01*
G36*
X6111775Y-25853553D02*
G01*
X5758222Y-25500000D01*
X6111775Y-25146447D01*
X6111775Y-25853553D01*
G37*
X6111775Y-25853553D02*
X5758222Y-25500000D01*
X6111775Y-25146447D01*
X6111775Y-25853553D01*
%TO.C,U6*%
X9350000Y-9700000D02*
X9350000Y-8700000D01*
X12150000Y-9700000D02*
X12150000Y-8400000D01*
%TO.C,L2*%
X21810000Y-41861252D02*
X21810000Y-41338748D01*
X19590000Y-41861252D02*
X19590000Y-41338748D01*
%TD*%
M02*
